{"glyphs":{"0":{"ha":935,"x_min":60,"x_max":876,"o":"m 876 488 q 863 365 876 426 q 826 248 850 304 q 765 145 801 193 q 684 62 730 97 q 585 6 639 26 q 468 -14 530 -14 q 351 6 406 -14 q 251 62 296 26 q 170 145 205 97 q 110 248 135 193 q 73 365 85 304 q 60 488 60 426 q 73 610 60 549 q 110 727 85 671 q 170 830 135 783 q 251 913 205 878 q 351 969 296 949 q 468 989 406 989 q 585 969 530 989 q 684 913 639 949 q 765 830 730 878 q 826 727 801 783 q 863 610 850 671 q 876 488 876 549 m 745 418 q 735 525 745 468 q 707 637 726 581 q 661 744 688 693 q 597 835 633 795 q 518 898 562 874 q 422 921 474 921 q 350 906 382 921 q 292 866 317 891 q 249 806 267 840 q 220 734 231 772 q 203 656 208 696 q 197 578 197 616 q 207 471 197 528 q 235 357 216 414 q 280 249 253 301 q 343 158 307 197 q 422 94 378 118 q 517 71 465 71 q 590 85 557 71 q 648 126 623 100 q 692 186 673 152 q 722 259 710 220 q 739 338 733 298 q 745 418 745 379 z "},"1":{"ha":431,"x_min":14,"x_max":306,"o":"m 306 22 l 165 -28 l 165 836 l 37 766 l 14 807 l 306 977 l 306 22 z "},"2":{"ha":755,"x_min":28,"x_max":689,"o":"m 689 690 q 660 553 689 618 q 586 433 631 489 q 486 330 541 377 q 376 244 430 282 q 308 197 342 220 q 240 150 274 174 q 270 154 255 153 q 298 155 284 155 q 357 151 328 155 q 415 141 387 146 q 471 131 444 135 q 526 126 499 126 q 566 134 546 126 q 603 155 585 142 q 636 183 621 168 q 663 212 652 198 l 688 196 l 572 -14 q 477 0 526 -7 q 381 13 429 7 q 285 24 333 20 q 189 29 237 28 q 155 28 173 30 q 120 21 137 26 q 87 8 102 16 q 61 -14 72 -1 l 28 9 q 161 133 93 75 q 297 253 229 192 q 377 333 336 288 q 452 430 418 378 q 508 538 486 482 q 530 648 530 593 q 514 735 530 695 q 470 805 498 776 q 401 851 441 835 q 315 868 362 868 q 247 859 281 868 q 182 835 213 850 q 123 797 151 819 q 74 749 96 775 l 50 770 q 113 847 76 809 q 194 915 150 885 q 287 964 238 945 q 386 982 336 982 q 509 962 453 982 q 605 904 565 942 q 667 812 645 867 q 689 690 689 758 z "},"3":{"ha":715,"x_min":39,"x_max":668,"o":"m 668 289 q 653 200 668 241 q 613 123 638 159 q 553 58 587 87 q 480 4 519 28 q 399 -37 441 -19 q 317 -66 357 -55 q 215 -89 267 -81 q 110 -97 163 -97 q 90 -97 100 -97 q 69 -96 80 -97 l 62 -65 q 156 -46 106 -60 q 254 -10 205 -32 q 348 41 303 12 q 427 107 393 70 q 482 189 462 144 q 503 285 503 233 q 486 367 503 330 q 439 430 469 404 q 371 470 410 456 q 286 484 332 484 q 195 472 240 484 q 107 446 150 461 l 96 476 q 158 508 124 490 q 224 548 191 526 q 288 597 257 570 q 342 653 318 623 q 379 718 366 684 q 393 789 393 751 q 368 862 393 838 q 293 885 342 885 q 231 876 264 885 q 168 853 199 867 q 109 819 136 838 q 61 778 81 799 l 39 799 q 106 868 67 833 q 189 930 144 903 q 281 975 233 958 q 378 991 330 991 q 446 981 412 991 q 507 951 480 971 q 550 903 534 932 q 567 835 567 873 q 552 765 567 798 q 511 701 536 731 q 454 644 486 671 q 387 595 421 617 q 319 555 353 573 q 257 525 285 538 q 323 538 290 534 q 390 543 357 543 q 497 525 447 543 q 586 474 548 507 q 646 394 624 441 q 668 289 668 347 z "},"4":{"ha":758,"x_min":-1,"x_max":725,"o":"m 725 397 l 675 257 l 604 257 l 604 36 l 464 -16 l 464 257 l -1 257 q 106 394 58 323 q 194 538 155 464 q 262 693 233 613 q 314 860 292 773 l 407 811 q 371 705 395 762 q 316 592 347 648 q 250 485 286 536 q 180 397 215 434 l 464 397 l 464 928 l 604 978 l 604 397 l 725 397 z "},"5":{"ha":700,"x_min":49,"x_max":647,"o":"m 647 293 q 630 202 647 245 q 585 123 614 160 q 519 55 557 86 q 439 -2 481 23 q 354 -47 397 -28 q 271 -79 311 -66 q 168 -105 220 -96 q 62 -117 116 -115 l 49 -75 q 146 -47 96 -64 q 246 -7 197 -31 q 338 47 294 17 q 415 117 382 78 q 468 203 448 155 q 488 307 488 250 q 487 318 488 311 q 486 334 487 326 q 484 351 486 342 q 481 363 483 359 q 438 431 464 402 q 379 478 412 460 q 308 506 347 497 q 228 515 269 515 q 135 504 183 515 q 49 469 87 493 l 171 972 l 647 972 l 599 818 l 182 818 l 113 545 q 163 565 136 557 q 219 578 190 573 q 276 586 248 584 q 330 589 304 589 q 457 569 399 589 q 557 512 515 550 q 623 419 600 475 q 647 293 647 364 z "},"6":{"ha":848,"x_min":56,"x_max":815,"o":"m 229 476 q 218 408 222 443 q 214 340 214 374 q 227 228 214 282 q 269 132 240 174 q 343 65 298 90 q 454 40 389 40 q 546 59 507 40 q 610 109 585 77 q 648 184 635 141 q 660 275 660 227 q 643 376 660 326 q 595 467 626 427 q 519 532 564 507 q 419 557 475 557 q 318 533 364 557 q 229 476 271 510 m 815 323 q 799 231 815 275 q 756 146 783 186 q 691 74 728 106 q 611 17 654 41 q 522 -20 568 -7 q 429 -33 475 -33 q 275 -3 345 -33 q 157 81 206 28 q 82 206 109 134 q 56 361 56 278 q 82 516 56 441 q 153 655 108 590 q 259 775 198 720 q 390 871 320 829 q 535 940 460 912 q 685 978 611 967 l 697 936 q 605 907 654 930 q 510 854 557 885 q 422 788 463 823 q 351 720 380 752 q 292 638 318 682 q 250 546 267 594 q 312 583 279 566 q 380 610 345 599 q 450 627 415 621 q 518 633 486 633 q 660 600 598 633 q 762 498 722 566 q 801 414 786 458 q 815 323 815 370 z "},"7":{"ha":686,"x_min":8,"x_max":715,"o":"m 715 977 q 622 875 667 934 q 537 750 576 816 q 467 616 498 684 q 414 486 435 547 q 387 399 401 447 q 362 300 373 351 q 343 202 351 250 q 336 114 336 153 q 338 81 336 97 q 345 49 339 64 l 153 -29 l 153 -21 q 160 76 151 27 q 180 172 168 125 q 240 347 203 260 q 322 514 276 433 q 424 671 368 595 q 539 815 479 747 l 245 815 q 188 809 218 815 q 131 792 158 804 q 80 761 103 780 q 45 717 58 743 l 8 746 l 139 970 l 591 970 q 643 978 617 970 q 690 1002 669 987 l 715 977 z "},"8":{"ha":800,"x_min":53,"x_max":746,"o":"m 746 275 q 714 141 746 200 q 631 41 683 81 q 512 -21 579 0 q 375 -43 446 -43 q 255 -24 313 -43 q 152 31 197 -5 q 80 118 107 66 q 53 236 53 170 q 71 326 53 284 q 120 404 90 368 q 188 467 150 439 q 265 515 226 495 q 211 556 237 534 q 166 607 185 579 q 135 666 146 634 q 123 733 123 698 q 138 812 123 777 q 177 877 153 848 q 235 926 202 905 q 306 960 269 947 q 382 981 342 974 q 458 987 421 987 q 547 975 506 987 q 618 937 588 962 q 666 874 649 911 q 684 786 684 836 q 663 705 684 741 q 612 638 643 668 q 543 586 581 609 q 469 546 505 563 q 530 519 498 534 q 592 487 562 505 q 651 448 623 469 q 700 400 679 427 q 733 343 721 374 q 746 275 746 312 m 555 761 q 544 827 555 795 q 513 883 533 859 q 464 922 492 907 q 399 937 435 937 q 339 928 368 937 q 289 901 311 919 q 254 858 267 884 q 241 799 241 832 q 256 729 241 762 q 293 668 270 696 q 345 617 316 640 q 403 578 374 595 q 457 610 430 592 q 506 650 484 627 q 542 700 528 672 q 555 761 555 727 m 642 174 q 627 243 642 210 q 587 306 612 277 q 529 361 562 336 q 463 408 497 387 q 395 448 429 430 q 334 478 361 465 q 285 433 307 458 q 246 379 262 408 q 220 318 230 350 q 211 253 211 286 q 231 165 211 207 q 284 91 251 123 q 361 39 318 58 q 450 20 404 20 q 518 30 484 20 q 579 59 552 40 q 624 107 607 79 q 642 174 642 136 z "},"9":{"ha":848,"x_min":33,"x_max":793,"o":"m 618 469 q 630 537 627 503 q 633 606 633 572 q 621 718 633 663 q 579 813 608 772 q 505 880 551 855 q 393 905 459 905 q 302 887 341 905 q 238 837 264 869 q 200 762 212 805 q 187 671 187 720 q 204 569 187 620 q 253 478 221 519 q 329 413 284 438 q 429 389 374 389 q 482 395 456 389 q 531 412 507 401 q 576 438 554 423 q 618 469 597 453 m 793 585 q 767 430 793 504 q 695 290 741 355 q 589 171 650 225 q 458 75 528 117 q 313 5 389 33 q 164 -33 238 -22 l 150 9 q 211 25 179 14 q 274 54 242 37 q 337 92 306 71 q 398 135 369 113 q 452 181 427 158 q 497 227 477 205 q 556 308 531 264 q 599 400 581 352 q 536 363 570 380 q 468 336 503 347 q 397 319 433 325 q 329 313 362 313 q 189 346 251 313 q 85 447 127 379 q 47 531 62 487 q 33 623 33 575 q 49 715 33 670 q 93 800 65 760 q 157 872 120 839 q 237 928 194 905 q 327 965 280 952 q 419 978 373 978 q 572 947 503 978 q 690 864 642 917 q 766 739 739 811 q 793 585 793 667 z "}," ":{"ha":293,"x_min":0,"x_max":0,"o":""},"ł":{"ha":349,"x_min":-5,"x_max":349,"o":"m 349 578 l 349 504 l 233 460 l 233 98 q 240 74 233 85 q 261 62 246 62 q 292 75 278 62 q 314 100 305 87 l 332 79 q 312 46 324 62 q 283 18 299 31 q 249 -1 268 6 q 211 -8 231 -8 q 134 21 158 -8 q 110 102 110 51 l 110 412 l -5 368 l -5 441 l 110 486 l 110 929 l 233 972 l 233 533 l 349 578 z "},"Þ":{"ha":846,"x_min":53,"x_max":823,"o":"m 272 3 l 132 -49 l 132 619 q 102 596 117 608 q 74 572 87 585 l 53 596 q 132 663 90 632 l 132 950 l 272 1000 l 272 747 q 410 799 340 781 q 543 818 479 818 q 653 797 602 818 q 742 739 705 777 q 802 650 780 702 q 823 538 823 599 q 801 426 823 479 q 742 325 779 372 q 654 240 704 279 q 549 175 605 202 q 436 133 494 148 q 325 118 378 118 q 314 118 319 118 q 302 119 308 118 l 310 157 q 399 179 354 164 q 486 217 444 195 q 563 270 527 240 q 625 337 599 300 q 667 418 652 374 q 682 513 682 463 q 667 601 682 560 q 623 671 651 642 q 555 718 595 701 q 468 734 516 734 q 371 724 421 734 q 272 694 321 713 l 272 3 z "},"þ":{"ha":589,"x_min":-18,"x_max":546,"o":"m 304 -12 q 258 -6 280 -12 q 218 16 237 1 l 271 92 q 301 64 283 74 q 339 54 318 54 q 376 65 361 54 q 402 95 392 77 q 420 136 413 113 q 430 182 427 159 q 435 226 433 205 q 436 262 436 248 q 428 324 436 291 q 405 387 420 357 q 364 435 389 416 q 304 454 339 454 q 263 443 280 454 q 236 411 247 431 q 218 367 224 392 q 209 318 212 342 q 205 270 205 293 q 204 229 204 246 l 204 -292 l 81 -335 l 81 846 q 74 870 81 859 q 53 882 67 882 q 22 869 36 882 q 0 844 8 857 l -18 865 q 2 898 -10 882 q 31 926 15 914 q 65 946 47 939 q 104 953 84 953 q 151 945 132 953 q 181 923 170 937 q 198 889 193 909 q 204 846 203 869 l 204 415 q 230 457 215 436 q 262 495 244 479 q 303 523 281 512 q 351 533 325 533 q 434 512 398 533 q 495 458 471 492 q 533 382 520 425 q 546 297 546 340 q 531 189 546 243 q 485 89 515 134 q 410 16 455 44 q 304 -12 365 -12 z "},"½":{"ha":863,"x_min":62,"x_max":798,"o":"m 685 908 l 134 21 l 62 68 l 619 953 l 685 908 m 151 440 l 151 863 l 93 831 l 75 863 l 235 956 l 235 471 l 151 440 m 734 36 q 638 50 686 43 q 545 57 591 57 q 512 53 529 58 q 484 33 495 48 l 454 54 q 525 120 491 91 q 593 179 559 149 q 631 218 612 196 q 667 266 651 241 q 694 316 684 290 q 704 368 704 342 q 696 408 704 389 q 676 439 689 426 q 645 460 663 453 q 606 468 627 468 q 543 452 573 468 q 488 407 513 436 l 467 427 q 500 468 481 448 q 542 504 519 488 q 590 530 565 520 q 640 539 614 539 q 703 529 675 539 q 752 499 732 518 q 785 451 773 479 q 796 387 796 422 q 782 318 796 351 q 744 258 767 286 q 694 206 722 230 q 640 164 667 182 q 617 148 629 155 q 595 134 606 141 l 597 134 q 641 129 619 134 q 684 121 662 124 q 696 119 690 119 q 710 118 703 118 q 743 132 726 118 q 775 164 760 146 l 798 149 l 734 36 z "},"¼":{"ha":804,"x_min":65,"x_max":742,"o":"m 688 908 l 136 21 l 65 68 l 623 953 l 688 908 m 154 440 l 154 863 l 96 831 l 78 863 l 237 956 l 237 471 l 154 440 m 711 157 l 679 157 l 679 50 l 596 21 l 596 157 l 359 157 q 418 230 392 193 q 464 304 444 266 q 499 383 484 342 q 526 468 514 423 l 583 439 q 567 387 578 414 q 543 333 556 360 q 513 282 529 307 q 481 239 497 258 l 596 239 l 596 497 l 679 526 l 679 239 l 742 239 l 711 157 z "},"¹":{"ha":278,"x_min":35,"x_max":195,"o":"m 111 440 l 111 863 l 54 831 l 35 863 l 195 956 l 195 471 l 111 440 z "},"¾":{"ha":917,"x_min":65,"x_max":854,"o":"m 800 908 l 249 21 l 178 68 l 736 953 l 800 908 m 825 157 l 791 157 l 791 50 l 710 21 l 710 157 l 473 157 q 531 230 506 193 q 577 304 557 266 q 612 383 597 342 q 639 468 627 423 l 696 439 q 680 387 690 414 q 655 333 669 360 q 625 282 641 307 q 593 239 609 258 l 710 239 l 710 497 l 791 526 l 791 239 l 854 239 l 825 157 m 212 425 q 110 410 161 410 q 99 410 104 410 q 85 411 93 410 l 78 439 q 151 456 113 443 q 222 490 190 469 q 275 539 254 511 q 296 604 296 568 q 288 642 296 625 q 267 670 281 659 q 235 688 254 682 q 196 694 217 694 q 152 689 174 694 q 104 673 130 683 l 94 701 q 143 727 117 712 q 191 762 170 743 q 227 803 213 781 q 241 851 241 825 q 231 881 241 872 q 200 890 221 890 q 171 886 186 890 q 141 875 156 882 q 111 858 125 868 q 86 836 97 848 l 65 856 q 101 893 81 875 q 144 926 121 911 q 191 948 167 940 q 240 957 216 957 q 276 952 258 957 q 309 936 294 947 q 332 910 323 926 q 340 873 340 895 q 330 831 340 851 q 303 794 319 811 q 267 762 287 777 q 228 736 247 747 q 237 737 232 737 q 248 737 242 737 q 302 728 276 737 q 347 702 328 719 q 378 660 367 684 q 390 606 390 636 q 373 540 390 569 q 331 488 357 511 q 274 450 305 465 q 212 425 242 434 z "},"³":{"ha":431,"x_min":62,"x_max":387,"o":"m 210 425 q 107 410 159 410 q 96 410 102 410 q 82 411 90 410 l 75 439 q 149 456 110 443 q 219 490 187 469 q 272 539 251 511 q 293 604 293 568 q 286 642 293 625 q 264 670 278 659 q 233 688 251 682 q 193 694 214 694 q 150 689 172 694 q 102 673 127 683 l 92 701 q 141 727 115 712 q 189 762 167 743 q 224 803 210 781 q 239 851 239 825 q 229 881 239 872 q 197 890 218 890 q 169 886 184 890 q 138 875 153 882 q 109 858 123 868 q 83 836 94 848 l 62 856 q 98 893 78 875 q 141 926 119 911 q 189 948 164 940 q 237 957 213 957 q 274 952 256 957 q 306 936 292 947 q 329 910 320 926 q 338 873 338 895 q 327 831 338 851 q 300 794 317 811 q 264 762 284 777 q 225 736 244 747 q 234 737 229 737 q 244 737 239 737 q 299 728 273 737 q 345 702 325 719 q 376 660 364 684 q 387 606 387 636 q 371 540 387 569 q 328 488 354 511 q 271 450 302 465 q 210 425 239 434 z "},"²":{"ha":463,"x_min":57,"x_max":400,"o":"m 338 456 q 240 468 288 462 q 146 476 193 475 q 114 472 131 477 q 85 453 98 467 l 57 473 q 128 539 94 509 q 195 599 162 568 q 233 638 213 616 q 270 684 253 660 q 297 735 286 709 q 307 787 307 762 q 300 827 307 808 q 279 859 292 846 q 248 880 266 872 q 208 888 229 888 q 145 872 176 888 q 90 827 115 856 l 69 846 q 103 887 83 867 q 145 923 122 907 q 192 949 168 939 q 243 958 217 958 q 306 948 277 958 q 355 918 335 937 q 387 870 376 899 q 399 807 399 842 q 384 737 399 770 q 347 676 370 705 q 296 625 324 648 q 241 583 268 602 q 220 568 231 575 q 197 553 209 560 l 200 553 q 243 548 222 553 q 286 541 264 544 q 299 538 292 539 q 313 538 305 538 q 346 551 328 538 q 378 582 363 565 l 400 567 l 338 456 z "},"¦":{"ha":322,"x_min":92,"x_max":232,"o":"m 232 492 l 92 441 l 92 971 l 232 1021 l 232 492 m 232 -142 l 92 -192 l 92 338 l 232 387 l 232 -142 z "},"−":{"ha":684,"x_min":96,"x_max":602,"o":"m 602 567 l 559 457 l 96 457 l 139 567 l 602 567 z "},"×":{"ha":602,"x_min":83,"x_max":518,"o":"m 518 708 l 358 513 l 518 317 l 411 269 l 301 431 l 191 269 l 83 317 l 243 513 l 83 708 l 191 755 l 301 595 l 411 755 l 518 708 z "},"!":{"ha":334,"x_min":66,"x_max":252,"o":"m 252 972 l 196 212 l 123 195 l 66 922 l 252 972 m 237 52 q 231 21 237 35 q 215 -4 225 7 q 190 -20 204 -14 q 160 -26 176 -26 q 129 -20 144 -26 q 104 -4 115 -14 q 87 21 94 7 q 81 52 81 35 q 87 82 81 68 q 104 107 94 96 q 129 124 115 118 q 160 131 144 131 q 190 124 176 131 q 215 107 204 118 q 231 82 225 96 q 237 52 237 68 z "},"\"":{"ha":424,"x_min":53,"x_max":371,"o":"m 204 972 l 161 639 l 100 616 l 53 916 l 204 972 m 371 972 l 328 639 l 267 616 l 220 916 l 371 972 z "},"#":{"ha":835,"x_min":57,"x_max":771,"o":"m 343 399 l 456 399 l 486 496 l 378 496 l 343 399 m 57 353 l 75 399 l 229 399 l 260 496 l 113 496 l 131 541 l 273 541 l 332 732 l 471 757 l 395 541 l 500 541 l 558 732 l 697 757 l 621 541 l 771 541 l 753 496 l 604 496 l 570 399 l 715 399 l 697 353 l 554 353 l 489 170 l 382 158 l 441 353 l 328 353 l 262 170 l 155 158 l 215 353 l 57 353 z "},"$":{"ha":564,"x_min":71,"x_max":504,"o":"m 428 618 q 402 675 418 648 q 367 721 387 701 q 320 752 346 741 q 261 764 294 764 q 218 755 238 764 q 184 733 199 747 q 161 699 170 718 q 153 656 153 679 q 166 599 153 623 q 202 558 180 576 q 252 528 224 541 q 310 502 280 515 q 367 475 339 490 q 417 442 395 461 q 453 396 439 422 q 467 332 467 369 q 454 271 467 298 q 420 223 441 243 q 371 189 399 202 q 313 170 343 175 l 339 5 l 237 -33 l 262 164 q 212 172 237 165 q 163 193 186 180 q 118 223 139 205 q 82 260 98 240 l 157 345 q 179 299 163 323 q 218 255 196 275 q 264 221 239 235 q 311 208 288 208 q 338 215 324 208 q 363 233 352 222 q 382 256 375 243 q 390 281 390 269 q 376 332 390 311 q 340 371 363 354 q 289 401 317 388 q 230 428 260 414 q 172 458 200 442 q 120 495 143 474 q 84 546 98 517 q 71 614 71 574 q 86 685 71 652 q 126 743 101 718 q 185 786 152 769 q 254 811 218 804 l 229 972 l 330 1010 l 306 815 q 416 787 366 814 q 504 711 467 760 l 428 618 z "},"%":{"ha":990,"x_min":61,"x_max":929,"o":"m 722 17 q 636 39 674 17 q 571 97 598 61 q 530 177 544 132 q 515 268 515 222 q 530 360 515 315 q 571 441 544 405 q 636 499 598 477 q 722 521 674 521 q 808 498 770 521 q 873 440 846 476 q 915 359 901 404 q 929 268 929 313 q 915 177 929 222 q 873 97 901 132 q 808 39 846 61 q 722 17 770 17 m 254 21 l 183 68 l 741 953 l 806 908 l 254 21 m 268 453 q 182 475 220 453 q 117 533 144 497 q 75 613 90 568 q 61 704 61 658 q 75 795 61 750 q 117 876 90 840 q 182 935 144 912 q 268 957 220 957 q 354 935 316 957 q 419 876 393 912 q 460 795 446 840 q 475 704 475 750 q 460 613 475 658 q 419 533 446 568 q 354 475 393 497 q 268 453 316 453 m 700 473 q 653 459 673 473 q 621 421 633 444 q 602 370 608 399 q 596 313 596 341 q 607 234 596 276 q 636 156 617 192 q 684 96 656 119 q 746 72 711 72 q 792 86 773 72 q 825 124 812 101 q 844 177 838 148 q 850 235 850 206 q 839 314 850 272 q 809 391 829 355 q 762 450 790 427 q 700 473 734 473 m 245 909 q 199 895 218 909 q 166 858 179 881 q 148 806 154 835 q 142 749 142 777 q 146 697 142 724 q 160 643 151 670 q 182 592 169 616 q 211 549 195 568 q 248 520 228 531 q 292 509 269 509 q 338 523 319 509 q 371 561 358 538 q 390 613 384 585 q 396 671 396 642 q 386 750 396 708 q 356 827 375 791 q 309 886 336 863 q 245 909 281 909 z "},"&":{"ha":636,"x_min":61,"x_max":599,"o":"m 427 90 l 286 408 q 247 374 267 393 q 210 332 227 355 q 183 280 193 309 q 172 218 172 252 q 187 151 172 181 q 227 101 202 121 q 285 71 252 81 q 354 65 318 62 q 392 75 375 67 q 427 90 409 83 m 349 554 q 370 576 357 562 q 394 606 382 590 q 414 637 406 621 q 422 665 422 653 q 419 684 422 675 q 409 702 415 694 q 394 714 402 709 q 375 720 385 720 q 351 712 361 720 q 335 694 341 705 q 326 670 329 683 q 323 644 323 656 q 331 598 323 621 q 349 554 338 575 m 599 205 q 578 161 589 182 q 551 119 566 139 l 590 33 l 484 -25 l 457 35 q 423 16 441 24 q 385 0 404 7 q 346 -12 366 -7 q 307 -16 326 -16 q 212 -3 256 -16 q 133 35 167 9 q 80 98 100 60 q 61 187 61 136 q 79 282 61 240 q 125 359 97 325 q 189 419 154 393 q 257 468 224 446 q 230 534 240 500 q 220 604 220 568 q 229 667 220 637 q 255 719 237 696 q 300 756 273 742 q 361 770 326 770 q 405 760 385 770 q 439 734 425 751 q 461 697 454 718 q 469 652 469 675 q 461 606 469 627 q 440 565 453 585 q 411 529 427 546 q 379 494 395 511 q 450 328 418 401 q 477 267 464 297 q 501 214 490 237 q 518 177 511 191 q 526 163 525 163 q 567 222 552 189 l 599 205 z "},"'":{"ha":257,"x_min":53,"x_max":204,"o":"m 204 972 l 161 639 l 100 616 l 53 916 l 204 972 z "},"(":{"ha":437,"x_min":41,"x_max":437,"o":"m 437 -168 l 418 -203 q 314 -134 363 -174 q 223 -45 265 -94 q 148 58 182 3 q 91 172 114 113 q 54 292 67 231 q 41 416 41 354 q 70 602 41 510 q 148 777 98 694 q 267 926 198 859 q 418 1038 336 994 l 437 1008 q 332 888 378 958 q 255 740 286 819 q 208 577 224 661 q 192 416 192 494 q 208 257 192 339 q 254 96 223 174 q 331 -51 286 18 q 437 -168 377 -119 z "},")":{"ha":435,"x_min":-1,"x_max":395,"o":"m 395 419 q 366 233 395 326 q 288 59 338 141 q 169 -91 237 -23 q 18 -203 100 -159 l -1 -174 q 104 -53 58 -123 q 181 95 150 16 q 227 258 212 174 q 243 419 243 341 q 227 578 243 496 q 181 739 212 661 q 104 885 150 817 q -1 1003 58 954 l 18 1038 q 169 927 100 994 q 288 778 238 860 q 367 605 338 696 q 395 419 395 513 z "},"*":{"ha":545,"x_min":66,"x_max":478,"o":"m 207 521 l 232 665 l 138 568 l 66 654 l 207 742 l 66 831 l 138 917 l 236 807 l 207 972 l 328 972 l 300 798 l 407 917 l 478 831 l 338 742 l 478 654 l 407 568 l 298 681 l 328 521 l 207 521 z "},"+":{"ha":623,"x_min":58,"x_max":564,"o":"m 367 301 l 257 258 l 257 457 l 58 457 l 102 567 l 257 567 l 257 722 l 367 765 l 367 567 l 564 567 l 522 457 l 367 457 l 367 301 z "},",":{"ha":298,"x_min":71,"x_max":228,"o":"m 228 52 q 219 1 228 25 q 195 -43 210 -22 q 160 -80 180 -63 q 118 -110 140 -97 l 93 -89 q 117 -60 106 -77 q 131 -25 127 -42 q 87 3 104 -18 q 71 52 71 24 q 77 82 71 68 q 94 107 83 96 q 118 124 104 118 q 149 131 132 131 q 179 124 165 131 q 204 107 194 118 q 221 82 215 96 q 228 52 228 68 z "},"-":{"ha":644,"x_min":81,"x_max":586,"o":"m 586 567 l 545 457 l 81 457 l 123 567 l 586 567 z "},".":{"ha":297,"x_min":71,"x_max":228,"o":"m 228 52 q 221 21 228 35 q 204 -4 215 7 q 179 -20 194 -14 q 149 -26 165 -26 q 118 -20 132 -26 q 94 -4 104 -14 q 77 21 83 7 q 71 52 71 35 q 77 82 71 68 q 94 107 83 96 q 118 124 104 118 q 149 131 132 131 q 179 124 165 131 q 204 107 194 118 q 221 82 215 96 q 228 52 228 68 z "},"/":{"ha":789,"x_min":40,"x_max":750,"o":"m 125 -33 l 40 22 l 673 1003 l 750 950 l 125 -33 z "},":":{"ha":304,"x_min":74,"x_max":231,"o":"m 231 52 q 224 21 231 35 q 207 -4 218 7 q 182 -20 197 -14 q 151 -26 168 -26 q 121 -20 135 -26 q 97 -4 107 -14 q 80 21 86 7 q 74 52 74 35 q 80 82 74 68 q 97 107 86 96 q 121 124 107 118 q 151 131 135 131 q 182 124 168 131 q 207 107 197 118 q 224 82 218 96 q 231 52 231 68 m 231 468 q 224 438 231 452 q 207 413 218 424 q 182 396 197 402 q 151 390 168 390 q 121 396 135 390 q 97 413 107 402 q 80 438 86 424 q 74 468 74 452 q 80 499 74 484 q 97 524 86 513 q 121 541 107 534 q 151 547 135 547 q 182 541 168 547 q 207 524 197 534 q 224 499 218 513 q 231 468 231 484 z "},";":{"ha":304,"x_min":74,"x_max":231,"o":"m 231 52 q 222 1 231 25 q 198 -43 213 -22 q 162 -80 182 -63 q 121 -110 142 -97 l 96 -89 q 119 -60 109 -77 q 134 -25 130 -42 q 91 3 107 -18 q 74 52 74 24 q 80 82 74 68 q 97 107 86 96 q 121 124 107 118 q 151 131 135 131 q 182 124 168 131 q 207 107 197 118 q 224 82 218 96 q 231 52 231 68 m 231 468 q 224 438 231 452 q 207 413 218 424 q 182 396 197 402 q 151 390 168 390 q 121 396 135 390 q 97 413 107 402 q 80 438 86 424 q 74 468 74 452 q 80 499 74 484 q 97 524 86 513 q 121 541 107 534 q 151 547 135 547 q 182 541 168 547 q 207 524 197 534 q 224 499 218 513 q 231 468 231 484 z "},"<":{"ha":511,"x_min":74,"x_max":427,"o":"m 427 262 l 403 233 l 74 478 l 403 743 l 427 724 l 244 478 l 427 262 z "},"=":{"ha":697,"x_min":96,"x_max":602,"o":"m 602 677 l 559 568 l 96 568 l 139 677 l 602 677 m 602 456 l 559 346 l 96 346 l 139 456 l 602 456 z "},">":{"ha":511,"x_min":85,"x_max":437,"o":"m 437 478 l 109 233 l 85 262 l 267 478 l 85 724 l 109 743 l 437 478 z "},"?":{"ha":689,"x_min":57,"x_max":629,"o":"m 629 718 q 623 649 629 683 q 603 583 616 614 q 570 524 590 551 q 522 473 549 496 q 458 420 492 448 q 395 360 425 392 q 346 291 366 328 q 322 212 325 254 l 250 195 l 250 207 q 266 311 249 266 q 309 395 283 357 q 367 468 336 433 q 425 539 398 503 q 470 617 452 575 q 488 713 488 659 q 473 790 488 752 q 434 857 459 827 q 374 903 409 886 q 297 921 338 921 q 242 911 269 921 q 194 882 215 901 q 161 839 174 864 q 149 783 149 814 q 165 711 149 745 q 210 652 182 677 l 115 570 q 90 602 101 584 q 72 641 79 621 q 61 683 64 661 q 57 724 57 704 q 82 828 57 781 q 149 911 108 876 q 243 966 191 947 q 349 986 295 986 q 411 980 379 986 q 473 961 443 973 q 530 931 503 949 q 576 890 556 913 q 601 852 591 873 q 617 809 611 831 q 627 763 624 786 q 629 718 629 739 m 366 52 q 359 21 366 35 q 342 -4 353 7 q 317 -20 331 -14 q 286 -26 302 -26 q 256 -20 270 -26 q 231 -4 241 -14 q 214 21 220 7 q 208 52 208 35 q 214 82 208 68 q 231 107 220 96 q 256 124 241 118 q 286 131 270 131 q 317 124 302 131 q 342 107 331 118 q 359 82 353 96 q 366 52 366 68 z "},"@":{"ha":863,"x_min":58,"x_max":808,"o":"m 808 313 q 803 262 808 290 q 788 205 798 235 q 763 149 778 176 q 730 100 749 121 q 688 65 711 78 q 637 52 665 52 q 599 58 614 52 q 573 78 583 65 q 559 107 564 90 q 555 146 555 125 q 506 83 536 107 q 429 58 475 58 q 367 70 394 58 q 322 102 340 81 q 295 150 304 122 q 286 212 286 178 q 302 307 286 260 q 349 390 319 353 q 421 450 379 427 q 514 473 463 473 q 555 470 534 473 q 595 457 576 466 q 629 435 614 449 q 654 403 644 422 l 574 368 q 540 405 561 389 q 494 421 519 421 q 444 404 466 421 q 407 360 422 386 q 384 305 392 334 q 376 253 376 276 q 380 210 376 233 q 394 166 385 186 q 421 134 404 146 q 463 121 437 121 q 503 131 486 121 q 529 157 519 141 q 545 195 539 174 q 552 237 550 216 q 555 280 555 259 q 555 318 555 302 l 656 353 l 656 138 q 661 118 656 127 q 677 110 666 110 q 706 121 693 110 q 730 151 720 133 q 749 192 741 170 q 763 236 758 214 q 772 277 769 258 q 775 307 775 296 q 751 418 775 368 q 687 505 728 469 q 594 561 647 541 q 482 581 541 581 q 396 566 437 581 q 319 526 355 551 q 256 466 284 500 q 207 393 227 432 q 176 310 187 353 q 165 225 165 267 q 181 119 165 170 q 228 29 197 68 q 304 -34 258 -10 q 410 -57 350 -57 q 472 -50 441 -57 q 532 -32 503 -43 l 542 -56 q 500 -73 523 -66 q 452 -85 477 -81 q 402 -92 427 -90 q 357 -94 378 -94 q 242 -68 296 -94 q 147 0 188 -43 q 82 98 106 43 q 58 214 58 154 q 91 377 58 303 q 180 503 123 450 q 314 584 237 555 q 479 612 391 612 q 601 591 542 612 q 706 530 660 569 q 780 435 752 490 q 808 313 808 380 z "},"A":{"ha":943,"x_min":57,"x_max":946,"o":"m 946 93 q 921 55 936 73 q 886 23 905 37 q 845 0 867 9 q 800 -8 823 -8 q 734 6 762 -8 q 687 44 706 20 q 658 100 667 68 q 648 165 648 131 l 648 428 q 627 335 639 385 q 597 236 614 285 q 555 141 579 186 q 499 61 532 96 q 426 5 467 26 q 332 -16 385 -16 q 216 9 267 -16 q 130 76 165 33 q 76 177 94 119 q 57 304 57 236 q 83 468 57 386 q 154 625 109 549 q 261 764 199 700 q 396 876 323 829 q 550 950 469 924 q 714 975 631 977 l 722 975 l 722 945 q 585 914 651 941 q 462 842 519 886 q 357 739 405 798 q 276 615 310 681 q 224 479 243 549 q 205 342 205 410 q 209 285 205 315 q 220 225 212 255 q 241 167 229 195 q 274 118 254 140 q 319 84 293 97 q 378 72 345 72 q 450 96 418 72 q 509 162 483 121 q 556 258 536 203 q 593 374 577 313 q 619 499 608 435 q 636 621 629 562 q 645 729 642 679 q 648 812 648 779 l 789 864 l 789 143 q 791 116 789 130 q 801 91 794 102 q 818 73 808 80 q 844 66 829 66 q 889 81 868 66 q 924 113 910 95 l 946 93 z "},"B":{"ha":879,"x_min":106,"x_max":835,"o":"m 835 307 q 807 182 835 239 q 731 81 779 126 q 624 3 684 36 q 497 -53 563 -31 q 367 -88 432 -76 q 245 -102 301 -100 l 236 -68 q 331 -43 281 -58 q 430 -6 381 -28 q 524 45 479 16 q 602 112 568 75 q 656 196 636 150 q 676 297 676 241 q 657 373 676 339 q 607 432 637 408 q 537 469 576 456 q 458 482 498 482 q 366 471 412 482 q 277 443 321 460 l 265 471 q 330 503 296 484 q 397 546 364 522 q 460 597 430 569 q 512 657 490 625 q 549 725 535 690 q 562 800 562 761 q 554 846 562 825 q 532 882 547 867 q 496 906 517 897 q 450 914 475 914 q 379 897 410 914 q 325 850 348 879 q 287 783 302 821 q 263 706 272 745 q 250 628 254 667 q 245 559 245 590 l 245 36 l 106 -14 l 106 485 q 121 613 106 551 q 164 731 136 675 q 232 834 192 787 q 323 915 273 881 q 434 967 374 948 q 561 986 494 986 q 620 978 591 986 q 670 953 648 970 q 704 911 691 936 q 717 852 717 886 q 702 782 717 817 q 663 713 688 747 q 608 650 639 680 q 543 594 576 620 q 476 548 509 568 q 415 514 443 528 q 557 530 484 530 q 660 518 610 530 q 748 478 709 505 q 811 409 787 452 q 835 307 835 367 z "},"C":{"ha":838,"x_min":56,"x_max":794,"o":"m 794 807 q 774 705 794 755 q 719 610 753 654 q 640 534 685 567 q 547 488 595 502 l 533 511 q 585 548 562 526 q 626 598 609 570 q 652 658 643 627 q 661 722 661 690 q 650 793 661 760 q 618 851 640 826 q 567 890 597 876 q 496 904 536 904 q 406 885 447 904 q 333 834 366 866 q 276 760 300 802 q 236 672 252 718 q 212 580 220 627 q 204 492 204 533 q 213 405 204 450 q 239 317 222 360 q 281 235 256 273 q 339 167 306 196 q 412 120 372 138 q 500 103 452 103 q 563 112 532 103 q 623 136 594 121 q 676 171 651 151 q 724 215 702 191 l 746 193 q 675 118 716 154 q 587 53 634 81 q 487 8 539 25 q 385 -8 435 -8 q 291 9 335 -8 q 211 56 248 26 q 145 125 174 85 q 97 210 117 165 q 66 302 77 254 q 56 395 56 349 q 78 530 56 460 q 138 665 100 600 q 230 789 177 730 q 343 890 282 847 q 470 959 404 934 q 602 985 536 985 q 677 973 642 985 q 739 939 713 961 q 779 883 764 916 q 794 807 794 850 z "},"D":{"ha":921,"x_min":53,"x_max":865,"o":"m 865 632 q 833 466 865 546 q 746 315 801 385 q 618 185 691 244 q 464 83 545 126 q 297 14 382 39 q 132 -17 212 -12 l 132 743 l 272 793 l 272 54 q 447 135 368 82 q 585 259 527 187 q 674 420 642 331 q 707 610 707 509 q 692 720 707 667 q 647 812 677 772 q 571 875 617 852 q 461 899 525 899 q 356 887 409 899 q 254 855 304 876 q 158 806 204 834 q 74 743 113 777 l 53 766 q 149 849 94 810 q 268 918 205 888 q 397 965 331 947 q 526 982 464 982 q 674 957 610 982 q 780 886 738 932 q 844 775 823 840 q 865 632 865 711 z "},"E":{"ha":741,"x_min":49,"x_max":721,"o":"m 721 267 q 649 162 691 212 q 554 75 606 113 q 443 14 503 37 q 317 -8 382 -8 q 218 9 266 -8 q 132 57 170 26 q 72 132 94 88 q 49 229 49 176 q 70 327 49 281 q 124 409 91 372 q 200 475 158 446 q 286 525 243 505 q 231 547 256 530 q 190 588 207 564 q 164 641 173 612 q 155 700 155 670 q 170 778 155 741 q 211 847 185 815 q 270 904 236 878 q 341 947 304 929 q 419 974 379 964 q 496 983 458 983 q 597 961 551 983 q 679 897 644 939 l 581 825 q 550 862 566 845 q 514 892 533 880 q 472 912 494 905 q 425 920 450 920 q 364 908 394 920 q 310 877 334 897 q 272 829 286 857 q 257 768 257 802 q 272 704 257 734 q 311 653 287 675 q 367 619 336 631 q 432 607 399 607 q 503 619 470 607 l 513 591 q 403 546 458 574 q 305 480 349 519 q 235 391 262 441 q 208 275 208 340 q 219 206 208 238 q 251 151 230 174 q 301 113 271 127 q 370 100 332 100 q 458 116 409 100 q 553 158 507 132 q 639 218 600 184 q 697 288 677 252 l 721 267 z "},"F":{"ha":808,"x_min":-3,"x_max":839,"o":"m 839 996 q 788 935 818 963 q 723 884 758 906 q 648 850 688 863 q 570 838 609 838 l 436 836 q 396 773 409 804 q 383 701 383 743 l 383 511 l 403 511 q 469 510 430 511 q 547 512 507 509 q 623 524 587 515 q 681 553 659 533 l 697 533 q 646 479 676 501 q 581 444 616 458 q 507 424 546 430 q 428 416 467 417 l 383 416 l 383 158 q 345 -2 383 68 q 232 -123 306 -73 l 208 -97 q 227 -68 220 -84 q 237 -34 233 -52 q 242 2 241 -16 q 243 36 243 20 l 243 416 l 111 416 l 183 511 l 243 511 l 243 623 q 256 685 243 654 q 290 742 269 715 q 334 793 310 769 q 382 836 359 817 q 328 837 353 836 q 277 837 302 837 q 224 837 251 837 q 164 838 197 838 q 118 832 138 838 q 81 818 98 827 q 49 794 64 808 q 17 761 33 780 l -3 782 q 52 847 20 814 q 121 909 84 881 q 199 955 158 937 q 282 972 240 972 l 545 972 q 610 973 571 972 q 688 978 648 974 q 764 990 728 981 q 822 1014 800 998 l 839 996 z "},"G":{"ha":901,"x_min":57,"x_max":818,"o":"m 818 851 q 797 779 818 812 q 746 716 777 745 q 679 667 715 688 q 611 633 642 646 q 544 613 578 621 q 475 603 509 605 l 461 627 q 521 650 490 634 q 576 690 551 667 q 617 743 602 713 q 633 806 633 772 q 625 848 633 829 q 602 879 616 866 q 568 898 587 891 q 525 904 548 904 q 425 883 469 904 q 348 826 381 862 q 292 745 315 791 q 254 648 269 699 q 233 546 239 597 q 227 449 227 494 q 230 377 227 415 q 243 302 234 340 q 269 231 253 265 q 308 172 284 197 q 364 131 332 146 q 439 115 396 115 q 507 129 475 115 q 566 165 539 142 q 613 217 592 187 q 648 279 633 247 q 670 345 663 312 q 677 408 677 378 l 818 458 l 818 -97 l 677 -147 l 677 275 q 634 168 665 220 q 564 77 604 117 q 475 13 523 37 q 379 -11 427 -11 q 246 19 306 -11 q 144 100 186 50 q 80 215 102 150 q 57 350 57 280 q 77 502 57 425 q 135 648 98 578 q 224 779 172 718 q 340 884 277 840 q 476 955 404 929 q 628 981 549 981 q 691 974 657 981 q 752 953 724 968 q 799 913 781 938 q 818 851 818 888 z "},"H":{"ha":899,"x_min":29,"x_max":771,"o":"m 771 29 l 631 -21 l 631 364 l 278 364 l 278 29 l 138 -21 l 138 364 l 29 364 l 79 463 l 138 463 l 138 950 l 278 1000 l 278 463 l 631 463 l 631 950 l 771 1000 l 771 29 z "},"I":{"ha":396,"x_min":127,"x_max":268,"o":"m 268 29 l 127 -21 l 127 950 l 268 1000 l 268 29 z "},"J":{"ha":579,"x_min":-115,"x_max":571,"o":"m 571 972 q 516 905 543 939 q 463 838 488 872 q 439 805 449 820 q 422 774 429 789 q 413 741 416 758 q 410 701 410 723 l 410 158 q 384 30 410 91 q 313 -79 357 -32 q 208 -154 268 -126 q 81 -182 149 -182 q -24 -162 25 -182 q -115 -107 -73 -142 l -1 -5 q 27 -48 9 -26 q 68 -89 45 -71 q 115 -119 90 -107 q 164 -131 140 -131 q 218 -115 197 -131 q 250 -74 239 -98 q 265 -19 261 -49 q 269 36 269 10 l 269 623 q 282 685 269 654 q 316 743 296 715 q 361 794 336 770 q 408 838 385 818 l 258 838 q 212 832 233 838 q 175 818 192 827 q 142 794 157 808 q 110 761 126 780 l 90 783 q 145 848 113 814 q 214 909 177 882 q 292 955 251 937 q 375 972 333 972 l 571 972 z "},"K":{"ha":852,"x_min":127,"x_max":844,"o":"m 844 163 q 806 106 829 136 q 753 49 783 75 q 691 5 724 23 q 624 -12 659 -12 q 547 6 582 -12 q 484 52 513 24 q 431 114 455 80 q 386 179 407 148 q 327 272 357 222 q 268 366 298 321 l 268 29 l 127 -21 l 127 950 l 268 1000 l 268 408 l 720 974 l 799 966 l 376 465 q 478 321 427 396 q 582 178 529 245 q 604 150 592 164 q 631 123 616 135 q 661 103 645 111 q 697 96 677 96 q 730 105 711 96 q 766 129 748 115 q 798 157 783 142 q 822 182 813 172 l 844 163 z "},"L":{"ha":765,"x_min":57,"x_max":745,"o":"m 745 192 l 608 -29 q 523 -15 562 -21 q 447 -4 484 -9 q 370 7 409 1 q 285 20 330 12 q 250 25 267 23 q 215 26 233 26 q 143 16 178 26 q 78 -16 109 6 l 57 7 q 81 36 71 19 q 99 72 92 53 q 109 111 106 92 q 113 149 113 131 l 113 549 q 146 726 113 644 q 238 868 179 808 q 376 964 296 929 q 549 999 456 999 q 606 992 578 999 q 655 970 634 985 q 690 932 677 956 q 703 873 703 908 q 691 814 703 843 q 660 760 680 786 q 613 712 640 734 q 559 673 587 690 q 500 643 530 655 q 444 624 471 631 l 433 650 q 481 681 456 663 q 526 720 506 699 q 559 767 547 741 q 572 822 572 792 q 564 866 572 846 q 539 900 555 886 q 504 922 524 914 q 461 930 484 930 q 372 909 410 930 q 307 852 333 887 q 267 772 280 817 q 253 681 253 727 l 253 244 q 245 194 253 218 q 225 148 238 170 q 196 106 213 126 q 160 71 179 87 q 202 99 182 86 q 244 122 222 113 q 288 137 265 132 q 339 142 311 142 q 399 138 373 142 q 451 131 426 135 q 503 124 477 127 q 564 121 530 121 q 609 128 587 121 q 651 147 631 135 q 688 175 671 159 q 720 210 705 191 l 745 192 z "},"M":{"ha":1217,"x_min":127,"x_max":1217,"o":"m 1217 93 q 1191 55 1206 73 q 1157 23 1176 37 q 1116 0 1137 9 q 1071 -8 1094 -8 q 1005 6 1034 -8 q 958 44 977 20 q 929 100 939 68 q 920 165 920 131 l 920 840 q 917 861 920 850 q 909 880 915 871 q 896 893 904 888 q 875 899 887 899 q 831 882 854 899 q 784 834 808 865 q 739 760 761 804 q 701 664 718 717 q 674 550 684 611 q 664 421 664 488 l 664 29 l 524 -21 l 524 840 q 521 861 524 850 q 513 880 519 871 q 500 893 508 888 q 479 899 492 899 q 436 874 459 899 q 389 808 412 849 q 343 713 366 767 q 305 603 321 660 q 278 488 288 545 q 268 383 268 431 l 268 29 l 127 -21 l 127 950 l 268 1000 l 268 618 q 328 805 294 732 q 398 921 361 878 q 472 980 434 964 q 546 997 510 997 q 610 987 587 997 q 646 960 634 977 q 662 919 659 943 q 664 868 665 896 l 664 667 q 717 813 684 751 q 787 916 749 875 q 866 977 825 957 q 942 997 906 997 q 1029 973 999 997 q 1060 892 1060 949 l 1060 143 q 1063 116 1060 130 q 1072 92 1065 102 q 1089 75 1078 81 q 1116 68 1100 68 q 1160 81 1139 68 q 1194 113 1181 95 l 1217 93 z "},"N":{"ha":857,"x_min":127,"x_max":861,"o":"m 861 93 q 836 55 851 73 q 801 23 821 37 q 760 0 782 9 q 715 -8 739 -8 q 649 6 677 -8 q 602 44 621 20 q 573 100 583 68 q 564 165 564 131 l 564 751 q 564 787 564 768 q 562 825 564 806 q 555 862 560 844 q 541 893 551 880 q 516 914 532 906 q 478 922 501 922 q 409 899 439 922 q 355 839 378 876 q 315 756 332 802 q 288 663 298 709 q 273 573 277 616 q 268 501 268 530 l 268 32 l 127 -20 l 127 951 l 268 1002 l 268 746 q 304 841 281 795 q 360 922 327 887 q 437 978 393 958 q 539 999 481 999 q 614 983 583 999 q 665 940 645 967 q 694 877 685 913 q 704 802 704 841 l 704 143 q 707 116 704 130 q 716 91 710 102 q 734 73 723 80 q 761 66 745 66 q 805 81 784 66 q 839 113 825 95 l 861 93 z "},"O":{"ha":993,"x_min":58,"x_max":935,"o":"m 935 485 q 921 360 935 422 q 881 242 907 298 q 818 138 855 186 q 731 55 780 90 q 624 -1 682 19 q 497 -21 565 -21 q 371 -1 429 -21 q 263 55 312 19 q 176 138 214 90 q 112 242 138 186 q 72 360 85 298 q 58 485 58 422 q 72 609 58 547 q 112 727 85 671 q 176 831 138 783 q 263 915 214 880 q 371 970 312 950 q 497 990 429 990 q 624 970 565 990 q 731 915 682 950 q 818 831 780 880 q 881 727 855 783 q 921 609 907 671 q 935 485 935 547 m 436 921 q 358 906 392 921 q 297 864 323 890 q 252 804 271 838 q 222 732 234 770 q 205 654 211 694 q 200 579 200 615 q 208 466 200 526 q 234 347 216 406 q 280 236 252 289 q 349 142 309 182 q 440 77 389 101 q 558 53 492 53 q 636 68 602 53 q 696 110 670 83 q 741 170 723 136 q 771 243 760 205 q 789 320 783 281 q 794 396 794 360 q 786 509 794 450 q 760 627 778 569 q 714 739 742 686 q 646 832 686 792 q 554 897 606 873 q 436 921 502 921 z "},"P":{"ha":846,"x_min":53,"x_max":823,"o":"m 823 704 q 801 592 823 646 q 742 492 779 538 q 654 407 704 445 q 549 342 605 369 q 436 300 494 315 q 325 285 378 285 q 314 285 319 285 q 302 286 308 285 l 310 323 q 399 346 354 331 q 486 384 444 361 q 563 437 527 407 q 625 504 599 467 q 667 585 652 541 q 682 679 682 629 q 667 768 682 727 q 623 838 651 808 q 555 885 595 868 q 468 901 516 901 q 365 890 418 901 q 261 857 313 878 q 162 806 210 836 q 74 739 114 776 l 53 762 q 158 849 99 808 q 283 919 218 889 q 415 967 348 949 q 543 985 481 985 q 653 964 602 985 q 742 906 705 943 q 802 817 780 869 q 823 704 823 766 m 272 31 l 132 -21 l 132 739 l 272 789 l 272 31 z "},"Q":{"ha":993,"x_min":58,"x_max":935,"o":"m 935 485 q 916 340 935 412 q 862 205 897 269 q 777 93 827 142 q 661 14 726 43 q 709 -39 683 -18 q 764 -61 734 -61 q 800 -55 783 -61 q 833 -39 818 -48 l 852 -66 q 789 -117 824 -96 q 713 -138 755 -138 q 675 -133 694 -138 q 638 -118 656 -127 q 605 -97 621 -109 q 579 -69 590 -84 q 547 -18 566 -52 q 522 -20 534 -20 q 497 -21 510 -21 q 371 -1 429 -21 q 263 55 312 19 q 176 138 214 90 q 112 242 138 186 q 72 360 85 298 q 58 485 58 422 q 72 609 58 547 q 112 727 85 671 q 176 831 138 783 q 263 915 214 880 q 371 970 312 950 q 497 990 429 990 q 624 970 565 990 q 731 915 682 950 q 818 831 780 880 q 881 727 855 783 q 921 609 907 671 q 935 485 935 547 m 436 921 q 358 906 392 921 q 297 864 323 890 q 252 804 271 838 q 222 732 234 770 q 205 654 211 694 q 200 579 200 615 q 207 474 200 529 q 230 363 214 418 q 269 258 245 309 q 327 165 293 207 q 405 96 361 124 q 505 58 450 68 q 473 112 490 85 q 440 158 457 138 q 408 192 424 179 q 378 204 392 204 q 361 202 370 204 q 345 199 353 201 l 325 231 q 375 250 349 242 q 427 257 401 257 q 476 249 452 257 q 522 227 500 241 q 561 193 543 212 q 589 151 578 174 q 606 112 596 134 q 629 66 616 90 q 706 120 675 83 q 757 202 737 157 q 785 299 777 248 q 794 396 794 350 q 786 509 794 450 q 760 627 778 569 q 714 739 742 686 q 646 832 686 792 q 554 897 606 873 q 436 921 502 921 z "},"R":{"ha":886,"x_min":53,"x_max":846,"o":"m 846 147 q 802 93 827 122 q 747 40 777 64 q 684 -2 718 15 q 615 -18 650 -18 q 571 -11 591 -18 q 533 8 551 -4 q 501 36 516 20 q 472 69 486 52 q 385 181 427 125 q 302 296 342 237 l 310 323 q 399 346 354 331 q 486 384 444 361 q 563 437 527 407 q 625 504 599 467 q 667 585 652 541 q 682 679 682 629 q 667 768 682 727 q 623 838 651 808 q 555 885 595 868 q 468 901 516 901 q 354 888 407 901 q 253 851 300 874 q 161 800 205 829 q 74 739 117 770 l 53 762 q 141 841 94 802 q 247 913 188 881 q 379 965 306 945 q 543 985 452 985 q 657 963 605 985 q 746 903 709 941 q 804 811 783 864 q 825 696 825 758 q 777 527 825 599 q 644 411 728 456 q 619 397 634 406 q 586 378 604 388 q 549 357 568 368 q 512 339 530 347 q 479 324 494 330 q 454 317 465 318 q 489 271 469 298 q 532 217 510 245 q 577 164 555 189 q 616 123 599 139 q 651 98 633 109 q 692 87 668 87 q 728 95 710 87 q 764 115 747 103 q 795 142 781 127 q 822 168 810 156 l 846 147 m 272 31 l 132 -21 l 132 739 l 272 789 l 272 31 z "},"S":{"ha":750,"x_min":53,"x_max":722,"o":"m 722 836 l 608 699 q 570 784 593 743 q 513 855 546 825 q 439 904 481 886 q 347 922 398 922 q 279 909 311 922 q 225 872 248 896 q 188 817 201 849 q 175 749 175 785 q 189 677 175 711 q 227 617 203 644 q 282 571 251 591 q 346 541 313 551 q 416 515 379 529 q 488 481 452 500 q 555 439 523 463 q 611 387 587 416 q 650 322 635 357 q 664 244 664 286 q 637 135 664 183 q 567 53 610 86 q 468 2 524 20 q 354 -16 412 -16 q 274 -4 315 -16 q 197 27 234 7 q 128 74 160 47 q 72 131 96 100 l 182 257 q 217 188 192 224 q 277 120 243 151 q 350 68 311 89 q 425 47 389 47 q 469 58 446 47 q 510 86 491 69 q 541 124 528 104 q 553 164 553 144 q 541 221 553 194 q 508 271 528 248 q 462 315 488 295 q 408 351 436 335 q 352 379 380 367 q 300 397 323 391 q 209 438 253 412 q 130 502 164 465 q 74 586 95 539 q 53 685 53 632 q 67 771 53 730 q 106 846 81 812 q 165 909 132 881 q 239 957 199 937 q 321 986 278 976 q 407 997 363 997 q 583 955 502 997 q 722 836 665 912 z "},"T":{"ha":684,"x_min":-4,"x_max":726,"o":"m 726 996 q 675 935 705 963 q 609 884 645 906 q 534 850 574 863 q 456 838 495 838 l 440 836 q 401 773 414 804 q 387 701 387 743 l 387 268 q 349 107 387 178 q 236 -14 311 37 l 214 12 q 232 42 225 25 q 242 76 239 58 q 247 112 245 94 q 248 146 248 130 l 248 623 q 261 685 248 654 q 294 742 274 715 q 339 793 315 769 q 387 836 364 817 l 163 838 q 117 832 137 838 q 80 818 97 827 q 47 794 63 808 q 16 761 32 780 l -4 782 q 46 846 18 812 q 107 908 75 880 q 178 954 140 936 q 257 972 216 972 l 550 972 q 590 975 568 972 q 634 981 612 977 q 676 994 656 986 q 710 1014 696 1002 l 726 996 z "},"U":{"ha":861,"x_min":114,"x_max":847,"o":"m 847 93 q 822 55 837 73 q 787 23 806 37 q 746 0 768 9 q 701 -8 724 -8 q 635 6 664 -8 q 588 44 607 20 q 559 100 569 68 q 550 165 550 131 l 550 245 q 514 149 536 195 q 458 66 492 102 q 381 8 425 30 q 279 -14 336 -14 q 205 2 236 -14 q 153 45 174 18 q 123 108 133 73 q 114 183 114 144 l 114 932 l 254 982 l 254 233 q 255 179 254 209 q 263 123 256 149 q 289 80 271 98 q 342 62 307 62 q 411 86 380 62 q 464 147 441 109 q 504 232 488 184 q 530 327 520 279 q 545 417 541 374 q 550 489 550 460 l 550 932 l 690 982 l 690 143 q 693 116 690 130 q 703 92 696 102 q 720 75 709 81 q 747 68 731 68 q 791 81 770 68 q 825 113 812 95 l 847 93 z "},"V":{"ha":798,"x_min":8,"x_max":772,"o":"m 407 -37 l 8 911 l 147 972 l 454 187 q 517 320 486 255 q 544 377 530 347 q 571 435 557 407 q 596 490 584 464 q 619 538 609 517 q 654 622 639 579 q 669 711 669 664 q 659 781 669 748 q 631 843 649 813 q 588 898 613 872 q 533 947 563 924 l 647 1075 q 699 1029 675 1057 q 738 971 722 1002 q 763 907 754 940 q 772 843 772 873 q 753 727 772 783 q 708 616 734 670 q 665 527 688 576 q 617 424 642 477 q 567 316 593 371 q 519 210 542 261 q 407 -37 464 89 z "},"W":{"ha":1079,"x_min":12,"x_max":1038,"o":"m 357 -24 l 12 911 l 150 972 l 406 237 l 503 501 l 375 847 l 513 907 l 751 203 q 826 370 789 287 q 900 538 863 453 q 931 622 918 579 q 945 711 945 664 q 936 781 945 748 q 910 843 926 813 q 871 898 894 872 q 822 947 848 924 l 925 1075 q 971 1029 950 1057 q 1006 971 991 1002 q 1029 907 1021 940 q 1038 843 1038 873 q 1020 727 1038 783 q 979 616 1002 671 q 839 296 909 455 q 697 -24 768 138 l 524 446 l 357 -24 z "},"X":{"ha":778,"x_min":25,"x_max":751,"o":"m 36 885 l 153 965 l 750 62 l 633 -25 l 36 885 m 25 -35 l 61 132 q 70 130 65 131 q 81 129 75 129 q 149 153 116 129 q 210 213 182 178 q 258 287 237 248 q 292 354 279 326 q 343 477 317 416 q 397 600 369 538 q 432 674 413 633 q 475 758 452 715 q 527 839 499 800 q 589 909 555 878 q 660 958 622 939 q 743 975 699 976 l 751 975 l 711 806 q 688 811 700 810 q 664 812 677 812 q 616 804 640 812 q 572 782 593 796 q 534 750 551 768 q 505 710 517 731 q 456 606 479 659 q 408 500 432 553 q 333 332 370 415 q 256 165 296 250 q 219 101 241 136 q 167 36 196 66 q 104 -14 138 6 q 35 -35 71 -35 l 25 -35 z "},"Y":{"ha":857,"x_min":-5,"x_max":728,"o":"m 728 36 q 714 -65 728 -19 q 674 -150 700 -111 q 610 -220 648 -189 q 524 -278 572 -252 q 495 -290 511 -285 q 463 -298 479 -294 q 429 -303 446 -301 q 399 -304 413 -304 q 295 -285 344 -304 q 204 -229 246 -265 l 318 -129 q 346 -171 328 -149 q 386 -211 363 -193 q 433 -241 408 -229 q 482 -253 458 -253 q 513 -248 499 -253 q 553 -220 538 -237 q 575 -181 568 -203 q 585 -134 583 -159 q 587 -86 587 -110 l 587 245 q 551 150 574 195 q 496 69 529 104 q 418 13 463 34 q 317 -8 374 -8 q 242 8 273 -8 q 191 52 211 24 q 161 114 170 79 q 151 189 151 150 l 151 818 q 149 845 151 831 q 139 869 146 859 q 122 886 133 880 q 96 893 111 893 q 52 880 73 893 q 17 848 31 866 l -5 868 q 20 906 5 888 q 55 939 35 924 q 96 961 74 953 q 140 970 117 970 q 206 956 178 970 q 254 917 235 941 q 282 862 273 893 q 292 796 292 831 l 292 240 q 292 185 292 215 q 300 129 293 155 q 326 85 308 103 q 379 68 345 68 q 448 91 418 68 q 502 151 478 114 q 541 235 525 188 q 568 328 557 281 q 583 417 578 375 q 587 489 587 460 l 587 932 l 728 982 l 728 36 z "},"Z":{"ha":786,"x_min":35,"x_max":757,"o":"m 757 985 q 648 822 699 899 q 548 674 597 746 q 452 532 500 602 q 355 391 405 463 q 252 243 305 319 q 138 82 199 167 q 179 111 159 98 q 220 135 199 125 q 264 151 241 145 q 315 157 287 157 q 381 151 348 157 q 446 139 414 145 q 512 126 479 132 q 578 121 545 121 q 623 128 601 121 q 665 148 645 136 q 702 176 685 160 q 733 210 719 192 l 757 192 l 623 -28 q 442 2 531 -12 q 262 31 353 17 q 228 36 245 34 q 193 37 211 37 q 121 27 155 37 q 56 -4 87 18 l 35 18 q 317 425 180 224 q 591 831 454 625 l 446 831 q 380 831 420 831 q 298 830 340 831 q 217 824 256 829 q 154 810 178 820 q 127 796 141 804 q 102 778 114 788 q 79 756 90 768 q 60 734 68 745 l 35 753 l 171 972 l 530 972 q 584 972 557 972 q 637 974 610 971 q 688 984 663 977 q 736 1007 713 991 l 757 985 z "},"[":{"ha":392,"x_min":103,"x_max":366,"o":"m 366 -192 l 103 -192 l 103 1021 l 366 1021 l 366 972 l 243 972 l 243 -143 l 366 -143 l 366 -192 z "},"\\":{"ha":789,"x_min":39,"x_max":749,"o":"m 749 22 l 664 -33 l 39 950 l 115 1003 l 749 22 z "},"]":{"ha":392,"x_min":26,"x_max":289,"o":"m 289 -192 l 26 -192 l 26 -143 l 149 -143 l 149 972 l 26 972 l 26 1021 l 289 1021 l 289 -192 z "},"^":{"ha":383,"x_min":0,"x_max":383,"o":"m 35 539 l 0 567 l 189 847 l 383 595 l 315 522 l 161 730 l 35 539 z "},"_":{"ha":758,"x_min":143,"x_max":648,"o":"m 648 -100 l 607 -210 l 143 -210 l 186 -100 l 648 -100 z "},"`":{"ha":237,"x_min":0,"x_max":237,"o":"m 0 1149 l 79 1239 l 237 1050 l 220 1025 l 0 1149 z "},"a":{"ha":607,"x_min":43,"x_max":604,"o":"m 604 81 q 584 47 596 63 q 556 20 572 32 q 521 0 540 7 q 482 -7 503 -7 q 405 23 429 -7 q 382 103 382 52 l 382 115 q 354 69 370 92 q 320 28 339 46 q 277 -2 300 9 q 224 -14 253 -14 q 146 3 180 -14 q 89 49 112 20 q 54 117 66 78 q 43 199 43 155 q 63 316 43 258 q 122 421 84 375 q 212 496 159 467 q 329 525 264 525 q 380 520 355 525 q 430 505 406 515 q 472 477 453 494 q 504 436 492 460 l 403 393 q 384 418 395 406 q 361 439 374 430 q 334 453 349 448 q 304 458 320 458 q 242 437 269 458 q 195 383 214 415 q 165 315 176 351 q 155 250 155 279 q 160 192 155 224 q 178 132 165 160 q 212 83 191 103 q 265 64 233 64 q 309 75 290 64 q 340 104 327 86 q 361 145 353 122 q 374 193 370 169 q 380 242 378 218 q 382 285 382 266 l 382 332 l 505 375 l 505 100 q 512 75 505 86 q 533 64 519 64 q 564 76 550 64 q 586 102 578 89 l 604 81 z "},"b":{"ha":576,"x_min":75,"x_max":538,"o":"m 538 269 q 514 171 538 221 q 453 80 491 121 q 367 13 415 39 q 268 -14 318 -14 q 185 2 221 -14 q 125 46 149 18 q 88 113 100 75 q 75 196 75 151 l 75 929 l 200 972 l 200 174 q 206 128 200 151 q 224 88 212 106 q 255 59 237 70 q 300 47 274 47 q 354 63 331 47 q 394 102 378 78 q 417 155 410 126 q 425 210 425 183 q 411 289 425 249 q 370 362 396 330 q 310 416 345 395 q 236 441 275 438 l 349 525 q 419 487 385 513 q 480 426 454 460 q 522 351 507 391 q 538 269 538 310 z "},"c":{"ha":546,"x_min":41,"x_max":529,"o":"m 529 147 q 477 88 505 117 q 416 37 449 59 q 347 0 383 14 q 271 -14 310 -14 q 178 4 220 -14 q 106 54 136 22 q 58 133 75 87 q 41 236 41 179 q 65 349 41 296 q 130 443 90 403 q 224 507 170 484 q 336 530 277 530 q 383 526 359 530 q 428 512 406 522 q 467 488 449 503 q 497 452 485 473 l 400 399 q 381 427 393 415 q 353 448 368 439 q 320 460 337 456 q 286 464 302 464 q 228 449 254 464 q 184 411 202 435 q 157 358 166 388 q 147 298 147 329 q 161 195 147 240 q 201 120 176 151 q 260 74 226 90 q 334 58 294 58 q 381 70 357 58 q 428 99 406 81 q 472 136 451 116 q 509 171 492 155 l 529 147 z "},"d":{"ha":618,"x_min":43,"x_max":608,"o":"m 608 81 q 587 47 600 63 q 559 20 574 32 q 525 0 543 7 q 486 -7 506 -7 q 409 23 433 -7 q 385 103 385 52 l 385 115 q 358 69 373 92 q 324 28 343 46 q 280 -2 304 9 q 227 -14 256 -14 q 147 4 181 -14 q 90 53 113 22 q 55 123 66 83 q 43 207 43 163 q 60 321 43 264 q 112 426 78 379 q 195 502 146 473 q 309 532 245 532 q 385 513 348 532 l 385 929 l 510 972 l 510 100 q 516 75 510 86 q 538 64 523 64 q 567 76 553 64 q 589 102 581 89 l 608 81 m 385 285 l 385 429 q 350 455 369 445 q 307 465 330 465 q 239 444 267 465 q 194 389 212 422 q 168 319 176 357 q 160 249 160 281 q 165 191 160 223 q 183 131 170 159 q 216 83 195 102 q 268 64 237 64 q 312 75 293 64 q 343 104 330 86 q 364 145 356 122 q 377 193 372 169 q 383 242 381 218 q 385 285 385 266 z "},"e":{"ha":551,"x_min":40,"x_max":528,"o":"m 528 132 q 476 75 504 102 q 415 29 448 49 q 345 -2 382 9 q 269 -14 309 -14 q 177 4 219 -14 q 104 54 135 22 q 57 129 74 85 q 40 221 40 172 q 52 301 40 262 q 84 375 63 340 q 134 439 105 410 q 197 490 163 469 q 271 523 232 511 q 350 534 309 534 q 404 528 378 534 q 449 506 429 521 q 480 469 469 492 q 492 415 492 446 q 476 361 492 389 q 436 304 461 332 q 380 248 412 275 q 317 197 349 220 q 255 156 285 174 q 203 129 225 138 q 261 78 228 98 q 332 58 294 58 q 380 67 355 58 q 427 91 404 77 q 470 122 450 105 q 507 154 491 139 l 528 132 m 364 390 q 359 420 364 406 q 345 445 354 434 q 322 461 335 455 q 292 468 309 468 q 235 447 261 468 q 191 394 210 425 q 162 328 172 363 q 151 267 151 293 q 159 214 151 241 q 182 161 168 186 q 241 203 209 176 q 300 261 273 229 q 346 326 328 292 q 364 390 364 360 z "},"f":{"ha":389,"x_min":28,"x_max":489,"o":"m 489 911 l 404 856 q 369 909 393 887 q 310 932 346 932 q 263 919 281 932 q 236 885 245 905 q 224 839 227 864 q 221 791 221 814 l 221 525 l 399 525 l 370 457 l 221 457 l 221 -138 l 96 -191 l 96 457 l 28 457 l 57 525 l 96 525 l 96 669 q 108 781 96 725 q 149 882 120 837 q 223 954 177 926 q 336 982 269 982 q 378 977 357 982 q 420 963 399 972 q 458 941 440 954 q 489 911 476 928 z "},"g":{"ha":576,"x_min":41,"x_max":504,"o":"m 504 50 q 493 -32 504 10 q 462 -113 482 -73 q 414 -189 442 -153 q 352 -251 387 -224 q 278 -293 318 -277 q 196 -309 239 -309 q 144 -300 169 -309 q 100 -272 119 -291 l 189 -187 q 222 -218 203 -206 q 265 -229 241 -229 q 321 -216 300 -229 q 356 -181 343 -203 q 374 -131 369 -159 q 381 -73 380 -102 q 381 -14 382 -43 q 380 37 380 14 l 380 115 q 353 69 368 92 q 318 28 338 46 q 275 -2 299 9 q 222 -14 252 -14 q 144 3 178 -14 q 87 49 111 20 q 53 117 64 78 q 41 199 41 155 q 51 278 41 238 q 78 356 60 319 q 120 426 95 393 q 177 483 146 458 q 247 520 209 507 q 328 534 285 534 q 379 528 353 534 q 428 510 405 522 q 471 479 452 497 q 503 436 490 460 l 401 393 q 383 419 393 406 q 360 444 372 433 q 333 461 347 454 q 302 468 318 468 q 259 457 279 468 q 223 429 239 446 q 193 388 206 411 q 172 341 180 366 q 158 293 163 317 q 154 250 154 269 q 159 192 154 224 q 177 132 164 160 q 211 83 190 103 q 264 64 232 64 q 307 75 289 64 q 338 104 326 86 q 360 145 351 122 q 373 193 368 169 q 379 242 377 218 q 380 285 380 266 l 380 332 l 504 375 l 504 50 z "},"h":{"ha":599,"x_min":79,"x_max":590,"o":"m 590 79 q 570 46 583 62 q 542 18 557 31 q 507 -1 526 6 q 468 -8 488 -8 q 391 21 415 -8 q 367 102 367 51 l 367 378 q 366 390 367 383 q 363 402 366 396 q 357 411 361 408 q 346 415 353 415 q 313 400 328 415 q 284 361 297 386 q 260 304 271 336 q 240 238 249 273 q 225 169 231 203 q 214 104 218 134 q 207 50 209 73 q 204 16 204 27 l 79 -28 l 79 929 l 204 972 l 204 239 q 217 295 208 263 q 239 359 226 326 q 269 423 252 391 q 308 479 286 455 q 356 519 330 504 q 412 534 382 534 q 460 520 444 534 q 483 485 476 507 q 491 438 490 464 q 492 389 492 412 l 492 98 q 498 74 492 85 q 519 62 505 62 q 550 75 536 62 q 572 100 564 87 l 590 79 z "},"i":{"ha":315,"x_min":68,"x_max":304,"o":"m 211 885 l 175 637 l 109 616 l 68 836 l 211 885 m 304 79 q 268 28 289 46 q 229 3 248 11 q 183 -8 206 -7 q 134 1 153 -8 q 102 26 114 11 q 86 62 91 42 q 82 102 82 81 l 82 482 l 207 525 l 207 98 q 214 73 207 82 q 234 63 222 63 q 259 71 245 62 q 286 100 273 80 l 304 79 z "},"j":{"ha":292,"x_min":-203,"x_max":216,"o":"m 216 885 l 179 637 l 114 616 l 74 836 l 216 885 m 211 56 q 200 -34 211 8 q 169 -113 189 -76 q 123 -181 150 -149 q 66 -237 97 -212 q -24 -290 22 -271 q -66 -303 -44 -298 q -112 -308 -89 -308 q -158 -301 -134 -308 q -203 -278 -181 -294 l -126 -182 q -60 -217 -91 -210 q -6 -220 -29 -223 q 43 -201 21 -216 q 71 -159 62 -187 q 84 -96 81 -131 q 86 -25 87 -62 q 86 45 86 12 l 86 482 l 211 525 l 211 56 z "},"k":{"ha":589,"x_min":79,"x_max":574,"o":"m 574 75 q 549 42 564 58 q 516 14 534 26 q 477 -4 498 3 q 436 -11 457 -11 q 381 9 410 -11 q 326 56 353 28 q 274 112 298 83 q 231 160 250 141 l 220 154 q 214 123 216 142 q 209 85 211 105 q 206 47 207 66 q 204 16 205 28 l 79 -28 l 79 929 l 204 972 l 204 220 q 222 278 212 245 q 248 346 233 311 q 281 414 262 380 q 323 475 300 448 q 374 518 347 502 q 435 534 402 534 q 470 527 454 534 q 497 508 486 520 q 515 479 509 496 q 521 444 521 463 q 502 370 521 406 q 454 304 483 335 q 392 250 425 274 q 329 208 358 225 q 351 186 338 200 q 376 157 363 172 q 404 125 389 141 q 433 96 418 109 q 461 75 447 83 q 489 66 476 66 q 525 75 509 66 q 553 98 541 84 l 574 75 m 392 395 q 382 416 392 406 q 361 427 372 427 q 333 413 347 427 q 307 378 319 399 q 282 332 294 357 q 260 281 270 306 q 244 236 251 257 q 233 205 237 216 q 258 226 243 212 q 291 257 273 239 q 327 293 309 274 q 359 331 345 313 q 383 367 374 350 q 392 395 392 383 z "},"l":{"ha":318,"x_min":85,"x_max":307,"o":"m 307 79 q 287 46 299 62 q 258 18 274 31 q 224 -1 243 6 q 186 -8 205 -8 q 109 21 133 -8 q 85 102 85 51 l 85 929 l 210 972 l 210 98 q 216 74 210 85 q 237 62 222 62 q 267 75 253 62 q 289 100 281 87 l 307 79 z "},"m":{"ha":828,"x_min":9,"x_max":819,"o":"m 819 79 q 783 28 804 46 q 743 3 762 11 q 697 -8 720 -7 q 647 1 667 -8 q 616 26 628 11 q 601 62 605 42 q 596 102 596 81 l 596 386 q 592 405 596 397 q 581 415 588 414 q 565 408 574 416 q 545 379 555 400 q 511 265 526 325 q 488 149 498 214 q 476 16 477 84 l 351 -28 l 351 386 q 347 405 351 397 q 336 415 343 414 q 319 408 329 416 q 300 379 310 400 q 264 260 279 322 q 252 204 258 234 q 241 143 245 174 q 234 79 237 111 q 232 16 231 47 l 109 -28 l 109 428 q 101 454 109 444 q 82 464 94 463 q 56 455 70 464 q 28 427 41 446 l 9 447 q 46 497 25 479 q 86 524 66 515 q 132 534 109 533 q 181 525 162 534 q 212 500 201 515 q 228 465 223 485 q 232 425 232 446 l 232 282 q 269 390 244 343 q 320 469 293 437 q 372 518 347 501 q 414 534 398 534 q 446 528 433 534 q 465 509 458 522 q 474 477 471 496 q 476 433 476 458 l 476 282 q 513 390 489 343 q 564 469 537 437 q 617 518 591 501 q 659 534 643 534 q 709 509 697 534 q 721 433 721 484 l 721 98 q 728 73 721 82 q 747 63 736 63 q 773 71 759 62 q 800 100 787 80 l 819 79 z "},"n":{"ha":642,"x_min":9,"x_max":633,"o":"m 633 79 q 612 46 625 62 q 584 18 600 31 q 549 -1 568 6 q 511 -8 531 -8 q 434 21 458 -8 q 410 102 410 51 l 410 378 q 409 389 410 382 q 407 401 409 395 q 401 411 405 407 q 392 415 398 415 q 354 392 373 415 q 316 332 334 369 q 283 250 298 296 q 256 160 268 205 q 238 77 245 116 q 232 16 232 39 l 109 -28 l 109 428 q 102 453 109 441 q 81 464 95 464 q 50 451 64 464 q 28 427 36 439 l 9 447 q 30 480 18 464 q 59 508 43 496 q 93 527 75 520 q 132 534 112 534 q 209 505 185 534 q 232 425 232 475 l 232 204 q 249 268 238 232 q 274 340 259 303 q 308 411 289 376 q 349 474 326 446 q 397 518 371 501 q 454 534 424 534 q 503 520 486 534 q 526 485 519 507 q 534 438 533 464 q 534 389 534 412 l 534 98 q 541 74 534 85 q 562 62 548 62 q 592 75 578 62 q 614 100 606 87 l 633 79 z "},"o":{"ha":581,"x_min":40,"x_max":539,"o":"m 279 -16 q 185 2 229 -16 q 110 52 142 20 q 59 127 77 84 q 40 221 40 170 q 59 329 40 279 q 112 420 78 380 q 191 491 145 461 q 290 538 237 521 l 310 514 q 253 463 279 492 q 207 400 227 434 q 176 330 187 367 q 164 254 164 293 q 174 186 164 222 q 202 120 183 150 q 250 71 221 90 q 317 52 279 52 q 375 64 351 52 q 416 97 400 76 q 441 146 433 118 q 449 205 449 174 q 435 280 449 242 q 396 351 420 319 q 338 406 371 384 q 267 431 304 427 q 319 481 290 458 q 376 525 347 504 q 446 487 416 512 q 497 429 476 462 q 528 358 517 397 q 539 281 539 320 q 520 174 539 227 q 468 79 502 121 q 386 11 433 37 q 279 -16 338 -16 z "},"p":{"ha":616,"x_min":9,"x_max":574,"o":"m 332 -12 q 286 -6 308 -12 q 245 16 264 1 l 298 92 q 329 64 311 74 q 367 54 346 54 q 404 65 389 54 q 430 95 420 77 q 448 136 441 113 q 458 182 454 159 q 463 226 461 205 q 464 262 464 248 q 456 324 464 291 q 432 387 448 357 q 391 435 416 416 q 332 454 366 454 q 291 443 308 454 q 263 411 275 431 q 246 367 252 392 q 236 318 239 342 q 233 270 233 293 q 232 229 232 246 l 232 -292 l 109 -335 l 109 427 q 102 451 109 440 q 81 463 95 463 q 50 450 64 463 q 28 425 36 437 l 9 446 q 30 478 18 463 q 59 507 43 494 q 93 526 75 519 q 132 533 112 533 q 180 525 161 533 q 211 500 199 516 q 227 463 222 485 q 232 415 232 441 q 257 457 243 436 q 290 495 272 479 q 331 523 309 512 q 379 533 353 533 q 462 512 426 533 q 523 458 498 492 q 561 382 548 425 q 574 297 574 340 q 558 189 574 243 q 513 89 543 134 q 437 16 483 44 q 332 -12 392 -12 z "},"q":{"ha":576,"x_min":41,"x_max":603,"o":"m 603 -220 q 582 -253 595 -237 q 554 -281 570 -269 q 520 -301 538 -294 q 481 -309 501 -309 q 404 -279 427 -309 q 380 -199 380 -249 l 380 115 q 353 69 368 92 q 318 28 338 46 q 275 -2 299 9 q 222 -14 252 -14 q 144 3 178 -14 q 87 49 111 20 q 53 117 64 78 q 41 199 41 155 q 51 278 41 238 q 78 356 60 319 q 120 425 95 393 q 177 481 146 458 q 247 519 209 505 q 328 533 285 533 q 379 527 353 533 q 428 509 405 521 q 471 479 452 497 q 503 436 490 460 l 401 393 q 383 419 393 406 q 360 443 372 433 q 333 460 347 454 q 302 467 318 467 q 259 456 279 467 q 223 428 239 446 q 193 388 206 410 q 172 341 180 365 q 158 293 163 317 q 154 250 154 270 q 159 192 154 224 q 177 132 164 160 q 211 83 190 103 q 264 64 232 64 q 324 87 301 64 q 360 145 347 111 q 376 217 372 180 q 380 283 380 255 l 380 332 l 504 375 l 504 -201 q 511 -225 504 -214 q 532 -236 517 -236 q 563 -224 549 -236 q 585 -200 576 -212 l 603 -220 z "},"r":{"ha":465,"x_min":20,"x_max":441,"o":"m 441 74 q 412 40 429 55 q 373 14 394 24 q 329 -3 352 3 q 283 -9 306 -9 q 232 2 254 -9 q 197 31 211 13 q 177 74 184 50 q 171 125 171 98 q 181 199 171 159 q 210 277 192 239 q 251 349 228 316 q 300 404 274 382 q 248 380 276 389 q 191 371 220 371 q 154 374 170 371 q 119 387 138 378 l 49 240 l 20 252 l 93 401 q 68 422 81 410 q 49 447 55 435 l 143 553 q 160 516 149 534 q 185 483 171 497 q 218 458 200 468 q 257 449 236 449 q 327 462 293 449 q 390 494 361 475 l 408 476 q 356 424 382 452 q 309 362 330 395 q 275 294 288 330 q 262 221 262 258 q 268 174 262 200 q 286 124 274 148 q 317 85 298 101 q 361 69 335 69 q 395 76 378 69 q 425 92 412 82 l 441 74 z "},"s":{"ha":408,"x_min":18,"x_max":372,"o":"m 372 187 q 357 109 372 145 q 314 45 341 72 q 251 2 288 18 q 171 -14 214 -14 q 131 -10 153 -14 q 89 0 110 -7 q 49 17 68 7 q 18 41 31 27 l 98 146 q 118 118 106 133 q 145 90 130 102 q 176 68 159 77 q 210 60 193 60 q 247 66 229 60 q 277 86 264 73 q 297 115 290 98 q 304 153 304 132 q 286 202 304 180 q 242 247 267 225 q 189 291 216 268 q 144 340 161 313 l 74 237 l 47 257 l 129 370 q 114 411 119 389 q 109 454 109 433 q 115 493 109 473 q 132 530 121 513 q 160 558 144 547 q 199 570 177 570 q 234 557 220 570 q 249 521 249 544 q 245 496 249 509 q 235 472 241 484 q 221 449 229 460 q 207 428 214 437 q 242 388 223 405 q 279 356 261 371 q 315 326 298 341 q 344 292 332 311 q 365 248 357 273 q 372 187 372 223 m 218 509 q 212 523 218 518 q 197 528 205 528 q 181 520 186 528 q 176 503 176 512 q 181 476 176 489 q 192 452 185 463 q 199 464 195 456 q 208 480 203 471 q 215 496 212 488 q 218 509 218 504 z "},"t":{"ha":364,"x_min":25,"x_max":350,"o":"m 319 79 q 283 28 304 46 q 243 3 263 11 q 197 -8 221 -7 q 148 1 167 -8 q 117 26 128 11 q 101 62 106 42 q 97 102 97 81 l 97 457 l 25 457 l 54 525 l 97 525 l 97 765 l 221 808 l 221 525 l 350 525 l 322 457 l 221 457 l 221 98 q 229 73 221 82 q 248 63 236 63 q 273 71 259 62 q 301 100 288 80 l 319 79 z "},"u":{"ha":627,"x_min":7,"x_max":616,"o":"m 616 79 q 580 28 601 46 q 540 3 559 11 q 494 -8 517 -7 q 445 1 464 -8 q 414 26 425 11 q 398 62 402 42 q 393 102 393 81 l 393 318 q 379 260 388 294 q 359 189 371 226 q 330 116 347 152 q 293 51 314 79 q 244 4 271 22 q 184 -14 218 -14 q 141 -3 157 -14 q 117 27 125 7 q 107 73 109 46 q 106 132 106 100 l 106 427 q 98 452 106 443 q 79 462 91 462 q 53 454 67 463 q 25 425 39 445 l 7 446 q 43 496 22 478 q 83 522 63 514 q 129 533 105 532 q 179 524 159 533 q 209 499 198 514 q 225 464 220 484 q 229 424 229 444 l 229 143 q 239 109 229 117 q 263 111 248 100 q 297 150 279 121 q 335 224 316 178 q 359 315 347 268 q 378 403 368 355 q 393 496 388 451 l 518 539 l 518 98 q 526 73 518 82 q 545 63 533 63 q 570 71 556 62 q 597 100 584 80 l 616 79 z "},"v":{"ha":543,"x_min":-5,"x_max":510,"o":"m 292 -18 q 275 -15 283 -18 q 262 -3 267 -11 l 90 385 q 82 398 87 391 q 72 413 78 406 q 58 425 66 420 q 43 429 51 429 q 23 421 31 429 q 8 403 15 412 l -5 421 q 14 460 1 441 q 43 493 26 479 q 81 516 60 507 q 123 525 101 525 q 154 514 140 525 q 178 486 168 503 q 196 452 189 470 q 210 422 204 435 q 274 268 242 345 q 340 115 307 191 l 425 289 q 433 315 431 298 q 435 342 435 331 q 414 411 435 382 q 358 458 394 441 l 436 566 q 492 514 474 547 q 510 440 510 482 q 505 394 510 419 q 490 349 500 368 l 318 -4 q 292 -18 308 -18 z "},"w":{"ha":758,"x_min":-4,"x_max":722,"o":"m 722 440 q 717 394 722 419 q 703 349 712 368 l 545 9 q 533 0 541 2 q 518 -3 526 -3 q 500 1 509 -3 q 488 14 491 4 l 382 387 l 288 18 q 272 1 282 7 q 250 -5 262 -5 q 234 -2 241 -5 q 224 11 226 1 l 104 392 q 97 409 102 400 q 86 426 93 418 q 72 439 80 434 q 54 444 64 444 q 30 437 41 444 q 9 421 18 429 l -4 439 q 22 474 6 458 q 56 504 37 491 q 97 524 75 517 q 140 532 118 532 q 172 521 159 532 q 194 494 185 510 q 209 461 203 479 q 218 429 214 444 q 259 301 239 366 q 298 174 279 237 l 366 446 l 349 500 l 463 538 l 574 143 l 637 289 q 644 315 642 299 q 647 342 647 331 q 626 412 647 382 q 571 458 606 441 l 648 566 q 704 514 686 547 q 722 440 722 482 z "},"x":{"ha":593,"x_min":28,"x_max":568,"o":"m 564 511 l 513 393 q 480 415 498 406 q 443 424 462 424 q 415 418 428 424 q 391 401 401 412 q 372 379 380 391 q 358 354 363 366 l 345 315 q 372 258 359 286 q 396 212 384 235 q 416 175 408 189 q 442 135 429 155 q 471 97 455 114 q 487 87 477 90 q 505 85 497 85 q 530 88 518 85 q 551 97 541 92 l 568 75 q 545 45 559 60 q 516 18 532 31 q 482 -2 500 6 q 446 -9 464 -9 q 417 -4 429 -9 q 394 9 404 1 q 375 29 384 18 q 357 53 366 41 q 341 81 349 64 q 323 115 332 98 q 306 150 315 133 q 289 178 297 166 q 283 155 286 166 q 277 135 280 145 q 271 119 273 125 q 245 75 260 98 q 209 33 229 52 q 165 2 189 14 q 115 -9 142 -9 q 69 0 92 -9 q 28 24 47 9 l 71 136 q 118 112 92 123 q 170 102 144 102 q 186 103 178 102 q 204 109 195 105 q 219 118 212 113 q 229 132 226 124 q 239 155 234 141 q 250 184 245 170 q 262 218 256 200 l 135 422 q 114 439 126 433 q 87 446 101 446 q 66 441 76 446 q 46 429 56 437 l 28 453 q 51 481 37 467 q 79 506 64 495 q 113 525 95 517 q 149 532 130 532 q 190 520 171 532 q 225 493 209 509 q 255 458 241 477 q 279 422 269 439 q 291 404 285 415 q 304 382 298 393 q 318 355 311 370 q 332 388 325 372 q 345 416 338 401 q 357 441 351 431 q 380 477 367 460 q 409 505 393 493 q 444 525 425 517 q 485 532 463 532 q 526 526 506 532 q 564 511 545 521 z "},"y":{"ha":599,"x_min":8,"x_max":519,"o":"m 519 56 q 507 -40 519 7 q 474 -127 495 -86 q 423 -202 452 -168 q 360 -261 394 -237 q 288 -300 326 -286 q 211 -314 250 -314 q 156 -304 182 -314 q 107 -278 130 -294 l 183 -182 q 206 -199 193 -190 q 232 -215 218 -208 q 260 -226 245 -222 q 289 -231 275 -231 q 333 -215 315 -231 q 362 -175 351 -199 q 380 -120 374 -151 q 390 -58 387 -89 q 394 0 393 -28 q 395 45 395 27 l 395 318 q 380 261 389 294 q 358 190 372 227 q 328 117 345 153 q 290 52 311 81 q 242 4 269 22 q 186 -14 216 -14 q 139 0 155 -14 q 116 36 123 14 q 108 83 109 57 q 107 132 107 109 l 107 425 q 100 449 107 437 q 79 461 94 461 q 48 449 62 461 q 26 424 35 436 l 8 444 q 29 477 16 461 q 57 505 41 493 q 92 525 73 517 q 131 532 111 532 q 207 502 184 532 q 231 422 231 473 l 231 143 q 231 133 231 139 q 233 120 231 126 q 239 110 235 115 q 250 106 243 106 q 277 121 263 106 q 302 155 290 136 q 323 195 315 175 q 336 224 332 214 q 358 288 349 253 q 375 358 368 322 q 387 430 382 395 q 395 498 392 466 l 519 542 l 519 56 z "},"z":{"ha":522,"x_min":22,"x_max":496,"o":"m 139 94 q 169 109 152 103 q 204 118 186 115 q 240 123 222 122 q 273 125 258 125 q 326 122 297 125 q 378 119 355 119 q 438 124 408 119 q 496 140 467 129 l 411 1 q 364 -7 389 -7 q 324 -3 345 -7 q 283 4 304 0 q 241 12 262 9 q 201 16 220 16 q 125 8 163 16 q 52 -12 88 0 l 22 4 l 361 424 q 319 411 341 416 q 277 402 300 406 q 228 399 254 399 q 198 400 212 399 q 170 402 184 401 q 139 405 155 404 q 104 406 123 406 q 81 404 94 406 q 58 400 69 402 q 33 395 46 397 l 119 525 q 159 524 140 525 q 196 521 178 522 q 233 518 214 519 q 273 517 252 517 q 371 522 322 517 q 465 541 419 527 l 482 518 l 139 94 z "},"{":{"ha":421,"x_min":7,"x_max":404,"o":"m 404 -187 q 347 -196 378 -196 q 245 -170 283 -196 q 188 -102 208 -144 q 163 -10 169 -61 q 158 90 158 41 q 159 157 158 123 q 159 222 161 191 q 150 283 157 254 q 125 335 142 313 q 80 373 109 358 q 7 393 52 389 l 7 441 q 90 467 60 448 q 136 515 121 486 q 154 582 151 544 q 158 661 158 619 q 157 739 158 697 q 160 821 157 780 q 174 900 164 863 q 205 967 184 938 q 260 1014 226 996 q 347 1031 295 1031 q 376 1028 362 1031 q 404 1021 391 1025 l 395 983 q 371 987 383 987 q 325 978 341 987 q 300 951 308 968 q 291 913 292 935 q 289 868 289 891 q 290 801 289 834 q 290 734 290 768 q 287 660 290 697 q 274 588 283 623 q 250 523 265 553 q 210 470 234 493 q 151 434 185 448 q 71 418 117 420 q 153 406 118 419 q 211 369 187 393 q 251 314 235 346 q 274 246 266 282 q 286 172 283 210 q 289 97 289 134 q 288 36 289 66 q 288 -26 288 5 q 289 -73 288 -50 q 298 -113 290 -96 q 323 -142 307 -131 q 371 -153 340 -153 q 383 -152 377 -153 q 395 -150 389 -152 l 404 -187 z "},"|":{"ha":340,"x_min":100,"x_max":240,"o":"m 240 -142 l 100 -193 l 100 971 l 240 1021 l 240 -142 z "},"}":{"ha":422,"x_min":17,"x_max":414,"o":"m 414 393 q 330 368 361 387 q 285 320 300 349 q 266 253 270 290 q 262 172 262 215 q 263 95 262 136 q 260 13 264 54 q 247 -65 256 -28 q 216 -132 237 -103 q 161 -179 195 -161 q 74 -196 126 -196 q 17 -187 43 -196 l 26 -150 q 39 -152 33 -152 q 52 -153 45 -153 q 97 -143 81 -153 q 121 -116 113 -133 q 132 -78 130 -100 q 134 -33 134 -57 q 132 33 134 0 q 131 98 131 65 q 134 174 131 136 q 147 246 138 212 q 172 311 156 281 q 212 365 187 342 q 271 401 236 387 q 351 416 305 414 q 270 429 304 415 q 211 466 235 442 q 171 520 186 489 q 147 588 156 552 q 135 662 138 624 q 132 736 132 700 q 133 799 132 768 q 134 860 134 829 q 132 907 134 884 q 123 948 131 930 q 99 977 116 966 q 52 987 82 987 q 26 983 39 987 l 17 1021 q 45 1028 31 1025 q 74 1031 59 1031 q 148 1019 117 1031 q 200 985 179 1006 q 234 937 221 964 q 253 877 247 909 q 262 811 260 845 q 264 745 264 777 q 262 677 264 711 q 263 612 261 644 q 272 551 264 580 q 295 499 279 522 q 340 461 312 477 q 414 441 369 446 l 414 393 z "},"~":{"ha":471,"x_min":68,"x_max":412,"o":"m 403 482 q 376 444 392 458 q 340 424 359 429 q 300 420 321 418 q 260 435 279 423 q 224 461 240 447 q 194 486 208 475 q 167 502 180 497 q 140 501 154 507 q 123 485 129 495 q 119 462 119 476 q 134 428 120 448 l 104 414 q 81 445 88 429 q 71 475 73 461 q 71 504 68 490 q 101 564 78 541 q 171 590 124 588 q 213 583 194 591 q 249 564 233 575 q 277 541 264 553 q 301 522 290 529 q 326 515 313 515 q 348 525 339 516 q 360 549 357 533 q 353 590 363 566 l 383 602 q 407 558 401 580 q 411 520 412 537 q 403 482 410 500 z "},"†":{"ha":533,"x_min":56,"x_max":478,"o":"m 338 -142 l 197 -193 l 197 633 l 56 633 l 69 682 l 197 682 l 197 971 l 338 1021 l 338 682 l 478 682 l 465 633 l 338 633 l 338 -142 z "},"°":{"ha":353,"x_min":49,"x_max":306,"o":"m 306 804 q 296 754 306 778 q 268 714 286 731 q 227 686 250 696 q 176 676 203 676 q 126 686 150 676 q 86 714 103 696 q 59 754 68 731 q 49 804 49 778 q 59 854 49 831 q 86 895 68 878 q 126 923 103 913 q 176 933 150 933 q 227 923 203 933 q 268 895 250 913 q 296 854 286 878 q 306 804 306 831 m 244 772 q 237 811 244 789 q 219 851 231 832 q 190 883 207 870 q 153 896 173 896 q 132 891 140 896 q 119 877 124 886 q 112 858 114 869 q 110 838 110 848 q 117 799 110 820 q 135 759 123 777 q 164 727 147 740 q 200 714 180 714 q 221 719 212 714 q 234 733 229 724 q 242 752 239 741 q 244 772 244 762 z "},"¢":{"ha":604,"x_min":68,"x_max":545,"o":"m 383 484 l 374 501 q 408 525 393 511 q 433 557 422 540 q 450 595 444 575 q 456 635 456 615 q 449 680 456 659 q 429 716 442 701 q 397 741 416 732 q 353 750 378 750 q 296 738 321 750 q 249 705 270 726 q 213 658 229 685 q 187 602 197 631 q 172 544 177 573 q 167 488 167 514 q 179 404 167 448 q 216 324 192 361 q 274 264 239 288 q 354 240 309 240 q 432 262 396 240 q 497 314 468 283 l 514 297 q 479 258 498 277 q 437 222 459 239 q 389 194 414 206 q 339 174 364 181 l 363 21 l 261 -18 l 285 165 q 194 190 234 165 q 125 253 153 215 q 82 338 97 292 q 68 427 68 385 q 85 520 68 472 q 131 614 102 569 q 198 699 159 660 q 281 764 237 737 l 253 943 l 354 981 l 329 787 q 373 801 351 797 q 419 806 396 806 q 469 798 446 806 q 509 775 492 790 q 535 739 526 761 q 545 690 545 718 q 531 624 545 657 q 496 563 518 591 q 444 514 473 535 q 383 484 415 493 z "},"£":{"ha":612,"x_min":72,"x_max":545,"o":"m 456 154 q 400 163 426 159 q 351 170 375 167 q 301 176 326 173 q 248 184 277 180 q 225 188 236 186 q 203 189 214 189 q 115 163 157 189 l 98 179 q 115 198 108 187 q 126 220 121 208 q 133 245 131 233 q 135 269 135 258 l 135 411 l 72 411 l 102 486 l 135 486 l 135 525 q 157 639 135 586 q 216 731 178 692 q 305 793 254 770 q 416 815 357 815 q 454 811 435 815 q 486 797 472 806 q 508 771 500 787 q 517 733 517 755 q 500 677 517 703 q 459 629 484 650 q 405 593 434 608 q 349 571 375 578 l 340 591 q 372 611 356 600 q 400 636 388 623 q 421 667 413 650 q 429 701 429 683 q 424 728 429 715 q 409 749 418 740 q 387 763 399 758 q 359 768 374 768 q 304 755 328 768 q 263 719 280 741 q 238 668 247 696 q 229 610 229 640 l 229 486 l 401 486 l 374 411 l 229 411 l 229 330 q 218 280 229 304 q 187 236 206 256 q 231 259 209 251 q 283 268 254 268 q 322 266 304 268 q 355 261 339 264 q 388 256 371 258 q 427 254 405 254 q 481 271 456 254 q 525 311 506 288 l 545 297 l 456 154 z "},"§":{"ha":675,"x_min":79,"x_max":614,"o":"m 614 907 l 524 796 q 492 865 511 832 q 448 922 473 897 q 389 961 422 946 q 315 975 355 975 q 261 965 286 975 q 217 936 235 954 q 187 891 198 917 q 176 836 176 866 q 188 779 176 806 q 218 731 199 753 q 262 694 237 710 q 314 669 287 678 q 399 636 354 656 q 481 588 444 616 q 544 522 519 560 q 568 432 568 483 q 551 353 568 388 q 504 292 534 317 q 550 231 532 264 q 568 154 568 197 q 547 67 568 105 q 490 2 526 28 q 411 -39 455 -25 q 321 -53 366 -53 q 257 -44 289 -53 q 195 -19 224 -35 q 139 18 165 -3 q 94 64 113 39 l 182 164 q 211 109 190 138 q 259 55 231 80 q 317 14 286 30 q 376 -3 348 -3 q 411 6 393 -3 q 445 29 429 15 q 470 59 460 43 q 479 90 479 75 q 458 157 479 126 q 407 212 437 187 q 341 253 376 236 q 278 278 306 270 q 204 310 240 289 q 141 361 169 332 q 96 428 113 391 q 79 507 79 465 q 93 584 79 548 q 132 648 106 619 q 94 711 108 677 q 79 785 79 745 q 104 885 79 840 q 170 964 130 931 q 260 1016 210 998 q 363 1035 311 1035 q 436 1026 400 1035 q 503 1001 471 1017 q 563 960 535 984 q 614 907 591 937 m 479 368 q 458 435 479 404 q 407 489 437 465 q 341 530 376 513 q 278 555 306 547 q 229 574 252 563 q 183 602 205 586 q 178 580 180 591 q 176 558 176 570 q 188 502 176 528 q 218 454 199 475 q 262 416 237 432 q 314 392 287 401 q 387 363 349 380 q 461 325 425 347 q 474 347 469 336 q 479 368 479 357 z "},"•":{"ha":395,"x_min":56,"x_max":339,"o":"m 339 514 q 328 459 339 485 q 297 414 317 433 q 252 384 278 395 q 197 372 227 372 q 142 384 168 372 q 97 414 117 395 q 67 459 78 433 q 56 514 56 485 q 67 569 56 543 q 97 614 78 595 q 142 645 117 633 q 197 656 168 656 q 252 645 227 656 q 297 614 278 633 q 328 569 317 595 q 339 514 339 543 z "},"¶":{"ha":913,"x_min":51,"x_max":772,"o":"m 509 31 l 368 -21 l 368 351 q 284 374 325 359 q 208 410 243 389 q 143 461 172 432 q 93 526 113 490 q 57 635 63 579 q 66 741 51 690 q 116 835 81 792 q 203 907 151 878 q 323 954 256 937 q 462 976 391 971 q 606 975 534 981 q 741 950 677 968 l 733 920 q 624 936 680 932 q 512 932 567 939 q 405 910 456 926 q 310 871 353 895 q 241 813 268 847 q 204 740 215 780 q 200 657 194 701 q 229 572 205 614 q 290 496 254 528 q 368 446 326 465 l 368 850 l 509 900 l 509 411 q 570 411 539 409 q 632 418 602 412 l 632 850 l 772 900 l 772 31 l 632 -21 l 632 361 q 571 348 602 353 q 509 342 540 344 l 509 31 z "},"ß":{"ha":672,"x_min":26,"x_max":635,"o":"m 635 183 q 619 103 635 140 q 577 39 604 66 q 513 -4 550 12 q 433 -20 476 -20 q 393 -16 414 -20 q 351 -6 372 -13 q 311 12 330 1 q 279 37 292 23 l 361 140 q 380 112 368 127 q 407 84 392 97 q 438 63 421 71 q 471 54 454 54 q 509 61 491 54 q 539 80 526 68 q 559 110 552 93 q 566 147 566 127 q 546 197 565 174 q 499 244 527 220 q 440 295 472 268 q 380 358 408 322 q 335 441 353 393 q 317 553 317 488 q 330 618 317 584 q 359 689 343 653 q 388 760 375 724 q 401 831 401 796 q 395 867 401 849 q 376 899 388 884 q 347 922 363 913 q 310 930 330 930 q 263 917 281 930 q 236 882 245 903 q 223 837 226 861 q 220 789 220 812 l 220 -140 l 94 -195 l 94 435 l 26 435 l 56 503 l 94 503 q 95 600 94 547 q 102 706 96 652 q 123 808 109 759 q 165 896 138 858 q 236 958 193 935 q 343 981 279 981 q 407 971 378 981 q 458 943 437 962 q 492 896 479 924 q 504 832 504 869 q 496 783 504 806 q 475 738 488 760 q 449 695 463 716 q 422 651 434 673 q 401 606 410 629 q 393 555 393 583 q 411 486 393 516 q 456 431 429 456 q 514 380 483 405 q 572 328 545 356 q 617 264 599 299 q 635 183 635 230 z "},"®":{"ha":794,"x_min":79,"x_max":715,"o":"m 715 475 q 690 351 715 408 q 622 250 665 293 q 521 181 578 206 q 397 157 463 157 q 274 181 332 157 q 173 250 216 206 q 104 351 130 293 q 79 475 79 408 q 104 598 79 541 q 173 699 130 656 q 274 768 216 743 q 397 793 332 793 q 521 768 463 793 q 622 699 578 743 q 690 598 665 656 q 715 475 715 541 m 681 473 q 659 583 681 532 q 598 673 636 635 q 508 733 559 711 q 399 755 457 755 q 289 733 340 755 q 199 673 237 711 q 139 583 161 635 q 117 473 117 532 q 139 364 117 415 q 199 274 161 313 q 289 214 237 236 q 399 192 340 192 q 508 214 457 192 q 598 274 559 236 q 659 364 636 313 q 681 473 681 415 m 555 346 q 537 324 547 336 q 515 302 527 312 q 489 285 503 292 q 461 278 475 278 q 428 289 441 278 q 403 314 414 299 q 368 359 385 336 q 334 406 350 382 l 336 416 q 391 433 363 421 q 440 464 418 445 q 475 507 462 482 q 489 562 489 532 q 483 599 489 582 q 465 628 476 616 q 437 647 453 640 q 401 654 420 654 q 355 649 376 654 q 313 634 333 644 q 275 612 293 625 q 239 587 256 600 l 231 597 q 267 630 248 614 q 310 660 286 646 q 364 681 334 673 q 432 689 394 689 q 478 680 457 689 q 515 655 500 671 q 539 617 530 640 q 547 570 547 595 q 528 501 547 530 q 473 453 508 472 q 456 444 467 450 q 434 431 445 437 q 412 419 422 425 q 396 414 401 414 q 410 396 401 406 q 428 374 418 385 q 446 353 437 363 q 463 336 455 342 q 476 325 469 330 q 493 321 483 321 q 522 332 508 321 q 546 353 536 343 l 555 346 m 321 297 l 264 277 l 264 587 l 321 608 l 321 297 z "},"©":{"ha":794,"x_min":79,"x_max":715,"o":"m 517 619 q 508 577 517 597 q 486 538 500 556 q 453 507 471 520 q 415 488 435 494 l 410 497 q 448 533 433 509 q 463 583 463 557 q 445 637 463 615 q 395 659 428 659 q 342 642 365 659 q 305 599 320 625 q 283 545 290 574 q 275 490 275 515 q 283 436 275 465 q 307 384 292 408 q 345 346 322 361 q 396 330 368 330 q 447 344 423 330 q 489 376 470 357 l 497 368 q 468 337 485 352 q 432 310 452 322 q 392 292 413 298 q 350 285 371 285 q 294 300 319 285 q 252 340 269 316 q 224 393 234 364 q 215 450 215 422 q 235 534 215 491 q 286 611 254 576 q 358 669 318 646 q 439 692 398 692 q 495 673 473 692 q 517 619 517 654 m 715 475 q 690 351 715 408 q 622 250 665 293 q 521 181 578 206 q 397 157 463 157 q 274 181 332 157 q 173 250 216 206 q 104 351 130 293 q 79 475 79 408 q 104 598 79 541 q 173 699 130 656 q 274 768 216 743 q 397 793 332 793 q 521 768 463 793 q 622 699 578 743 q 690 598 665 656 q 715 475 715 541 m 681 473 q 659 583 681 532 q 598 673 636 635 q 508 733 559 711 q 399 755 457 755 q 289 733 340 755 q 199 673 237 711 q 139 583 161 635 q 117 473 117 532 q 139 364 117 415 q 199 274 161 313 q 289 214 237 236 q 399 192 340 192 q 508 214 457 192 q 598 274 559 236 q 659 364 636 313 q 681 473 681 415 z "},"™":{"ha":765,"x_min":64,"x_max":694,"o":"m 639 632 q 615 637 625 632 q 598 651 605 642 q 588 671 591 660 q 585 693 585 682 l 585 916 q 582 925 585 922 q 576 928 580 928 q 557 917 568 928 q 537 886 547 905 q 520 838 527 866 q 513 778 513 810 l 513 660 l 456 639 l 456 916 q 446 928 456 928 q 427 911 438 928 q 406 871 416 895 q 389 818 396 846 q 382 765 382 789 l 382 646 l 325 625 l 325 954 l 382 975 l 382 882 q 401 925 391 907 q 422 953 411 942 q 445 968 433 964 q 468 972 456 972 q 492 968 483 972 q 506 958 501 964 q 511 942 510 951 q 513 924 513 933 l 513 893 q 552 952 528 932 q 597 972 576 972 q 630 963 618 972 q 642 932 642 954 l 642 686 q 645 672 642 677 q 654 667 648 667 q 679 685 667 667 l 694 671 q 671 643 686 654 q 639 632 656 632 m 222 908 l 220 908 q 205 869 205 891 l 205 714 q 149 614 205 651 l 135 629 q 146 651 144 640 q 149 673 149 662 l 149 843 q 160 879 149 863 q 184 908 171 896 l 126 908 q 101 902 111 908 q 78 880 92 895 l 64 896 q 82 919 72 907 q 104 941 92 930 q 129 957 115 951 q 157 964 142 964 l 253 964 q 280 967 264 964 q 306 979 295 970 l 318 966 q 275 925 301 941 q 222 908 250 908 z "},"´":{"ha":237,"x_min":0,"x_max":237,"o":"m 17 1022 l 0 1046 l 158 1235 l 237 1146 l 17 1022 z "},"¨":{"ha":328,"x_min":0,"x_max":328,"o":"m 64 1147 q 88 1142 77 1147 q 109 1128 100 1137 q 122 1108 117 1120 q 127 1083 127 1096 q 122 1059 127 1070 q 109 1038 117 1047 q 88 1024 100 1029 q 64 1019 77 1019 q 39 1024 50 1019 q 18 1038 27 1029 q 5 1059 9 1047 q 0 1083 0 1070 q 5 1108 0 1096 q 18 1128 9 1120 q 39 1142 27 1137 q 64 1147 50 1147 m 265 1147 q 290 1142 278 1147 q 310 1128 301 1137 q 323 1108 318 1120 q 328 1083 328 1096 q 323 1059 328 1070 q 310 1038 318 1047 q 290 1024 301 1029 q 265 1019 278 1019 q 240 1024 252 1019 q 220 1038 229 1029 q 206 1059 211 1047 q 201 1083 201 1070 q 206 1108 201 1096 q 220 1128 211 1120 q 240 1142 229 1137 q 265 1147 252 1147 z "},"≠":{"ha":612,"x_min":52,"x_max":557,"o":"m 192 119 l 121 161 l 197 346 l 52 346 l 94 456 l 241 456 l 288 568 l 52 568 l 94 677 l 334 677 l 421 892 l 497 867 l 419 677 l 557 677 l 515 568 l 375 568 l 329 456 l 557 456 l 515 346 l 285 346 l 192 119 z "},"Æ":{"ha":1340,"x_min":57,"x_max":1321,"o":"m 789 467 q 837 499 812 484 q 886 525 863 513 q 830 548 854 530 q 789 590 806 565 l 789 467 m 1321 267 q 1249 162 1291 212 q 1155 75 1206 113 q 1043 14 1103 37 q 917 -8 983 -8 q 818 9 866 -8 q 732 57 770 26 q 671 132 694 88 q 648 229 648 176 l 648 240 l 648 428 q 627 335 639 385 q 597 236 614 285 q 555 141 579 186 q 499 61 532 96 q 426 5 467 26 q 332 -16 385 -16 q 216 9 267 -16 q 130 76 165 33 q 76 177 94 119 q 57 304 57 236 q 82 468 57 386 q 153 625 108 549 q 260 764 199 700 q 395 876 322 829 q 550 950 469 924 q 714 975 631 977 l 722 975 l 722 945 q 585 914 651 941 q 462 842 519 886 q 357 739 405 798 q 276 615 310 681 q 224 479 243 549 q 205 342 205 410 q 209 285 205 315 q 220 225 212 255 q 241 167 229 195 q 274 118 254 140 q 319 84 293 97 q 378 72 345 72 q 450 96 418 72 q 509 162 483 121 q 556 258 536 203 q 593 374 577 313 q 619 499 608 435 q 636 621 629 562 q 645 729 642 679 q 648 812 648 779 l 789 864 l 789 817 q 847 885 812 854 q 924 938 883 916 q 1009 971 965 960 q 1096 983 1054 983 q 1197 961 1151 983 q 1279 897 1244 939 l 1181 825 q 1150 862 1166 845 q 1114 892 1133 880 q 1072 912 1095 905 q 1025 920 1050 920 q 964 908 994 920 q 910 877 934 897 q 872 829 886 857 q 857 768 857 802 q 872 704 857 734 q 911 653 887 675 q 967 619 936 631 q 1032 607 999 607 q 1103 619 1069 607 l 1112 591 q 1003 546 1057 574 q 905 480 948 519 q 835 391 862 441 q 808 275 808 340 q 819 206 808 238 q 851 151 830 174 q 902 113 871 127 q 970 100 932 100 q 1058 116 1009 100 q 1154 158 1107 132 q 1239 218 1200 184 q 1297 288 1278 252 l 1321 267 z "},"Ø":{"ha":993,"x_min":58,"x_max":935,"o":"m 728 711 l 358 132 q 447 74 398 96 q 558 53 496 53 q 636 68 602 53 q 696 110 670 83 q 741 170 723 136 q 771 243 760 205 q 789 320 783 281 q 794 396 794 360 q 790 472 794 433 q 778 553 786 512 q 757 633 770 593 q 728 711 745 673 m 293 214 l 672 802 q 626 851 651 829 q 572 888 602 873 q 509 912 543 904 q 436 921 475 921 q 358 906 392 921 q 297 864 323 890 q 252 804 271 838 q 222 732 234 770 q 205 654 211 694 q 200 579 200 615 q 205 488 200 536 q 222 393 211 441 q 251 300 233 346 q 293 214 269 254 m 254 -33 l 170 22 l 215 94 q 149 176 178 131 q 99 272 119 221 q 69 376 79 322 q 58 485 58 430 q 72 609 58 547 q 112 727 85 671 q 176 831 138 783 q 263 915 214 880 q 371 970 312 950 q 497 990 429 990 q 629 968 568 990 q 742 907 690 945 l 803 1003 l 879 950 l 810 840 q 863 763 840 804 q 902 675 886 721 q 926 581 918 629 q 935 485 935 533 q 921 360 935 422 q 881 242 907 298 q 818 138 855 186 q 731 55 780 90 q 624 -1 682 19 q 497 -21 565 -21 q 390 -7 441 -21 q 296 33 340 7 l 254 -33 z "},"∞":{"ha":804,"x_min":72,"x_max":732,"o":"m 558 313 q 459 340 503 313 q 385 411 415 367 q 354 376 370 393 q 318 347 337 359 q 276 326 298 334 q 229 318 254 318 q 171 328 199 318 q 120 355 142 337 q 85 399 98 373 q 72 458 72 425 q 85 528 72 494 q 121 587 98 562 q 176 629 144 613 q 245 644 208 644 q 345 617 301 644 q 418 547 389 590 q 449 582 432 565 q 486 612 466 599 q 528 632 505 625 q 575 640 550 640 q 634 631 606 640 q 684 603 662 621 q 719 558 705 585 q 732 500 732 532 q 719 430 732 463 q 683 370 706 396 q 628 328 660 344 q 558 313 596 313 m 554 555 q 493 537 521 555 q 444 494 466 519 q 474 453 457 473 q 510 419 490 434 q 553 396 530 405 q 600 387 576 387 q 656 408 633 387 q 679 463 679 429 q 667 501 679 484 q 636 530 654 518 q 596 549 618 543 q 554 555 574 555 m 204 571 q 173 566 188 571 q 147 550 158 560 q 130 526 136 540 q 123 494 123 511 q 136 456 123 473 q 166 427 148 439 q 208 408 185 415 q 250 401 230 401 q 310 420 283 401 q 358 464 337 438 q 330 504 346 485 q 294 538 313 524 q 251 562 274 553 q 204 571 229 571 z "},"±":{"ha":648,"x_min":71,"x_max":576,"o":"m 576 567 l 534 457 l 379 457 l 379 301 l 269 258 l 269 457 l 71 457 l 114 567 l 269 567 l 269 722 l 379 765 l 379 567 l 576 567 m 576 192 l 534 82 l 71 82 l 114 192 l 576 192 z "},"≤":{"ha":514,"x_min":68,"x_max":435,"o":"m 421 262 l 397 233 l 68 478 l 397 743 l 421 724 l 253 478 l 421 262 m 435 192 l 393 82 l 68 82 l 111 192 l 435 192 z "},"≥":{"ha":517,"x_min":82,"x_max":449,"o":"m 449 478 l 119 233 l 96 262 l 264 478 l 96 724 l 119 743 l 449 478 m 449 192 l 407 82 l 82 82 l 125 192 l 449 192 z "},"¥":{"ha":631,"x_min":57,"x_max":551,"o":"m 393 403 l 485 403 l 456 329 l 374 329 l 374 207 l 281 174 l 281 329 l 154 329 l 183 403 l 268 403 l 57 774 l 150 815 l 361 411 l 432 534 q 454 588 446 561 q 463 644 463 615 q 447 728 463 691 q 393 796 431 766 l 468 880 q 502 851 486 868 q 528 813 517 833 q 545 772 539 793 q 551 729 551 750 q 543 692 551 715 q 520 638 534 668 q 489 575 507 608 q 454 510 472 542 q 421 451 437 479 q 393 403 405 422 z "},"µ":{"ha":705,"x_min":52,"x_max":661,"o":"m 273 -203 l 149 -254 q 149 -89 149 -178 q 149 91 149 0 q 150 268 149 181 q 150 427 150 355 q 142 452 150 443 q 123 462 135 462 q 97 454 111 463 q 69 425 83 445 l 52 446 q 87 496 66 478 q 127 522 108 514 q 174 533 150 532 q 223 524 204 533 q 254 499 243 514 q 269 464 265 484 q 273 424 273 444 l 273 143 q 283 109 273 117 q 308 111 292 100 q 341 150 323 121 q 379 224 360 178 q 403 315 391 268 q 422 403 412 355 q 437 496 432 451 l 562 539 l 562 98 q 570 73 562 82 q 589 63 577 63 q 615 71 601 62 q 642 100 629 80 l 661 79 q 625 28 646 46 q 585 3 604 11 q 539 -8 562 -7 q 489 1 509 -8 q 458 26 469 11 q 442 62 446 42 q 437 102 437 81 l 437 318 q 426 267 433 296 q 409 206 418 238 q 386 142 399 174 q 356 81 373 109 q 319 30 340 52 q 273 -4 298 7 l 273 -203 z "},"∂":{"ha":648,"x_min":64,"x_max":576,"o":"m 576 294 q 556 178 576 234 q 500 79 535 122 q 419 10 465 36 q 323 -16 374 -16 q 218 11 266 -16 q 136 79 170 37 q 83 174 102 121 q 64 281 64 227 q 75 358 64 320 q 106 429 85 397 q 158 487 127 462 q 227 525 188 512 q 284 481 256 504 q 336 431 313 458 q 265 406 298 427 q 207 351 232 384 q 168 280 182 319 q 154 205 154 242 q 162 146 154 174 q 186 97 170 118 q 228 64 203 76 q 286 52 252 52 q 355 72 324 52 q 408 129 386 93 q 441 211 429 164 q 453 310 453 258 q 434 470 453 397 q 386 604 416 544 q 319 713 356 665 q 244 797 281 761 q 173 857 207 833 q 117 896 139 882 l 136 920 q 219 885 172 907 q 315 828 266 863 q 411 745 363 793 q 494 632 458 697 q 554 483 531 567 q 576 294 576 399 z "},"∑":{"ha":665,"x_min":61,"x_max":602,"o":"m 602 0 l 61 0 l 61 46 l 339 482 l 61 925 l 61 972 l 602 972 l 602 924 l 201 924 l 479 484 l 201 49 l 602 49 l 602 0 z "},"ª":{"ha":574,"x_min":81,"x_max":529,"o":"m 529 612 q 513 586 523 599 q 490 564 503 574 q 463 549 477 555 q 432 543 448 543 q 370 567 389 543 q 351 631 351 590 l 351 640 q 330 604 342 622 q 302 571 317 585 q 268 547 287 556 q 225 538 248 538 q 163 551 190 538 q 117 588 136 565 q 90 642 99 611 q 81 707 81 672 q 97 801 81 754 q 144 885 114 848 q 216 945 174 922 q 310 968 258 968 q 351 964 330 968 q 391 952 372 960 q 425 930 410 944 q 450 897 440 917 l 368 863 q 336 900 357 884 q 289 916 315 916 q 239 898 261 916 q 202 855 218 880 q 179 800 187 829 q 171 747 171 770 q 175 701 171 727 q 189 653 179 675 q 216 614 199 630 q 258 599 233 599 q 307 618 289 599 q 335 665 326 637 q 348 723 345 692 q 351 777 351 753 l 351 814 l 452 847 l 452 628 q 456 609 452 617 q 473 600 461 600 q 497 610 486 600 q 515 629 508 620 l 529 612 m 485 435 l 452 347 l 81 347 l 114 435 l 485 435 z "},"º":{"ha":558,"x_min":81,"x_max":485,"o":"m 272 538 q 197 552 232 538 q 136 591 162 566 q 96 651 111 616 q 81 726 81 686 q 96 813 81 772 q 138 886 111 854 q 201 943 165 919 q 281 979 238 966 l 296 961 q 251 920 272 943 q 213 870 229 897 q 188 813 197 843 q 179 753 179 783 q 187 697 179 726 q 210 645 195 669 q 248 606 225 621 q 301 590 271 590 q 348 600 328 590 q 381 627 368 610 q 400 666 394 644 q 407 714 407 689 q 396 774 407 743 q 365 831 385 805 q 318 874 345 857 q 261 895 292 892 q 303 935 281 916 q 350 970 326 953 q 405 940 380 960 q 445 893 429 920 q 471 836 462 867 q 479 774 479 806 q 465 689 479 731 q 422 613 450 646 q 357 558 395 579 q 272 538 319 538 m 485 436 l 452 349 l 81 349 l 114 436 l 485 436 z "},"æ":{"ha":920,"x_min":41,"x_max":897,"o":"m 732 390 q 727 420 732 406 q 712 445 722 434 q 690 461 703 455 q 660 468 676 468 q 604 446 629 468 q 559 393 578 425 q 530 328 541 362 q 519 267 519 293 q 528 211 519 238 q 550 161 536 184 q 607 201 575 176 q 666 259 639 227 q 713 325 694 290 q 732 390 732 359 m 427 385 l 481 412 q 520 461 497 439 q 572 500 543 484 q 638 525 602 516 q 718 534 674 534 q 772 527 746 534 q 817 506 798 520 q 848 468 837 491 q 860 415 860 446 q 845 361 860 389 q 805 304 829 332 q 748 248 780 275 q 685 197 717 220 q 624 156 653 174 q 572 129 594 138 q 628 79 595 100 q 700 58 661 58 q 748 67 724 58 q 795 91 772 77 q 838 121 818 104 q 875 154 859 138 l 897 132 q 845 75 873 102 q 783 29 816 49 q 713 -2 750 9 q 637 -14 677 -14 q 564 -2 599 -14 q 500 32 529 10 q 451 83 472 53 q 418 150 429 113 q 388 92 408 121 q 344 40 369 63 q 288 1 319 16 q 225 -14 258 -14 q 153 0 186 -14 q 95 37 119 14 q 56 93 70 60 q 41 163 41 125 q 68 309 41 241 q 141 426 95 376 q 246 504 186 475 q 372 532 306 532 q 442 520 410 532 q 503 484 473 509 l 422 425 q 408 456 418 443 q 384 478 399 468 q 345 486 368 488 q 269 455 301 484 q 214 385 236 427 q 181 297 192 344 q 170 211 170 250 q 173 165 170 191 q 186 117 177 140 q 213 78 196 94 q 257 62 231 62 q 308 78 282 62 q 356 117 334 94 q 392 169 378 140 q 408 221 406 197 q 413 254 410 239 q 419 287 416 269 q 425 328 422 304 q 427 385 427 351 z "},"ø":{"ha":581,"x_min":40,"x_max":539,"o":"m 401 345 l 233 83 q 271 60 250 68 q 317 52 292 52 q 375 64 351 52 q 416 97 400 76 q 441 146 433 118 q 449 205 449 174 q 436 276 449 240 q 401 345 423 313 m 140 -60 l 71 -14 l 113 50 q 59 125 79 81 q 40 221 40 170 q 59 329 40 279 q 112 420 78 380 q 191 491 145 461 q 290 538 237 521 l 310 514 q 253 463 279 492 q 207 400 227 434 q 176 330 187 367 q 164 254 164 293 q 169 205 164 231 q 183 157 173 180 l 345 401 q 267 431 308 427 q 319 481 290 458 q 376 525 347 504 q 415 509 397 519 l 456 568 l 518 525 l 475 458 q 523 376 507 422 q 539 281 539 330 q 520 174 539 227 q 468 79 502 121 q 386 11 433 37 q 279 -16 338 -16 q 228 -11 253 -16 q 182 4 203 -5 l 140 -60 z "},"¿":{"ha":690,"x_min":61,"x_max":633,"o":"m 61 -36 q 67 34 61 -1 q 87 99 74 68 q 121 158 101 130 q 170 208 142 186 q 233 262 199 233 q 295 322 267 290 q 345 391 324 355 q 368 469 365 427 l 441 488 l 441 475 q 426 370 443 416 q 382 287 408 325 q 324 214 355 248 q 266 143 293 180 q 221 65 239 106 q 203 -31 203 23 q 217 -108 203 -71 q 256 -174 231 -145 q 316 -221 281 -203 q 393 -239 351 -239 q 449 -229 422 -239 q 496 -200 475 -218 q 529 -157 517 -182 q 542 -102 542 -132 q 525 -30 542 -64 q 481 31 508 5 l 575 113 q 601 80 589 98 q 619 41 612 62 q 630 0 626 21 q 633 -41 633 -22 q 608 -146 633 -98 q 541 -230 583 -195 q 448 -285 500 -265 q 342 -304 395 -304 q 279 -298 311 -304 q 218 -279 248 -292 q 161 -249 188 -267 q 114 -208 135 -231 q 90 -171 100 -192 q 73 -127 79 -150 q 64 -81 66 -104 q 61 -36 61 -58 m 326 631 q 332 661 326 647 q 349 685 338 675 q 374 702 359 696 q 404 708 388 708 q 434 702 420 708 q 459 685 448 696 q 476 661 470 675 q 482 631 482 647 q 476 600 482 614 q 459 575 470 585 q 434 558 448 564 q 404 551 420 551 q 374 558 388 551 q 349 575 359 564 q 332 600 338 585 q 326 631 326 614 z "},"¡":{"ha":334,"x_min":81,"x_max":265,"o":"m 81 -304 l 138 456 l 210 472 l 265 -254 l 81 -304 m 94 616 q 101 647 94 633 q 118 672 107 661 q 143 688 129 682 q 174 694 157 694 q 204 688 190 694 q 229 672 218 682 q 245 647 239 661 q 252 616 252 633 q 245 586 252 600 q 229 561 239 572 q 204 544 218 551 q 174 538 190 538 q 143 544 157 538 q 118 561 129 551 q 101 586 107 572 q 94 616 94 600 z "},"¬":{"ha":647,"x_min":60,"x_max":566,"o":"m 482 457 l 60 457 l 103 567 l 566 567 l 566 321 l 482 250 l 482 457 z "},"ƒ":{"ha":387,"x_min":-172,"x_max":488,"o":"m 488 911 l 404 856 q 369 909 391 887 q 310 932 346 932 q 263 919 281 932 q 236 885 245 905 q 223 839 226 864 q 220 791 220 814 l 220 525 l 397 525 l 370 457 l 220 457 l 220 98 q 208 -13 220 43 q 168 -113 195 -68 q 94 -186 140 -158 q -20 -214 47 -214 q -62 -209 -40 -214 q -104 -195 -83 -204 q -142 -173 -124 -186 q -172 -143 -160 -159 l -89 -87 q -74 -117 -83 -103 q -53 -141 -64 -131 q -27 -158 -41 -152 q 5 -164 -12 -164 q 52 -151 35 -164 q 80 -117 70 -138 q 93 -72 90 -96 q 96 -24 96 -47 l 96 457 l 28 457 l 56 525 l 96 525 l 96 669 q 108 781 96 725 q 148 882 120 837 q 222 954 176 926 q 335 982 268 982 q 377 977 355 982 q 419 963 399 972 q 457 941 439 954 q 488 911 475 928 z "},"≈":{"ha":526,"x_min":91,"x_max":435,"o":"m 425 385 q 398 347 414 361 q 362 327 382 332 q 322 323 343 321 q 282 338 302 326 q 246 364 262 350 q 216 389 230 378 q 189 405 202 400 q 163 404 176 410 q 146 387 151 397 q 141 365 141 378 q 155 330 142 351 l 126 317 q 103 348 110 332 q 94 377 96 363 q 93 407 91 393 q 123 467 100 444 q 193 493 146 491 q 236 486 216 494 q 271 467 255 478 q 300 444 287 456 q 323 425 313 432 q 348 418 335 418 q 371 428 361 419 q 382 452 380 436 q 375 493 385 469 l 406 504 q 429 461 424 482 q 433 422 435 439 q 425 385 432 402 m 425 593 q 398 555 414 569 q 362 535 382 541 q 322 532 343 529 q 282 546 302 534 q 246 572 262 558 q 216 597 230 587 q 189 613 202 608 q 163 612 176 618 q 146 596 151 606 q 141 573 141 587 q 155 539 142 559 l 126 525 q 103 556 110 541 q 94 586 96 572 q 93 615 91 601 q 123 675 100 652 q 193 701 146 699 q 236 694 216 702 q 271 675 255 686 q 300 652 287 664 q 323 633 313 640 q 348 627 335 626 q 371 636 361 627 q 382 661 380 644 q 375 701 385 677 l 406 713 q 429 670 424 691 q 433 631 435 649 q 425 593 432 611 z "},"«":{"ha":589,"x_min":43,"x_max":515,"o":"m 309 111 l 285 81 l 43 258 l 285 436 l 309 415 l 195 258 l 309 111 m 515 111 l 492 81 l 250 258 l 492 436 l 515 415 l 401 258 l 515 111 z "},"»":{"ha":589,"x_min":74,"x_max":546,"o":"m 546 258 l 304 81 l 281 111 l 395 258 l 281 415 l 304 436 l 546 258 m 339 258 l 97 81 l 74 111 l 187 258 l 74 415 l 97 436 l 339 258 z "},"Œ":{"ha":1472,"x_min":58,"x_max":1453,"o":"m 436 921 q 358 906 392 921 q 297 864 323 890 q 252 804 271 838 q 222 732 234 770 q 205 654 211 694 q 200 579 200 615 q 208 466 200 526 q 234 347 216 406 q 280 236 252 289 q 349 142 309 182 q 440 77 389 101 q 558 53 492 53 q 636 68 602 53 q 696 110 670 83 q 741 170 723 136 q 771 243 760 205 q 789 320 783 281 q 794 396 794 360 q 786 509 794 450 q 760 627 778 569 q 714 739 742 686 q 646 832 686 792 q 554 897 606 873 q 436 921 502 921 m 935 478 q 976 504 956 492 q 1018 525 997 515 q 967 545 989 530 q 926 582 944 560 q 933 533 930 558 q 935 485 936 509 l 935 478 m 1453 267 q 1380 162 1423 212 q 1286 75 1338 113 q 1174 14 1234 37 q 1048 -8 1114 -8 q 976 1 1012 -8 q 908 27 940 10 q 850 69 876 44 q 807 125 824 94 q 672 19 750 59 q 497 -21 595 -21 q 371 -1 429 -21 q 263 55 312 19 q 176 138 214 90 q 112 242 138 186 q 72 360 85 298 q 58 485 58 422 q 72 609 58 547 q 112 727 85 671 q 176 831 138 783 q 263 915 214 880 q 371 970 312 950 q 497 990 429 990 q 627 969 566 990 q 736 911 687 948 q 824 824 785 874 q 888 715 862 774 q 925 824 892 774 q 1007 908 958 873 q 1115 964 1057 944 q 1227 983 1173 983 q 1329 961 1283 983 q 1411 897 1375 939 l 1312 825 q 1281 862 1298 845 q 1245 892 1265 880 q 1204 912 1226 905 q 1157 920 1182 920 q 1096 908 1126 920 q 1042 877 1065 897 q 1003 829 1018 857 q 989 768 989 802 q 1004 704 989 734 q 1043 653 1019 675 q 1099 619 1067 631 q 1164 607 1131 607 q 1235 619 1201 607 l 1244 591 q 1135 546 1190 574 q 1037 480 1080 519 q 967 391 994 441 q 940 275 940 340 q 951 206 940 238 q 983 151 962 174 q 1034 113 1004 127 q 1101 100 1063 100 q 1159 107 1128 100 q 1222 127 1190 115 q 1285 158 1254 140 q 1345 197 1317 176 q 1394 241 1373 218 q 1429 288 1416 264 l 1453 267 z "},"œ":{"ha":960,"x_min":40,"x_max":937,"o":"m 937 132 q 885 75 913 102 q 823 29 856 49 q 753 -2 790 9 q 677 -14 717 -14 q 561 17 612 -14 q 481 97 510 47 q 442 52 463 73 q 395 16 420 31 q 341 -7 370 1 q 279 -16 312 -16 q 185 2 229 -16 q 110 52 142 20 q 59 127 77 84 q 40 221 40 170 q 59 329 40 279 q 112 420 78 380 q 191 491 145 461 q 290 538 237 521 l 310 514 q 253 463 279 492 q 207 400 227 434 q 176 330 187 367 q 164 254 164 293 q 174 186 164 222 q 202 120 183 150 q 250 71 221 90 q 317 52 279 52 q 375 64 351 52 q 416 97 400 76 q 441 146 433 118 q 449 205 449 174 q 435 280 449 242 q 396 351 420 319 q 338 406 371 384 q 267 431 304 427 q 319 481 290 458 q 376 525 347 504 q 457 477 423 509 q 511 403 492 445 q 561 456 533 432 q 620 498 589 481 q 687 525 652 515 q 758 534 722 534 q 812 528 787 534 q 857 506 838 521 q 888 469 877 492 q 900 415 900 446 q 885 361 900 389 q 845 304 869 332 q 789 248 820 275 q 726 197 758 220 q 664 156 694 174 q 612 129 634 138 q 669 78 636 98 q 741 58 703 58 q 789 67 764 58 q 836 91 813 77 q 880 122 859 105 q 917 154 901 139 l 937 132 m 772 390 q 767 420 772 406 q 753 445 762 434 q 730 461 743 455 q 700 468 717 468 q 644 447 669 468 q 599 394 618 425 q 570 328 581 363 q 559 267 559 293 q 568 214 559 241 q 590 161 576 186 q 649 203 617 176 q 708 261 681 229 q 754 326 736 292 q 772 390 772 360 z "},"–":{"ha":701,"x_min":68,"x_max":624,"o":"m 624 567 l 624 457 l 68 457 l 68 567 l 624 567 z "},"—":{"ha":1257,"x_min":68,"x_max":1179,"o":"m 1179 567 l 1179 457 l 68 457 l 68 567 l 1179 567 z "},"“":{"ha":467,"x_min":50,"x_max":415,"o":"m 415 802 q 409 771 415 785 q 392 746 402 757 q 367 730 381 736 q 336 724 353 724 q 306 730 320 724 q 281 746 292 736 q 264 771 271 757 q 258 802 258 785 q 267 852 258 829 q 291 896 276 876 q 327 933 307 916 q 368 964 347 950 l 393 942 q 370 913 380 930 q 355 878 359 895 q 398 850 381 871 q 415 802 415 829 m 207 802 q 200 771 207 785 q 183 746 194 757 q 158 730 173 736 q 127 724 144 724 q 97 730 111 724 q 73 746 83 736 q 56 771 62 757 q 50 802 50 785 q 59 852 50 829 q 83 896 68 876 q 118 933 98 916 q 160 964 138 950 l 184 942 q 161 913 172 930 q 147 878 151 895 q 190 850 173 871 q 207 802 207 829 z "},"”":{"ha":461,"x_min":53,"x_max":418,"o":"m 210 885 q 201 835 210 859 q 177 791 192 811 q 141 753 161 770 q 100 724 121 736 l 75 745 q 98 774 87 756 q 113 808 109 791 q 70 837 87 816 q 53 885 53 857 q 59 916 53 901 q 76 940 65 930 q 100 957 86 951 q 131 964 115 964 q 161 957 147 964 q 186 940 176 951 q 203 916 197 930 q 210 885 210 901 m 418 885 q 409 835 418 859 q 385 791 400 811 q 350 753 370 770 q 309 724 330 736 l 283 745 q 307 774 296 756 q 321 808 317 791 q 278 837 295 816 q 261 885 261 857 q 267 916 261 901 q 284 940 273 930 q 309 957 294 951 q 339 964 323 964 q 370 957 355 964 q 394 940 384 951 q 411 916 405 930 q 418 885 418 901 z "},"‘":{"ha":258,"x_min":50,"x_max":207,"o":"m 207 802 q 200 771 207 785 q 183 746 194 757 q 158 730 173 736 q 127 724 144 724 q 97 730 111 724 q 73 746 83 736 q 56 771 62 757 q 50 802 50 785 q 59 852 50 829 q 83 896 68 876 q 118 933 98 916 q 160 964 138 950 l 184 942 q 161 913 172 930 q 147 878 151 895 q 190 850 173 871 q 207 802 207 829 z "},"’":{"ha":253,"x_min":53,"x_max":210,"o":"m 210 885 q 201 835 210 859 q 177 791 192 811 q 141 753 161 770 q 100 724 121 736 l 75 745 q 98 774 87 756 q 113 808 109 791 q 70 837 87 816 q 53 885 53 857 q 59 916 53 901 q 76 940 65 930 q 100 957 86 951 q 131 964 115 964 q 161 957 147 964 q 186 940 176 951 q 203 916 197 930 q 210 885 210 901 z "},"÷":{"ha":636,"x_min":65,"x_max":571,"o":"m 571 567 l 529 457 l 65 457 l 109 567 l 571 567 m 322 743 q 347 738 335 743 q 367 724 358 733 q 381 704 376 715 q 386 679 386 692 q 381 654 386 665 q 367 633 376 642 q 347 620 358 625 q 322 615 335 615 q 298 620 309 615 q 277 633 286 625 q 263 654 269 642 q 258 679 258 665 q 263 704 258 692 q 277 724 269 715 q 298 738 286 733 q 322 743 309 743 m 322 410 q 347 405 335 410 q 367 391 358 399 q 381 370 376 382 q 386 346 386 359 q 381 321 386 332 q 367 300 376 309 q 347 287 358 292 q 322 282 335 282 q 298 287 309 282 q 277 300 286 292 q 263 321 269 309 q 258 346 258 332 q 263 370 258 359 q 277 391 269 382 q 298 405 286 399 q 322 410 309 410 z "},"⁄":{"ha":578,"x_min":-22,"x_max":600,"o":"m 49 21 l -22 68 l 534 953 l 600 908 l 49 21 z "},"€":{"ha":693,"x_min":75,"x_max":624,"o":"m 463 485 l 452 504 q 486 528 471 513 q 512 559 501 542 q 529 597 523 577 q 534 637 534 617 q 528 682 534 661 q 508 719 521 703 q 475 744 495 734 q 431 753 456 753 q 368 738 396 753 q 319 698 340 723 q 282 642 297 673 q 258 576 267 610 l 404 576 l 376 501 l 245 501 l 245 490 q 248 463 245 477 q 252 433 250 448 l 404 433 l 376 359 l 277 359 q 304 314 289 335 q 340 277 320 292 q 383 252 359 261 q 433 243 406 243 q 511 264 475 243 q 576 317 547 286 l 593 300 q 547 250 574 274 q 490 208 521 227 q 426 179 459 190 q 359 168 392 168 q 288 184 321 168 q 228 228 254 201 q 183 289 201 254 q 155 359 165 323 l 75 359 l 104 433 l 147 433 q 150 468 147 450 q 157 501 153 485 l 75 501 l 104 576 l 186 576 q 244 665 210 623 q 320 739 279 707 q 407 789 361 770 q 498 808 452 808 q 548 801 525 808 q 588 778 571 793 q 614 741 605 763 q 624 692 624 720 q 611 626 624 659 q 575 565 597 593 q 524 516 553 537 q 463 485 494 495 z "},"‹":{"ha":382,"x_min":43,"x_max":309,"o":"m 309 111 l 285 81 l 43 258 l 285 436 l 309 415 l 195 258 l 309 111 z "},"›":{"ha":382,"x_min":74,"x_max":339,"o":"m 339 258 l 97 81 l 74 111 l 187 258 l 74 415 l 97 436 l 339 258 z "},"‡":{"ha":542,"x_min":60,"x_max":482,"o":"m 482 244 l 469 196 l 342 196 l 342 -142 l 201 -193 l 201 196 l 60 196 l 74 244 l 201 244 l 201 633 l 60 633 l 74 682 l 201 682 l 201 971 l 342 1021 l 342 682 l 482 682 l 469 633 l 342 633 l 342 244 l 482 244 z "},"·":{"ha":290,"x_min":66,"x_max":224,"o":"m 224 496 q 217 466 224 479 q 200 441 211 452 q 175 424 189 430 q 144 418 161 418 q 114 424 128 418 q 90 441 100 430 q 73 466 79 452 q 66 496 66 479 q 73 527 66 512 q 90 552 79 541 q 114 569 100 562 q 144 575 128 575 q 175 569 161 575 q 200 552 189 562 q 217 527 211 541 q 224 496 224 512 z "},"‚":{"ha":298,"x_min":71,"x_max":228,"o":"m 228 52 q 219 1 228 25 q 195 -43 210 -22 q 160 -80 180 -63 q 118 -110 140 -97 l 93 -89 q 117 -60 106 -77 q 131 -25 127 -42 q 87 3 104 -18 q 71 52 71 24 q 77 82 71 68 q 94 107 83 96 q 118 124 104 118 q 149 131 132 131 q 179 124 165 131 q 204 107 194 118 q 221 82 215 96 q 228 52 228 68 z "},"„":{"ha":507,"x_min":71,"x_max":436,"o":"m 228 52 q 219 1 228 25 q 195 -43 210 -22 q 160 -80 180 -63 q 118 -110 140 -97 l 93 -89 q 117 -60 106 -77 q 131 -25 127 -42 q 87 3 104 -18 q 71 52 71 24 q 77 82 71 68 q 94 107 83 96 q 118 124 104 118 q 149 131 132 131 q 179 124 165 131 q 204 107 194 118 q 221 82 215 96 q 228 52 228 68 m 436 52 q 427 1 436 25 q 403 -43 418 -22 q 368 -80 388 -63 q 326 -110 348 -97 l 301 -89 q 325 -60 314 -77 q 339 -25 336 -42 q 296 3 313 -18 q 279 52 279 24 q 286 82 279 68 q 302 107 292 96 q 327 124 313 118 q 357 131 340 131 q 388 124 373 131 q 413 107 402 118 q 430 82 423 96 q 436 52 436 68 z "},"‰":{"ha":1435,"x_min":66,"x_max":1379,"o":"m 728 17 q 642 39 680 17 q 576 97 604 61 q 535 177 549 132 q 521 268 521 222 q 535 360 521 315 q 576 441 549 405 q 642 499 604 477 q 728 521 680 521 q 814 498 776 521 q 879 440 852 476 q 920 359 906 404 q 935 268 935 313 q 920 177 935 222 q 879 97 906 132 q 814 39 852 61 q 728 17 776 17 m 260 21 l 189 68 l 746 953 l 811 908 l 260 21 m 273 453 q 187 475 225 453 q 122 533 149 497 q 81 613 95 568 q 66 704 66 658 q 81 795 66 750 q 122 876 95 840 q 187 935 149 912 q 273 957 225 957 q 360 935 321 957 q 425 876 398 912 q 467 795 452 840 q 481 704 481 750 q 467 613 481 658 q 425 533 452 568 q 360 475 398 497 q 273 453 321 453 m 705 473 q 659 459 678 473 q 626 421 639 444 q 608 370 614 399 q 602 313 602 341 q 612 234 602 276 q 642 156 623 192 q 689 96 661 119 q 751 72 717 72 q 798 86 779 72 q 831 124 818 101 q 850 177 844 148 q 856 235 856 206 q 845 314 856 272 q 815 391 835 355 q 768 450 796 427 q 705 473 741 473 m 252 909 q 205 895 224 909 q 172 858 185 881 q 153 806 159 835 q 147 749 147 777 q 152 697 147 724 q 165 643 157 670 q 187 592 174 616 q 217 549 200 568 q 254 520 233 531 q 297 509 274 509 q 344 523 324 509 q 376 561 363 538 q 395 613 389 585 q 401 671 401 642 q 391 750 401 708 q 361 827 380 791 q 314 886 342 863 q 252 909 286 909 m 1173 17 q 1086 39 1124 17 q 1021 97 1048 61 q 979 177 994 132 q 965 268 965 222 q 979 360 965 315 q 1021 441 994 405 q 1086 499 1048 477 q 1173 521 1124 521 q 1258 498 1220 521 q 1324 440 1297 476 q 1365 359 1351 404 q 1379 268 1379 313 q 1365 177 1379 222 q 1324 97 1351 132 q 1258 39 1297 61 q 1173 17 1220 17 m 1150 473 q 1103 459 1123 473 q 1071 421 1084 444 q 1052 370 1058 399 q 1046 313 1046 341 q 1056 234 1046 276 q 1086 156 1067 192 q 1133 96 1105 119 q 1196 72 1161 72 q 1242 86 1223 72 q 1275 124 1262 101 q 1294 177 1288 148 q 1300 235 1300 206 q 1290 314 1300 272 q 1260 391 1279 355 q 1213 450 1240 427 q 1150 473 1185 473 z "},"ı":{"ha":315,"x_min":82,"x_max":304,"o":"m 304 79 q 268 28 289 46 q 229 3 248 11 q 183 -8 206 -7 q 134 1 153 -8 q 102 26 114 11 q 86 62 91 42 q 82 102 82 81 l 82 482 l 207 525 l 207 98 q 214 73 207 82 q 234 63 222 63 q 259 71 245 62 q 286 100 273 80 l 304 79 z "},"ˆ":{"ha":383,"x_min":0,"x_max":383,"o":"m 35 1025 l 0 1053 l 189 1264 l 383 1080 l 315 1008 l 150 1165 l 35 1025 z "},"˜":{"ha":298,"x_min":-2,"x_max":299,"o":"m 56 1025 l 29 1011 q 9 1042 15 1027 q 1 1072 3 1058 q 0 1101 -2 1087 q 26 1162 6 1138 q 87 1187 45 1185 q 125 1180 109 1188 q 156 1161 142 1173 q 181 1138 170 1150 q 203 1120 193 1126 q 224 1113 213 1112 q 243 1122 235 1114 q 253 1147 251 1131 q 248 1187 256 1163 l 273 1198 q 294 1155 290 1177 q 298 1117 299 1134 q 292 1079 298 1097 q 268 1041 282 1055 q 237 1021 254 1027 q 202 1018 220 1015 q 167 1032 184 1021 q 135 1059 149 1044 q 108 1084 121 1073 q 84 1100 96 1095 q 61 1099 73 1105 q 46 1082 51 1092 q 42 1059 42 1073 q 56 1025 43 1045 z "},"¯":{"ha":329,"x_min":0,"x_max":329,"o":"m 0 1029 l 49 1136 l 329 1136 l 282 1029 l 0 1029 z "},"˘":{"ha":289,"x_min":0,"x_max":289,"o":"m 54 1246 l 74 1231 q 59 1198 63 1216 q 54 1162 54 1180 q 59 1122 54 1144 q 75 1081 64 1100 q 102 1049 86 1062 q 140 1036 119 1036 q 188 1055 170 1036 q 205 1103 205 1074 q 193 1153 205 1128 q 161 1193 181 1177 l 250 1250 q 289 1147 289 1207 q 277 1085 289 1113 q 243 1036 264 1057 q 192 1005 222 1016 q 129 994 163 994 q 77 1003 101 994 q 36 1029 54 1013 q 9 1068 19 1045 q 0 1120 0 1091 q 4 1154 0 1136 q 15 1188 8 1171 q 32 1220 22 1204 q 54 1246 42 1235 z "},"˙":{"ha":127,"x_min":0,"x_max":127,"o":"m 64 1147 q 88 1142 77 1147 q 109 1128 100 1137 q 122 1108 117 1120 q 127 1083 127 1096 q 122 1059 127 1070 q 109 1038 117 1047 q 88 1024 100 1029 q 64 1019 77 1019 q 39 1024 50 1019 q 18 1038 27 1029 q 5 1059 9 1047 q 0 1083 0 1070 q 5 1108 0 1096 q 18 1128 9 1120 q 39 1142 27 1137 q 64 1147 50 1147 z "},"˚":{"ha":265,"x_min":0,"x_max":265,"o":"m 132 1284 q 184 1274 159 1284 q 226 1245 208 1263 q 255 1203 244 1227 q 265 1152 265 1179 q 255 1100 265 1124 q 226 1058 244 1076 q 184 1030 208 1040 q 132 1019 159 1019 q 81 1030 105 1019 q 39 1058 57 1040 q 11 1100 21 1076 q 0 1152 0 1124 q 11 1203 0 1179 q 39 1245 21 1227 q 81 1274 57 1263 q 132 1284 105 1284 m 171 1068 q 188 1084 181 1073 q 195 1109 194 1095 q 194 1141 197 1124 q 183 1175 191 1158 q 164 1206 175 1193 q 140 1228 153 1220 q 116 1239 128 1236 q 93 1236 103 1241 q 77 1221 83 1232 q 69 1195 71 1210 q 71 1163 68 1181 q 82 1129 74 1146 q 101 1098 90 1112 q 124 1076 112 1084 q 149 1066 136 1068 q 171 1068 161 1063 z "},"¸":{"ha":151,"x_min":0,"x_max":151,"o":"m 42 9 l 58 0 l 28 -49 q 48 -40 38 -43 q 66 -35 58 -37 q 85 -33 75 -33 q 109 -38 97 -33 q 130 -52 121 -43 q 145 -76 140 -61 q 151 -109 151 -90 q 143 -143 151 -128 q 124 -168 136 -157 q 97 -183 112 -178 q 69 -188 83 -188 q 43 -182 55 -187 q 20 -169 32 -178 q 0 -142 8 -160 l 16 -132 q 26 -144 20 -140 q 37 -150 32 -148 q 49 -153 43 -153 q 76 -140 64 -153 q 88 -109 88 -128 q 77 -79 88 -92 q 45 -66 65 -66 q 33 -67 39 -66 q 22 -70 27 -68 q 16 -75 17 -72 l 0 -62 l 42 9 z "},"˝":{"ha":418,"x_min":0,"x_max":418,"o":"m 17 1022 l 0 1046 l 158 1235 l 237 1146 l 17 1022 m 197 1022 l 180 1046 l 339 1235 l 418 1146 l 197 1022 z "},"˛":{"ha":158,"x_min":-4,"x_max":158,"o":"m 88 12 l 99 0 q 65 -49 73 -28 q 58 -83 57 -70 q 68 -111 58 -100 q 91 -125 79 -122 q 115 -124 101 -127 q 142 -102 128 -120 l 158 -115 q 131 -148 144 -136 q 108 -166 118 -159 q 85 -177 96 -174 q 52 -175 70 -180 q 21 -159 35 -171 q 1 -126 7 -146 q 5 -75 -4 -105 q 22 -46 12 -61 q 47 -18 32 -33 q 88 12 63 -2 z "},"ˇ":{"ha":383,"x_min":0,"x_max":383,"o":"m 383 1219 l 196 1008 l 0 1192 l 69 1264 l 235 1107 l 350 1247 l 383 1219 z "},"Š":{"ha":750,"x_min":53,"x_max":722,"o":"m 722 836 l 608 699 q 570 784 593 743 q 513 855 546 825 q 439 904 481 886 q 347 922 398 922 q 279 909 311 922 q 225 872 248 896 q 188 817 201 849 q 175 749 175 785 q 189 677 175 711 q 227 617 203 644 q 282 571 251 591 q 346 541 313 551 q 416 515 379 529 q 488 481 452 500 q 555 439 523 463 q 611 387 587 416 q 650 322 635 357 q 664 244 664 286 q 637 135 664 183 q 567 53 610 86 q 468 2 524 20 q 354 -16 412 -16 q 274 -4 315 -16 q 197 27 234 7 q 128 74 160 47 q 72 131 96 100 l 182 257 q 217 188 192 224 q 277 120 243 151 q 350 68 311 89 q 425 47 389 47 q 469 58 446 47 q 510 86 491 69 q 541 124 528 104 q 553 164 553 144 q 541 221 553 194 q 508 271 528 248 q 462 315 488 295 q 408 351 436 335 q 352 379 380 367 q 300 397 323 391 q 209 438 253 412 q 130 502 164 465 q 74 586 95 539 q 53 685 53 632 q 67 771 53 730 q 106 846 81 812 q 165 909 132 881 q 239 957 199 937 q 321 986 278 976 q 407 997 363 997 q 583 955 502 997 q 722 836 665 912 m 579 1249 l 392 1038 l 196 1221 l 265 1293 l 431 1136 l 546 1276 l 579 1249 z "},"š":{"ha":408,"x_min":4,"x_max":387,"o":"m 372 187 q 357 109 372 145 q 314 45 341 72 q 251 2 288 18 q 171 -14 214 -14 q 131 -10 153 -14 q 89 0 110 -7 q 49 17 68 7 q 18 41 31 27 l 98 146 q 118 118 106 133 q 145 90 130 102 q 176 68 159 77 q 210 60 193 60 q 247 66 229 60 q 277 86 264 73 q 297 115 290 98 q 304 153 304 132 q 286 202 304 180 q 242 247 267 225 q 189 291 216 268 q 144 340 161 313 l 74 237 l 47 257 l 129 370 q 114 411 119 389 q 109 454 109 433 q 115 493 109 473 q 132 530 121 513 q 160 558 144 547 q 199 570 177 570 q 234 557 220 570 q 249 521 249 544 q 245 496 249 509 q 235 472 241 484 q 221 449 229 460 q 207 428 214 437 q 242 388 223 405 q 279 356 261 371 q 315 326 298 341 q 344 292 332 311 q 365 248 357 273 q 372 187 372 223 m 218 509 q 212 523 218 518 q 197 528 205 528 q 181 520 186 528 q 176 503 176 512 q 181 476 176 489 q 192 452 185 463 q 199 464 195 456 q 208 480 203 471 q 215 496 212 488 q 218 509 218 504 m 387 813 l 200 602 l 4 785 l 73 858 l 239 701 l 354 841 l 387 813 z "},"Ý":{"ha":857,"x_min":-5,"x_max":728,"o":"m 728 36 q 714 -65 728 -19 q 674 -150 700 -111 q 610 -220 648 -189 q 524 -278 572 -252 q 495 -290 511 -285 q 463 -298 479 -294 q 429 -303 446 -301 q 399 -304 413 -304 q 295 -285 344 -304 q 204 -229 246 -265 l 318 -129 q 346 -171 328 -149 q 386 -211 363 -193 q 433 -241 408 -229 q 482 -253 458 -253 q 513 -248 499 -253 q 553 -220 538 -237 q 575 -181 568 -203 q 585 -134 583 -159 q 587 -86 587 -110 l 587 245 q 551 150 574 195 q 496 69 529 104 q 418 13 463 34 q 317 -8 374 -8 q 242 8 273 -8 q 191 52 211 24 q 161 114 170 79 q 151 189 151 150 l 151 818 q 149 845 151 831 q 139 869 146 859 q 122 886 133 880 q 96 893 111 893 q 52 880 73 893 q 17 848 31 866 l -5 868 q 20 906 5 888 q 55 939 35 924 q 96 961 74 953 q 140 970 117 970 q 206 956 178 970 q 254 917 235 941 q 282 862 273 893 q 292 796 292 831 l 292 240 q 292 185 292 215 q 300 129 293 155 q 326 85 308 103 q 379 68 345 68 q 448 91 418 68 q 502 151 478 114 q 541 235 525 188 q 568 328 557 281 q 583 417 578 375 q 587 489 587 460 l 587 932 l 728 982 l 728 36 m 433 1003 l 416 1027 l 574 1216 l 654 1127 l 433 1003 z "},"ý":{"ha":599,"x_min":8,"x_max":542,"o":"m 519 56 q 507 -40 519 7 q 474 -127 495 -86 q 423 -202 452 -168 q 360 -261 394 -237 q 288 -300 326 -286 q 211 -314 250 -314 q 156 -304 182 -314 q 107 -278 130 -294 l 183 -182 q 206 -199 193 -190 q 232 -215 218 -208 q 260 -226 245 -222 q 289 -231 275 -231 q 333 -215 315 -231 q 362 -175 351 -199 q 380 -120 374 -151 q 390 -58 387 -89 q 394 0 393 -28 q 395 45 395 27 l 395 318 q 380 261 389 294 q 358 190 372 227 q 328 117 345 153 q 290 52 311 81 q 242 4 269 22 q 186 -14 216 -14 q 139 0 155 -14 q 116 36 123 14 q 108 83 109 57 q 107 132 107 109 l 107 425 q 100 449 107 437 q 79 461 94 461 q 48 449 62 461 q 26 424 35 436 l 8 444 q 29 477 16 461 q 57 505 41 493 q 92 525 73 517 q 131 532 111 532 q 207 502 184 532 q 231 422 231 473 l 231 143 q 231 133 231 139 q 233 120 231 126 q 239 110 235 115 q 250 106 243 106 q 277 121 263 106 q 302 155 290 136 q 323 195 315 175 q 336 224 332 214 q 358 288 349 253 q 375 358 368 322 q 387 430 382 395 q 395 498 392 466 l 519 542 l 519 56 m 321 570 l 304 593 l 463 783 l 542 694 l 321 570 z "},"Ž":{"ha":786,"x_min":35,"x_max":757,"o":"m 757 985 q 648 822 699 899 q 548 674 597 746 q 452 532 500 602 q 355 391 405 463 q 252 243 305 319 q 138 82 199 167 q 179 111 159 98 q 220 135 199 125 q 264 151 241 145 q 315 157 287 157 q 381 151 348 157 q 446 139 414 145 q 512 126 479 132 q 578 121 545 121 q 623 128 601 121 q 665 148 645 136 q 702 176 685 160 q 733 210 719 192 l 757 192 l 623 -28 q 442 2 531 -12 q 262 31 353 17 q 228 36 245 34 q 193 37 211 37 q 121 27 155 37 q 56 -4 87 18 l 35 18 q 317 425 180 224 q 591 831 454 625 l 446 831 q 380 831 420 831 q 298 830 340 831 q 217 824 256 829 q 154 810 178 820 q 127 796 141 804 q 102 778 114 788 q 79 756 90 768 q 60 734 68 745 l 35 753 l 171 972 l 530 972 q 584 972 557 972 q 637 974 610 971 q 688 984 663 977 q 736 1007 713 991 l 757 985 m 587 1223 l 400 1013 l 204 1196 l 273 1268 l 439 1111 l 554 1251 l 587 1223 z "},"ž":{"ha":522,"x_min":22,"x_max":496,"o":"m 139 94 q 169 109 152 103 q 204 118 186 115 q 240 123 222 122 q 273 125 258 125 q 326 122 297 125 q 378 119 355 119 q 438 124 408 119 q 496 140 467 129 l 411 1 q 364 -7 389 -7 q 324 -3 345 -7 q 283 4 304 0 q 241 12 262 9 q 201 16 220 16 q 125 8 163 16 q 52 -12 88 0 l 22 4 l 361 424 q 319 411 341 416 q 277 402 300 406 q 228 399 254 399 q 198 400 212 399 q 170 402 184 401 q 139 405 155 404 q 104 406 123 406 q 81 404 94 406 q 58 400 69 402 q 33 395 46 397 l 119 525 q 159 524 140 525 q 196 521 178 522 q 233 518 214 519 q 273 517 252 517 q 371 522 322 517 q 465 541 419 527 l 482 518 l 139 94 m 450 767 l 262 556 l 66 739 l 136 812 l 301 654 l 416 795 l 450 767 z "},"ÿ":{"ha":599,"x_min":8,"x_max":519,"o":"m 519 56 q 507 -40 519 7 q 474 -127 495 -86 q 423 -202 452 -168 q 360 -261 394 -237 q 288 -300 326 -286 q 211 -314 250 -314 q 156 -304 182 -314 q 107 -278 130 -294 l 183 -182 q 206 -199 193 -190 q 232 -215 218 -208 q 260 -226 245 -222 q 289 -231 275 -231 q 333 -215 315 -231 q 362 -175 351 -199 q 380 -120 374 -151 q 390 -58 387 -89 q 394 0 393 -28 q 395 45 395 27 l 395 318 q 380 261 389 294 q 358 190 372 227 q 328 117 345 153 q 290 52 311 81 q 242 4 269 22 q 186 -14 216 -14 q 139 0 155 -14 q 116 36 123 14 q 108 83 109 57 q 107 132 107 109 l 107 425 q 100 449 107 437 q 79 461 94 461 q 48 449 62 461 q 26 424 35 436 l 8 444 q 29 477 16 461 q 57 505 41 493 q 92 525 73 517 q 131 532 111 532 q 207 502 184 532 q 231 422 231 473 l 231 143 q 231 133 231 139 q 233 120 231 126 q 239 110 235 115 q 250 106 243 106 q 277 121 263 106 q 302 155 290 136 q 323 195 315 175 q 336 224 332 214 q 358 288 349 253 q 375 358 368 322 q 387 430 382 395 q 395 498 392 466 l 519 542 l 519 56 m 163 708 q 188 703 176 708 q 208 689 199 698 q 222 668 217 680 q 227 644 227 656 q 222 619 227 631 q 208 599 217 608 q 188 585 199 590 q 163 580 176 580 q 138 585 150 580 q 118 599 127 590 q 104 619 109 608 q 100 644 100 631 q 104 668 100 656 q 118 689 109 680 q 138 703 127 698 q 163 708 150 708 m 365 708 q 389 703 378 708 q 409 689 401 698 q 422 668 418 680 q 427 644 427 656 q 422 619 427 631 q 409 599 418 608 q 389 585 401 590 q 365 580 378 580 q 340 585 351 580 q 319 599 328 590 q 306 619 311 608 q 301 644 301 631 q 306 668 301 656 q 319 689 311 680 q 340 703 328 698 q 365 708 351 708 z "},"Ÿ":{"ha":857,"x_min":-5,"x_max":728,"o":"m 728 36 q 714 -65 728 -19 q 674 -150 700 -111 q 610 -220 648 -189 q 524 -278 572 -252 q 495 -290 511 -285 q 463 -298 479 -294 q 429 -303 446 -301 q 399 -304 413 -304 q 295 -285 344 -304 q 204 -229 246 -265 l 318 -129 q 346 -171 328 -149 q 386 -211 363 -193 q 433 -241 408 -229 q 482 -253 458 -253 q 513 -248 499 -253 q 553 -220 538 -237 q 575 -181 568 -203 q 585 -134 583 -159 q 587 -86 587 -110 l 587 245 q 551 150 574 195 q 496 69 529 104 q 418 13 463 34 q 317 -8 374 -8 q 242 8 273 -8 q 191 52 211 24 q 161 114 170 79 q 151 189 151 150 l 151 818 q 149 845 151 831 q 139 869 146 859 q 122 886 133 880 q 96 893 111 893 q 52 880 73 893 q 17 848 31 866 l -5 868 q 20 906 5 888 q 55 939 35 924 q 96 961 74 953 q 140 970 117 970 q 206 956 178 970 q 254 917 235 941 q 282 862 273 893 q 292 796 292 831 l 292 240 q 292 185 292 215 q 300 129 293 155 q 326 85 308 103 q 379 68 345 68 q 448 91 418 68 q 502 151 478 114 q 541 235 525 188 q 568 328 557 281 q 583 417 578 375 q 587 489 587 460 l 587 932 l 728 982 l 728 36 m 309 1147 q 334 1142 322 1147 q 354 1128 345 1137 q 368 1107 363 1119 q 373 1082 373 1095 q 368 1058 373 1069 q 354 1038 363 1046 q 334 1024 345 1029 q 309 1019 322 1019 q 284 1024 296 1019 q 264 1038 273 1029 q 250 1058 255 1046 q 245 1082 245 1069 q 250 1107 245 1095 q 264 1128 255 1119 q 284 1142 273 1137 q 309 1147 296 1147 m 511 1147 q 535 1142 524 1147 q 555 1128 547 1137 q 568 1107 564 1119 q 573 1082 573 1095 q 568 1058 573 1069 q 555 1038 564 1046 q 535 1024 547 1029 q 511 1019 524 1019 q 486 1024 497 1019 q 465 1038 474 1029 q 452 1058 456 1046 q 447 1082 447 1069 q 452 1107 447 1095 q 465 1128 456 1119 q 486 1142 474 1137 q 511 1147 497 1147 z "},"À":{"ha":943,"x_min":57,"x_max":946,"o":"m 946 93 q 921 55 936 73 q 886 23 905 37 q 845 0 867 9 q 800 -8 823 -8 q 734 6 762 -8 q 687 44 706 20 q 658 100 667 68 q 648 165 648 131 l 648 428 q 627 335 639 385 q 597 236 614 285 q 555 141 579 186 q 499 61 532 96 q 426 5 467 26 q 332 -16 385 -16 q 216 9 267 -16 q 130 76 165 33 q 76 177 94 119 q 57 304 57 236 q 83 468 57 386 q 154 625 109 549 q 261 764 199 700 q 396 876 323 829 q 550 950 469 924 q 714 975 631 977 l 722 975 l 722 945 q 585 914 651 941 q 462 842 519 886 q 357 739 405 798 q 276 615 310 681 q 224 479 243 549 q 205 342 205 410 q 209 285 205 315 q 220 225 212 255 q 241 167 229 195 q 274 118 254 140 q 319 84 293 97 q 378 72 345 72 q 450 96 418 72 q 509 162 483 121 q 556 258 536 203 q 593 374 577 313 q 619 499 608 435 q 636 621 629 562 q 645 729 642 679 q 648 812 648 779 l 789 864 l 789 143 q 791 116 789 130 q 801 91 794 102 q 818 73 808 80 q 844 66 829 66 q 889 81 868 66 q 924 113 910 95 l 946 93 m 382 1140 l 461 1230 l 619 1041 l 602 1016 l 382 1140 z "},"Ã":{"ha":943,"x_min":57,"x_max":946,"o":"m 946 93 q 921 55 936 73 q 886 23 905 37 q 845 0 867 9 q 800 -8 823 -8 q 734 6 762 -8 q 687 44 706 20 q 658 100 667 68 q 648 165 648 131 l 648 428 q 627 335 639 385 q 597 236 614 285 q 555 141 579 186 q 499 61 532 96 q 426 5 467 26 q 332 -16 385 -16 q 216 9 267 -16 q 130 76 165 33 q 76 177 94 119 q 57 304 57 236 q 83 468 57 386 q 154 625 109 549 q 261 764 199 700 q 396 876 323 829 q 550 950 469 924 q 714 975 631 977 l 722 975 l 722 945 q 585 914 651 941 q 462 842 519 886 q 357 739 405 798 q 276 615 310 681 q 224 479 243 549 q 205 342 205 410 q 209 285 205 315 q 220 225 212 255 q 241 167 229 195 q 274 118 254 140 q 319 84 293 97 q 378 72 345 72 q 450 96 418 72 q 509 162 483 121 q 556 258 536 203 q 593 374 577 313 q 619 499 608 435 q 636 621 629 562 q 645 729 642 679 q 648 812 648 779 l 789 864 l 789 143 q 791 116 789 130 q 801 91 794 102 q 818 73 808 80 q 844 66 829 66 q 889 81 868 66 q 924 113 910 95 l 946 93 m 403 1027 l 376 1014 q 356 1045 362 1029 q 348 1074 350 1061 q 347 1104 345 1090 q 373 1164 353 1141 q 435 1190 393 1188 q 473 1183 456 1191 q 504 1164 490 1175 q 529 1141 517 1153 q 550 1122 540 1129 q 571 1116 560 1115 q 590 1125 583 1116 q 601 1149 598 1133 q 595 1190 603 1166 l 621 1201 q 642 1158 637 1179 q 646 1120 646 1137 q 639 1082 645 1099 q 615 1044 629 1058 q 584 1024 601 1029 q 549 1021 567 1018 q 514 1035 531 1023 q 482 1061 496 1047 q 455 1086 468 1076 q 432 1102 443 1097 q 408 1101 420 1107 q 393 1084 398 1095 q 390 1062 389 1076 q 403 1027 390 1048 z "},"Õ":{"ha":993,"x_min":58,"x_max":935,"o":"m 935 485 q 921 360 935 422 q 881 242 907 298 q 818 138 855 186 q 731 55 780 90 q 624 -1 682 19 q 497 -21 565 -21 q 371 -1 429 -21 q 263 55 312 19 q 176 138 214 90 q 112 242 138 186 q 72 360 85 298 q 58 485 58 422 q 72 609 58 547 q 112 727 85 671 q 176 831 138 783 q 263 915 214 880 q 371 970 312 950 q 497 990 429 990 q 624 970 565 990 q 731 915 682 950 q 818 831 780 880 q 881 727 855 783 q 921 609 907 671 q 935 485 935 547 m 436 921 q 358 906 392 921 q 297 864 323 890 q 252 804 271 838 q 222 732 234 770 q 205 654 211 694 q 200 579 200 615 q 208 466 200 526 q 234 347 216 406 q 280 236 252 289 q 349 142 309 182 q 440 77 389 101 q 558 53 492 53 q 636 68 602 53 q 696 110 670 83 q 741 170 723 136 q 771 243 760 205 q 789 320 783 281 q 794 396 794 360 q 786 509 794 450 q 760 627 778 569 q 714 739 742 686 q 646 832 686 792 q 554 897 606 873 q 436 921 502 921 m 397 1044 l 371 1031 q 351 1062 357 1046 q 342 1091 345 1078 q 342 1121 340 1107 q 368 1181 348 1158 q 429 1207 387 1205 q 467 1200 450 1208 q 498 1181 484 1192 q 523 1158 512 1170 q 545 1139 534 1146 q 566 1133 555 1132 q 585 1142 577 1133 q 595 1166 593 1150 q 589 1207 597 1183 l 615 1218 q 636 1175 631 1196 q 640 1137 641 1154 q 633 1099 640 1116 q 610 1061 624 1075 q 578 1041 595 1046 q 544 1038 562 1035 q 509 1052 526 1040 q 477 1078 491 1064 q 450 1103 463 1093 q 426 1119 437 1114 q 403 1118 415 1124 q 388 1101 393 1112 q 384 1079 384 1093 q 397 1044 385 1065 z "},"Â":{"ha":943,"x_min":57,"x_max":946,"o":"m 946 93 q 921 55 936 73 q 886 23 905 37 q 845 0 867 9 q 800 -8 823 -8 q 734 6 762 -8 q 687 44 706 20 q 658 100 667 68 q 648 165 648 131 l 648 428 q 627 335 639 385 q 597 236 614 285 q 555 141 579 186 q 499 61 532 96 q 426 5 467 26 q 332 -16 385 -16 q 216 9 267 -16 q 130 76 165 33 q 76 177 94 119 q 57 304 57 236 q 83 468 57 386 q 154 625 109 549 q 261 764 199 700 q 396 876 323 829 q 550 950 469 924 q 714 975 631 977 l 722 975 l 722 945 q 585 914 651 941 q 462 842 519 886 q 357 739 405 798 q 276 615 310 681 q 224 479 243 549 q 205 342 205 410 q 209 285 205 315 q 220 225 212 255 q 241 167 229 195 q 274 118 254 140 q 319 84 293 97 q 378 72 345 72 q 450 96 418 72 q 509 162 483 121 q 556 258 536 203 q 593 374 577 313 q 619 499 608 435 q 636 621 629 562 q 645 729 642 679 q 648 812 648 779 l 789 864 l 789 143 q 791 116 789 130 q 801 91 794 102 q 818 73 808 80 q 844 66 829 66 q 889 81 868 66 q 924 113 910 95 l 946 93 m 345 1037 l 310 1065 l 499 1276 l 693 1093 l 625 1021 l 460 1177 l 345 1037 z "},"Ê":{"ha":741,"x_min":49,"x_max":721,"o":"m 721 267 q 649 162 691 212 q 554 75 606 113 q 443 14 503 37 q 317 -8 382 -8 q 218 9 266 -8 q 132 57 170 26 q 72 132 94 88 q 49 229 49 176 q 70 327 49 281 q 124 409 91 372 q 200 475 158 446 q 286 525 243 505 q 231 547 256 530 q 190 588 207 564 q 164 641 173 612 q 155 700 155 670 q 170 778 155 741 q 211 847 185 815 q 270 904 236 878 q 341 947 304 929 q 419 974 379 964 q 496 983 458 983 q 597 961 551 983 q 679 897 644 939 l 581 825 q 550 862 566 845 q 514 892 533 880 q 472 912 494 905 q 425 920 450 920 q 364 908 394 920 q 310 877 334 897 q 272 829 286 857 q 257 768 257 802 q 272 704 257 734 q 311 653 287 675 q 367 619 336 631 q 432 607 399 607 q 503 619 470 607 l 513 591 q 403 546 458 574 q 305 480 349 519 q 235 391 262 441 q 208 275 208 340 q 219 206 208 238 q 251 151 230 174 q 301 113 271 127 q 370 100 332 100 q 458 116 409 100 q 553 158 507 132 q 639 218 600 184 q 697 288 677 252 l 721 267 m 283 1040 l 249 1068 l 438 1280 l 632 1096 l 564 1024 l 399 1181 l 283 1040 z "},"Á":{"ha":943,"x_min":57,"x_max":946,"o":"m 946 93 q 921 55 936 73 q 886 23 905 37 q 845 0 867 9 q 800 -8 823 -8 q 734 6 762 -8 q 687 44 706 20 q 658 100 667 68 q 648 165 648 131 l 648 428 q 627 335 639 385 q 597 236 614 285 q 555 141 579 186 q 499 61 532 96 q 426 5 467 26 q 332 -16 385 -16 q 216 9 267 -16 q 130 76 165 33 q 76 177 94 119 q 57 304 57 236 q 83 468 57 386 q 154 625 109 549 q 261 764 199 700 q 396 876 323 829 q 550 950 469 924 q 714 975 631 977 l 722 975 l 722 945 q 585 914 651 941 q 462 842 519 886 q 357 739 405 798 q 276 615 310 681 q 224 479 243 549 q 205 342 205 410 q 209 285 205 315 q 220 225 212 255 q 241 167 229 195 q 274 118 254 140 q 319 84 293 97 q 378 72 345 72 q 450 96 418 72 q 509 162 483 121 q 556 258 536 203 q 593 374 577 313 q 619 499 608 435 q 636 621 629 562 q 645 729 642 679 q 648 812 648 779 l 789 864 l 789 143 q 791 116 789 130 q 801 91 794 102 q 818 73 808 80 q 844 66 829 66 q 889 81 868 66 q 924 113 910 95 l 946 93 m 572 1016 l 555 1040 l 713 1229 l 793 1140 l 572 1016 z "},"Ë":{"ha":741,"x_min":49,"x_max":721,"o":"m 721 267 q 649 162 691 212 q 554 75 606 113 q 443 14 503 37 q 317 -8 382 -8 q 218 9 266 -8 q 132 57 170 26 q 72 132 94 88 q 49 229 49 176 q 70 327 49 281 q 124 409 91 372 q 200 475 158 446 q 286 525 243 505 q 231 547 256 530 q 190 588 207 564 q 164 641 173 612 q 155 700 155 670 q 170 778 155 741 q 211 847 185 815 q 270 904 236 878 q 341 947 304 929 q 419 974 379 964 q 496 983 458 983 q 597 961 551 983 q 679 897 644 939 l 581 825 q 550 862 566 845 q 514 892 533 880 q 472 912 494 905 q 425 920 450 920 q 364 908 394 920 q 310 877 334 897 q 272 829 286 857 q 257 768 257 802 q 272 704 257 734 q 311 653 287 675 q 367 619 336 631 q 432 607 399 607 q 503 619 470 607 l 513 591 q 403 546 458 574 q 305 480 349 519 q 235 391 262 441 q 208 275 208 340 q 219 206 208 238 q 251 151 230 174 q 301 113 271 127 q 370 100 332 100 q 458 116 409 100 q 553 158 507 132 q 639 218 600 184 q 697 288 677 252 l 721 267 m 301 1157 q 326 1152 314 1157 q 346 1138 337 1147 q 360 1117 355 1129 q 365 1093 365 1105 q 360 1068 365 1080 q 346 1048 355 1057 q 326 1034 337 1039 q 301 1029 314 1029 q 276 1034 288 1029 q 256 1048 264 1039 q 242 1068 247 1057 q 237 1093 237 1080 q 242 1117 237 1105 q 256 1138 247 1129 q 276 1152 264 1147 q 301 1157 288 1157 m 503 1157 q 527 1152 515 1157 q 547 1138 538 1147 q 560 1117 555 1129 q 565 1093 565 1105 q 560 1068 565 1080 q 547 1048 555 1057 q 527 1034 538 1039 q 503 1029 515 1029 q 477 1034 489 1029 q 457 1048 466 1039 q 444 1068 448 1057 q 439 1093 439 1080 q 444 1117 439 1105 q 457 1138 448 1129 q 477 1152 466 1147 q 503 1157 489 1157 z "},"È":{"ha":741,"x_min":49,"x_max":721,"o":"m 721 267 q 649 162 691 212 q 554 75 606 113 q 443 14 503 37 q 317 -8 382 -8 q 218 9 266 -8 q 132 57 170 26 q 72 132 94 88 q 49 229 49 176 q 70 327 49 281 q 124 409 91 372 q 200 475 158 446 q 286 525 243 505 q 231 547 256 530 q 190 588 207 564 q 164 641 173 612 q 155 700 155 670 q 170 778 155 741 q 211 847 185 815 q 270 904 236 878 q 341 947 304 929 q 419 974 379 964 q 496 983 458 983 q 597 961 551 983 q 679 897 644 939 l 581 825 q 550 862 566 845 q 514 892 533 880 q 472 912 494 905 q 425 920 450 920 q 364 908 394 920 q 310 877 334 897 q 272 829 286 857 q 257 768 257 802 q 272 704 257 734 q 311 653 287 675 q 367 619 336 631 q 432 607 399 607 q 503 619 470 607 l 513 591 q 403 546 458 574 q 305 480 349 519 q 235 391 262 441 q 208 275 208 340 q 219 206 208 238 q 251 151 230 174 q 301 113 271 127 q 370 100 332 100 q 458 116 409 100 q 553 158 507 132 q 639 218 600 184 q 697 288 677 252 l 721 267 m 189 1149 l 269 1239 l 427 1050 l 409 1025 l 189 1149 z "},"Í":{"ha":396,"x_min":127,"x_max":411,"o":"m 268 29 l 127 -21 l 127 950 l 268 1000 l 268 29 m 191 1025 l 174 1048 l 332 1238 l 411 1149 l 191 1025 z "},"Î":{"ha":396,"x_min":7,"x_max":390,"o":"m 268 29 l 127 -21 l 127 950 l 268 1000 l 268 29 m 41 1030 l 7 1058 l 196 1270 l 390 1086 l 322 1014 l 157 1171 l 41 1030 z "},"Ï":{"ha":396,"x_min":35,"x_max":362,"o":"m 268 29 l 127 -21 l 127 950 l 268 1000 l 268 29 m 98 1163 q 123 1158 111 1163 q 143 1144 134 1153 q 157 1123 152 1135 q 162 1099 162 1112 q 157 1074 162 1086 q 143 1054 152 1063 q 123 1040 134 1045 q 98 1035 111 1035 q 73 1040 85 1035 q 53 1054 62 1045 q 39 1074 44 1063 q 35 1099 35 1086 q 39 1123 35 1112 q 53 1144 44 1135 q 73 1158 62 1153 q 98 1163 85 1163 m 300 1163 q 324 1158 313 1163 q 344 1144 336 1153 q 357 1123 353 1135 q 362 1099 362 1112 q 357 1074 362 1086 q 344 1054 353 1063 q 324 1040 336 1045 q 300 1035 313 1035 q 275 1040 286 1035 q 254 1054 263 1045 q 241 1074 245 1063 q 236 1099 236 1086 q 241 1123 236 1112 q 254 1144 245 1135 q 275 1158 263 1153 q 300 1163 286 1163 z "},"Ì":{"ha":396,"x_min":-33,"x_max":268,"o":"m 268 29 l 127 -21 l 127 950 l 268 1000 l 268 29 m -33 1147 l 47 1237 l 205 1048 l 187 1023 l -33 1147 z "},"Ó":{"ha":993,"x_min":58,"x_max":935,"o":"m 935 485 q 921 360 935 422 q 881 242 907 298 q 818 138 855 186 q 731 55 780 90 q 624 -1 682 19 q 497 -21 565 -21 q 371 -1 429 -21 q 263 55 312 19 q 176 138 214 90 q 112 242 138 186 q 72 360 85 298 q 58 485 58 422 q 72 609 58 547 q 112 727 85 671 q 176 831 138 783 q 263 915 214 880 q 371 970 312 950 q 497 990 429 990 q 624 970 565 990 q 731 915 682 950 q 818 831 780 880 q 881 727 855 783 q 921 609 907 671 q 935 485 935 547 m 436 921 q 358 906 392 921 q 297 864 323 890 q 252 804 271 838 q 222 732 234 770 q 205 654 211 694 q 200 579 200 615 q 208 466 200 526 q 234 347 216 406 q 280 236 252 289 q 349 142 309 182 q 440 77 389 101 q 558 53 492 53 q 636 68 602 53 q 696 110 670 83 q 741 170 723 136 q 771 243 760 205 q 789 320 783 281 q 794 396 794 360 q 786 509 794 450 q 760 627 778 569 q 714 739 742 686 q 646 832 686 792 q 554 897 606 873 q 436 921 502 921 m 461 1031 l 444 1055 l 602 1244 l 682 1156 l 461 1031 z "},"Ô":{"ha":993,"x_min":58,"x_max":935,"o":"m 935 485 q 921 360 935 422 q 881 242 907 298 q 818 138 855 186 q 731 55 780 90 q 624 -1 682 19 q 497 -21 565 -21 q 371 -1 429 -21 q 263 55 312 19 q 176 138 214 90 q 112 242 138 186 q 72 360 85 298 q 58 485 58 422 q 72 609 58 547 q 112 727 85 671 q 176 831 138 783 q 263 915 214 880 q 371 970 312 950 q 497 990 429 990 q 624 970 565 990 q 731 915 682 950 q 818 831 780 880 q 881 727 855 783 q 921 609 907 671 q 935 485 935 547 m 436 921 q 358 906 392 921 q 297 864 323 890 q 252 804 271 838 q 222 732 234 770 q 205 654 211 694 q 200 579 200 615 q 208 466 200 526 q 234 347 216 406 q 280 236 252 289 q 349 142 309 182 q 440 77 389 101 q 558 53 492 53 q 636 68 602 53 q 696 110 670 83 q 741 170 723 136 q 771 243 760 205 q 789 320 783 281 q 794 396 794 360 q 786 509 794 450 q 760 627 778 569 q 714 739 742 686 q 646 832 686 792 q 554 897 606 873 q 436 921 502 921 m 339 1046 l 304 1074 l 494 1285 l 688 1101 l 620 1029 l 454 1186 l 339 1046 z "},"Ò":{"ha":993,"x_min":58,"x_max":935,"o":"m 935 485 q 921 360 935 422 q 881 242 907 298 q 818 138 855 186 q 731 55 780 90 q 624 -1 682 19 q 497 -21 565 -21 q 371 -1 429 -21 q 263 55 312 19 q 176 138 214 90 q 112 242 138 186 q 72 360 85 298 q 58 485 58 422 q 72 609 58 547 q 112 727 85 671 q 176 831 138 783 q 263 915 214 880 q 371 970 312 950 q 497 990 429 990 q 624 970 565 990 q 731 915 682 950 q 818 831 780 880 q 881 727 855 783 q 921 609 907 671 q 935 485 935 547 m 436 921 q 358 906 392 921 q 297 864 323 890 q 252 804 271 838 q 222 732 234 770 q 205 654 211 694 q 200 579 200 615 q 208 466 200 526 q 234 347 216 406 q 280 236 252 289 q 349 142 309 182 q 440 77 389 101 q 558 53 492 53 q 636 68 602 53 q 696 110 670 83 q 741 170 723 136 q 771 243 760 205 q 789 320 783 281 q 794 396 794 360 q 786 509 794 450 q 760 627 778 569 q 714 739 742 686 q 646 832 686 792 q 554 897 606 873 q 436 921 502 921 m 218 1160 l 298 1250 l 456 1061 l 438 1036 l 218 1160 z "},"Ú":{"ha":863,"x_min":115,"x_max":848,"o":"m 848 93 q 823 55 838 73 q 788 23 808 37 q 747 0 769 9 q 703 -8 726 -8 q 637 6 665 -8 q 589 44 608 20 q 561 100 570 68 q 551 165 551 131 l 551 245 q 515 149 538 195 q 460 66 493 102 q 382 8 427 30 q 281 -14 338 -14 q 206 2 237 -14 q 155 45 175 18 q 125 108 134 73 q 115 183 115 144 l 115 932 l 256 982 l 256 233 q 256 179 256 209 q 264 123 257 149 q 290 80 272 98 q 343 62 309 62 q 412 86 382 62 q 466 147 442 109 q 505 232 489 184 q 532 327 522 279 q 547 417 542 374 q 551 489 551 460 l 551 932 l 692 982 l 692 143 q 694 116 692 130 q 704 92 697 102 q 722 75 711 81 q 749 68 732 68 q 792 81 772 68 q 827 113 813 95 l 848 93 m 425 1027 l 408 1051 l 566 1240 l 646 1152 l 425 1027 z "},"Û":{"ha":863,"x_min":115,"x_max":848,"o":"m 848 93 q 823 55 838 73 q 788 23 808 37 q 747 0 769 9 q 703 -8 726 -8 q 637 6 665 -8 q 589 44 608 20 q 561 100 570 68 q 551 165 551 131 l 551 245 q 515 149 538 195 q 460 66 493 102 q 382 8 427 30 q 281 -14 338 -14 q 206 2 237 -14 q 155 45 175 18 q 125 108 134 73 q 115 183 115 144 l 115 932 l 256 982 l 256 233 q 256 179 256 209 q 264 123 257 149 q 290 80 272 98 q 343 62 309 62 q 412 86 382 62 q 466 147 442 109 q 505 232 489 184 q 532 327 522 279 q 547 417 542 374 q 551 489 551 460 l 551 932 l 692 982 l 692 143 q 694 116 692 130 q 704 92 697 102 q 722 75 711 81 q 749 68 732 68 q 792 81 772 68 q 827 113 813 95 l 848 93 m 260 1044 l 225 1072 l 414 1284 l 608 1100 l 541 1028 l 375 1185 l 260 1044 z "},"Ù":{"ha":863,"x_min":115,"x_max":848,"o":"m 848 93 q 823 55 838 73 q 788 23 808 37 q 747 0 769 9 q 703 -8 726 -8 q 637 6 665 -8 q 589 44 608 20 q 561 100 570 68 q 551 165 551 131 l 551 245 q 515 149 538 195 q 460 66 493 102 q 382 8 427 30 q 281 -14 338 -14 q 206 2 237 -14 q 155 45 175 18 q 125 108 134 73 q 115 183 115 144 l 115 932 l 256 982 l 256 233 q 256 179 256 209 q 264 123 257 149 q 290 80 272 98 q 343 62 309 62 q 412 86 382 62 q 466 147 442 109 q 505 232 489 184 q 532 327 522 279 q 547 417 542 374 q 551 489 551 460 l 551 932 l 692 982 l 692 143 q 694 116 692 130 q 704 92 697 102 q 722 75 711 81 q 749 68 732 68 q 792 81 772 68 q 827 113 813 95 l 848 93 m 164 1153 l 243 1243 l 401 1054 l 384 1029 l 164 1153 z "},"Ä":{"ha":943,"x_min":57,"x_max":946,"o":"m 946 93 q 921 55 936 73 q 886 23 905 37 q 845 0 867 9 q 800 -8 823 -8 q 734 6 762 -8 q 687 44 706 20 q 658 100 667 68 q 648 165 648 131 l 648 428 q 627 335 639 385 q 597 236 614 285 q 555 141 579 186 q 499 61 532 96 q 426 5 467 26 q 332 -16 385 -16 q 216 9 267 -16 q 130 76 165 33 q 76 177 94 119 q 57 304 57 236 q 83 468 57 386 q 154 625 109 549 q 261 764 199 700 q 396 876 323 829 q 550 950 469 924 q 714 975 631 977 l 722 975 l 722 945 q 585 914 651 941 q 462 842 519 886 q 357 739 405 798 q 276 615 310 681 q 224 479 243 549 q 205 342 205 410 q 209 285 205 315 q 220 225 212 255 q 241 167 229 195 q 274 118 254 140 q 319 84 293 97 q 378 72 345 72 q 450 96 418 72 q 509 162 483 121 q 556 258 536 203 q 593 374 577 313 q 619 499 608 435 q 636 621 629 562 q 645 729 642 679 q 648 812 648 779 l 789 864 l 789 143 q 791 116 789 130 q 801 91 794 102 q 818 73 808 80 q 844 66 829 66 q 889 81 868 66 q 924 113 910 95 l 946 93 m 401 1154 q 426 1149 414 1154 q 446 1135 437 1144 q 460 1115 455 1126 q 465 1090 465 1103 q 460 1065 465 1077 q 446 1045 455 1054 q 426 1031 437 1036 q 401 1026 414 1026 q 376 1031 388 1026 q 356 1045 365 1036 q 342 1065 347 1054 q 338 1090 338 1077 q 342 1115 338 1103 q 356 1135 347 1126 q 376 1149 365 1144 q 401 1154 388 1154 m 603 1154 q 627 1149 616 1154 q 647 1135 639 1144 q 661 1115 656 1126 q 665 1090 665 1103 q 661 1065 665 1077 q 647 1045 656 1054 q 627 1031 639 1036 q 603 1026 616 1026 q 578 1031 589 1026 q 557 1045 566 1036 q 544 1065 549 1054 q 539 1090 539 1077 q 544 1115 539 1103 q 557 1135 549 1126 q 578 1149 566 1144 q 603 1154 589 1154 z "},"Å":{"ha":943,"x_min":57,"x_max":946,"o":"m 946 93 q 921 55 936 73 q 886 23 905 37 q 845 0 867 9 q 800 -8 823 -8 q 734 6 762 -8 q 687 44 706 20 q 658 100 667 68 q 648 165 648 131 l 648 428 q 627 335 639 385 q 597 236 614 285 q 555 141 579 186 q 499 61 532 96 q 426 5 467 26 q 332 -16 385 -16 q 216 9 267 -16 q 130 76 165 33 q 76 177 94 119 q 57 304 57 236 q 83 468 57 386 q 154 625 109 549 q 261 764 199 700 q 396 876 323 829 q 550 950 469 924 q 714 975 631 977 l 722 975 l 722 945 q 585 914 651 941 q 462 842 519 886 q 357 739 405 798 q 276 615 310 681 q 224 479 243 549 q 205 342 205 410 q 209 285 205 315 q 220 225 212 255 q 241 167 229 195 q 274 118 254 140 q 319 84 293 97 q 378 72 345 72 q 450 96 418 72 q 509 162 483 121 q 556 258 536 203 q 593 374 577 313 q 619 499 608 435 q 636 621 629 562 q 645 729 642 679 q 648 812 648 779 l 789 864 l 789 143 q 791 116 789 130 q 801 91 794 102 q 818 73 808 80 q 844 66 829 66 q 889 81 868 66 q 924 113 910 95 l 946 93 m 500 1264 q 552 1254 528 1264 q 594 1225 576 1243 q 623 1183 612 1207 q 633 1131 633 1158 q 623 1080 633 1104 q 594 1038 612 1056 q 552 1009 576 1020 q 500 999 528 999 q 449 1009 473 999 q 407 1038 425 1020 q 379 1080 389 1056 q 368 1131 368 1104 q 379 1183 368 1158 q 407 1225 389 1207 q 449 1254 425 1243 q 500 1264 473 1264 m 539 1048 q 556 1063 549 1053 q 564 1089 562 1074 q 562 1120 565 1103 q 551 1155 559 1137 q 532 1186 543 1173 q 509 1208 521 1200 q 484 1218 496 1216 q 461 1216 471 1221 q 445 1200 451 1211 q 437 1175 439 1190 q 439 1143 436 1160 q 450 1109 442 1126 q 469 1078 458 1091 q 492 1056 480 1064 q 517 1045 505 1048 q 539 1048 529 1043 z "},"Ç":{"ha":835,"x_min":54,"x_max":793,"o":"m 793 807 q 772 705 793 755 q 718 610 752 654 q 639 534 684 567 q 546 488 594 502 l 532 511 q 584 548 560 526 q 625 598 608 570 q 651 658 642 627 q 660 722 660 690 q 649 793 660 760 q 617 851 638 826 q 565 890 596 876 q 494 904 534 904 q 405 885 446 904 q 332 834 364 866 q 275 760 299 802 q 235 672 251 718 q 211 580 219 627 q 203 492 203 533 q 212 405 203 450 q 237 317 220 360 q 279 235 254 273 q 337 167 304 196 q 411 120 370 138 q 498 103 451 103 q 562 112 531 103 q 621 136 593 121 q 675 171 650 151 q 722 215 701 191 l 745 193 q 677 120 716 155 q 592 57 637 85 q 496 12 546 29 q 396 -8 446 -5 l 366 -61 q 389 -50 377 -54 q 412 -44 401 -46 q 435 -41 424 -41 q 465 -47 450 -41 q 491 -65 479 -53 q 511 -94 503 -77 q 518 -136 518 -112 q 509 -178 518 -160 q 484 -209 499 -197 q 450 -228 469 -222 q 415 -235 432 -235 q 382 -228 399 -235 q 354 -211 369 -222 q 329 -178 339 -199 l 349 -164 q 362 -179 355 -174 q 376 -187 370 -184 q 390 -191 383 -190 q 424 -175 409 -191 q 439 -136 439 -160 q 424 -98 439 -115 q 386 -82 410 -82 q 369 -83 376 -82 q 356 -87 362 -85 q 349 -94 351 -90 l 329 -78 l 371 -7 q 281 14 323 -5 q 203 62 239 32 q 140 131 168 92 q 94 214 113 170 q 64 304 75 258 q 54 395 54 351 q 76 530 54 460 q 137 665 98 600 q 228 789 176 730 q 341 890 281 847 q 468 959 402 934 q 600 985 534 985 q 676 973 641 985 q 737 939 711 961 q 778 883 763 916 q 793 807 793 850 z "},"É":{"ha":741,"x_min":49,"x_max":721,"o":"m 721 267 q 649 162 691 212 q 554 75 606 113 q 443 14 503 37 q 317 -8 382 -8 q 218 9 266 -8 q 132 57 170 26 q 72 132 94 88 q 49 229 49 176 q 70 327 49 281 q 124 409 91 372 q 200 475 158 446 q 286 525 243 505 q 231 547 256 530 q 190 588 207 564 q 164 641 173 612 q 155 700 155 670 q 170 778 155 741 q 211 847 185 815 q 270 904 236 878 q 341 947 304 929 q 419 974 379 964 q 496 983 458 983 q 597 961 551 983 q 679 897 644 939 l 581 825 q 550 862 566 845 q 514 892 533 880 q 472 912 494 905 q 425 920 450 920 q 364 908 394 920 q 310 877 334 897 q 272 829 286 857 q 257 768 257 802 q 272 704 257 734 q 311 653 287 675 q 367 619 336 631 q 432 607 399 607 q 503 619 470 607 l 513 591 q 403 546 458 574 q 305 480 349 519 q 235 391 262 441 q 208 275 208 340 q 219 206 208 238 q 251 151 230 174 q 301 113 271 127 q 370 100 332 100 q 458 116 409 100 q 553 158 507 132 q 639 218 600 184 q 697 288 677 252 l 721 267 m 403 1020 l 386 1044 l 544 1233 l 623 1144 l 403 1020 z "},"Ñ":{"ha":857,"x_min":127,"x_max":861,"o":"m 861 93 q 836 55 851 73 q 801 23 821 37 q 760 0 782 9 q 715 -8 739 -8 q 649 6 677 -8 q 602 44 621 20 q 573 100 583 68 q 564 165 564 131 l 564 751 q 564 787 564 768 q 562 825 564 806 q 555 862 560 844 q 541 893 551 880 q 516 914 532 906 q 478 922 501 922 q 409 899 439 922 q 355 839 378 876 q 315 756 332 802 q 288 663 298 709 q 273 573 277 616 q 268 501 268 530 l 268 32 l 127 -20 l 127 951 l 268 1002 l 268 746 q 304 841 281 795 q 360 922 327 887 q 437 978 393 958 q 539 999 481 999 q 614 983 583 999 q 665 940 645 967 q 694 877 685 913 q 704 802 704 841 l 704 143 q 707 116 704 130 q 716 91 710 102 q 734 73 723 80 q 761 66 745 66 q 805 81 784 66 q 839 113 825 95 l 861 93 m 396 1046 l 370 1032 q 349 1063 355 1048 q 341 1093 343 1079 q 340 1122 338 1108 q 366 1183 347 1159 q 428 1208 386 1206 q 466 1201 449 1209 q 497 1182 483 1194 q 522 1159 511 1171 q 543 1141 533 1147 q 565 1134 553 1133 q 584 1143 576 1135 q 594 1168 591 1152 q 588 1208 596 1184 l 614 1219 q 635 1176 630 1198 q 639 1138 640 1155 q 632 1100 638 1118 q 608 1062 623 1076 q 577 1042 594 1048 q 542 1039 560 1036 q 507 1053 524 1042 q 475 1080 490 1065 q 449 1105 461 1094 q 425 1121 436 1116 q 401 1120 414 1126 q 387 1103 391 1113 q 383 1080 382 1094 q 396 1046 383 1066 z "},"Ö":{"ha":993,"x_min":58,"x_max":935,"o":"m 935 485 q 921 360 935 422 q 881 242 907 298 q 818 138 855 186 q 731 55 780 90 q 624 -1 682 19 q 497 -21 565 -21 q 371 -1 429 -21 q 263 55 312 19 q 176 138 214 90 q 112 242 138 186 q 72 360 85 298 q 58 485 58 422 q 72 609 58 547 q 112 727 85 671 q 176 831 138 783 q 263 915 214 880 q 371 970 312 950 q 497 990 429 990 q 624 970 565 990 q 731 915 682 950 q 818 831 780 880 q 881 727 855 783 q 921 609 907 671 q 935 485 935 547 m 436 921 q 358 906 392 921 q 297 864 323 890 q 252 804 271 838 q 222 732 234 770 q 205 654 211 694 q 200 579 200 615 q 208 466 200 526 q 234 347 216 406 q 280 236 252 289 q 349 142 309 182 q 440 77 389 101 q 558 53 492 53 q 636 68 602 53 q 696 110 670 83 q 741 170 723 136 q 771 243 760 205 q 789 320 783 281 q 794 396 794 360 q 786 509 794 450 q 760 627 778 569 q 714 739 742 686 q 646 832 686 792 q 554 897 606 873 q 436 921 502 921 m 395 1154 q 420 1149 408 1154 q 440 1135 431 1144 q 454 1115 449 1126 q 459 1090 459 1103 q 454 1065 459 1077 q 440 1045 449 1054 q 420 1031 431 1036 q 395 1026 408 1026 q 370 1031 382 1026 q 350 1045 359 1036 q 336 1065 341 1054 q 332 1090 332 1077 q 336 1115 332 1103 q 350 1135 341 1126 q 370 1149 359 1144 q 395 1154 382 1154 m 597 1154 q 621 1149 610 1154 q 641 1135 633 1144 q 654 1115 650 1126 q 659 1090 659 1103 q 654 1065 659 1077 q 641 1045 650 1054 q 621 1031 633 1036 q 597 1026 610 1026 q 572 1031 583 1026 q 551 1045 560 1036 q 538 1065 543 1054 q 533 1090 533 1077 q 538 1115 533 1103 q 551 1135 543 1126 q 572 1149 560 1144 q 597 1154 583 1154 z "},"Ü":{"ha":863,"x_min":115,"x_max":848,"o":"m 848 93 q 823 55 838 73 q 788 23 808 37 q 747 0 769 9 q 703 -8 726 -8 q 637 6 665 -8 q 589 44 608 20 q 561 100 570 68 q 551 165 551 131 l 551 245 q 515 149 538 195 q 460 66 493 102 q 382 8 427 30 q 281 -14 338 -14 q 206 2 237 -14 q 155 45 175 18 q 125 108 134 73 q 115 183 115 144 l 115 932 l 256 982 l 256 233 q 256 179 256 209 q 264 123 257 149 q 290 80 272 98 q 343 62 309 62 q 412 86 382 62 q 466 147 442 109 q 505 232 489 184 q 532 327 522 279 q 547 417 542 374 q 551 489 551 460 l 551 932 l 692 982 l 692 143 q 694 116 692 130 q 704 92 697 102 q 722 75 711 81 q 749 68 732 68 q 792 81 772 68 q 827 113 813 95 l 848 93 m 315 1152 q 340 1146 328 1152 q 360 1133 351 1141 q 374 1112 369 1124 q 379 1087 379 1100 q 374 1063 379 1074 q 360 1042 369 1051 q 340 1028 351 1034 q 315 1023 328 1023 q 290 1028 302 1023 q 270 1042 279 1034 q 256 1063 261 1051 q 252 1087 252 1074 q 256 1112 252 1100 q 270 1133 261 1124 q 290 1146 279 1141 q 315 1152 302 1152 m 517 1152 q 541 1146 530 1152 q 561 1133 553 1141 q 574 1112 570 1124 q 579 1087 579 1100 q 574 1063 579 1074 q 561 1042 570 1051 q 541 1028 553 1034 q 517 1023 530 1023 q 492 1028 503 1023 q 471 1042 480 1034 q 458 1063 463 1051 q 453 1087 453 1074 q 458 1112 453 1100 q 471 1133 463 1124 q 492 1146 480 1141 q 517 1152 503 1152 z "},"á":{"ha":607,"x_min":43,"x_max":604,"o":"m 604 81 q 584 47 596 63 q 556 20 572 32 q 521 0 540 7 q 482 -7 503 -7 q 405 23 429 -7 q 382 103 382 52 l 382 115 q 354 69 370 92 q 320 28 339 46 q 277 -2 300 9 q 224 -14 253 -14 q 146 3 180 -14 q 89 49 112 20 q 54 117 66 78 q 43 199 43 155 q 63 316 43 258 q 122 421 84 375 q 212 496 159 467 q 329 525 264 525 q 380 520 355 525 q 430 505 406 515 q 472 477 453 494 q 504 436 492 460 l 403 393 q 384 418 395 406 q 361 439 374 430 q 334 453 349 448 q 304 458 320 458 q 242 437 269 458 q 195 383 214 415 q 165 315 176 351 q 155 250 155 279 q 160 192 155 224 q 178 132 165 160 q 212 83 191 103 q 265 64 233 64 q 309 75 290 64 q 340 104 327 86 q 361 145 353 122 q 374 193 370 169 q 380 242 378 218 q 382 285 382 266 l 382 332 l 505 375 l 505 100 q 512 75 505 86 q 533 64 519 64 q 564 76 550 64 q 586 102 578 89 l 604 81 m 304 568 l 288 592 l 446 781 l 525 692 l 304 568 z "},"à":{"ha":607,"x_min":43,"x_max":604,"o":"m 604 81 q 584 47 596 63 q 556 20 572 32 q 521 0 540 7 q 482 -7 503 -7 q 405 23 429 -7 q 382 103 382 52 l 382 115 q 354 69 370 92 q 320 28 339 46 q 277 -2 300 9 q 224 -14 253 -14 q 146 3 180 -14 q 89 49 112 20 q 54 117 66 78 q 43 199 43 155 q 63 316 43 258 q 122 421 84 375 q 212 496 159 467 q 329 525 264 525 q 380 520 355 525 q 430 505 406 515 q 472 477 453 494 q 504 436 492 460 l 403 393 q 384 418 395 406 q 361 439 374 430 q 334 453 349 448 q 304 458 320 458 q 242 437 269 458 q 195 383 214 415 q 165 315 176 351 q 155 250 155 279 q 160 192 155 224 q 178 132 165 160 q 212 83 191 103 q 265 64 233 64 q 309 75 290 64 q 340 104 327 86 q 361 145 353 122 q 374 193 370 169 q 380 242 378 218 q 382 285 382 266 l 382 332 l 505 375 l 505 100 q 512 75 505 86 q 533 64 519 64 q 564 76 550 64 q 586 102 578 89 l 604 81 m 74 699 l 153 789 l 311 600 l 294 575 l 74 699 z "},"â":{"ha":607,"x_min":43,"x_max":604,"o":"m 604 81 q 584 47 596 63 q 556 20 572 32 q 521 0 540 7 q 482 -7 503 -7 q 405 23 429 -7 q 382 103 382 52 l 382 115 q 354 69 370 92 q 320 28 339 46 q 277 -2 300 9 q 224 -14 253 -14 q 146 3 180 -14 q 89 49 112 20 q 54 117 66 78 q 43 199 43 155 q 63 316 43 258 q 122 421 84 375 q 212 496 159 467 q 329 525 264 525 q 380 520 355 525 q 430 505 406 515 q 472 477 453 494 q 504 436 492 460 l 403 393 q 384 418 395 406 q 361 439 374 430 q 334 453 349 448 q 304 458 320 458 q 242 437 269 458 q 195 383 214 415 q 165 315 176 351 q 155 250 155 279 q 160 192 155 224 q 178 132 165 160 q 212 83 191 103 q 265 64 233 64 q 309 75 290 64 q 340 104 327 86 q 361 145 353 122 q 374 193 370 169 q 380 242 378 218 q 382 285 382 266 l 382 332 l 505 375 l 505 100 q 512 75 505 86 q 533 64 519 64 q 564 76 550 64 q 586 102 578 89 l 604 81 m 144 564 l 110 592 l 299 804 l 493 620 l 425 548 l 260 705 l 144 564 z "},"ä":{"ha":607,"x_min":43,"x_max":604,"o":"m 604 81 q 584 47 596 63 q 556 20 572 32 q 521 0 540 7 q 482 -7 503 -7 q 405 23 429 -7 q 382 103 382 52 l 382 115 q 354 69 370 92 q 320 28 339 46 q 277 -2 300 9 q 224 -14 253 -14 q 146 3 180 -14 q 89 49 112 20 q 54 117 66 78 q 43 199 43 155 q 63 316 43 258 q 122 421 84 375 q 212 496 159 467 q 329 525 264 525 q 380 520 355 525 q 430 505 406 515 q 472 477 453 494 q 504 436 492 460 l 403 393 q 384 418 395 406 q 361 439 374 430 q 334 453 349 448 q 304 458 320 458 q 242 437 269 458 q 195 383 214 415 q 165 315 176 351 q 155 250 155 279 q 160 192 155 224 q 178 132 165 160 q 212 83 191 103 q 265 64 233 64 q 309 75 290 64 q 340 104 327 86 q 361 145 353 122 q 374 193 370 169 q 380 242 378 218 q 382 285 382 266 l 382 332 l 505 375 l 505 100 q 512 75 505 86 q 533 64 519 64 q 564 76 550 64 q 586 102 578 89 l 604 81 m 196 686 q 220 681 209 686 q 241 667 232 675 q 255 646 250 658 q 260 621 260 634 q 255 597 260 608 q 241 576 250 585 q 220 563 232 568 q 196 557 209 557 q 171 563 182 557 q 151 576 159 568 q 137 597 142 585 q 132 621 132 608 q 137 646 132 634 q 151 667 142 658 q 171 681 159 675 q 196 686 182 686 m 397 686 q 422 681 410 686 q 442 667 433 675 q 455 646 450 658 q 460 621 460 634 q 455 597 460 608 q 442 576 450 585 q 422 563 433 568 q 397 557 410 557 q 372 563 384 557 q 352 576 361 568 q 338 597 343 585 q 334 621 334 608 q 338 646 334 634 q 352 667 343 658 q 372 681 361 675 q 397 686 384 686 z "},"ã":{"ha":607,"x_min":43,"x_max":604,"o":"m 604 81 q 584 47 596 63 q 556 20 572 32 q 521 0 540 7 q 482 -7 503 -7 q 405 23 429 -7 q 382 103 382 52 l 382 115 q 354 69 370 92 q 320 28 339 46 q 277 -2 300 9 q 224 -14 253 -14 q 146 3 180 -14 q 89 49 112 20 q 54 117 66 78 q 43 199 43 155 q 63 316 43 258 q 122 421 84 375 q 212 496 159 467 q 329 525 264 525 q 380 520 355 525 q 430 505 406 515 q 472 477 453 494 q 504 436 492 460 l 403 393 q 384 418 395 406 q 361 439 374 430 q 334 453 349 448 q 304 458 320 458 q 242 437 269 458 q 195 383 214 415 q 165 315 176 351 q 155 250 155 279 q 160 192 155 224 q 178 132 165 160 q 212 83 191 103 q 265 64 233 64 q 309 75 290 64 q 340 104 327 86 q 361 145 353 122 q 374 193 370 169 q 380 242 378 218 q 382 285 382 266 l 382 332 l 505 375 l 505 100 q 512 75 505 86 q 533 64 519 64 q 564 76 550 64 q 586 102 578 89 l 604 81 m 199 583 l 172 569 q 152 600 158 585 q 144 629 146 616 q 143 659 141 645 q 169 720 149 696 q 231 745 189 743 q 269 738 252 746 q 299 719 286 730 q 325 696 313 708 q 346 677 336 684 q 367 671 356 670 q 386 680 378 671 q 396 705 394 688 q 391 745 399 721 l 416 756 q 437 713 433 734 q 441 675 442 692 q 435 637 441 654 q 411 599 425 613 q 380 579 397 585 q 345 576 363 573 q 310 590 327 578 q 278 616 292 602 q 251 642 264 631 q 228 657 239 652 q 204 656 216 663 q 189 640 194 650 q 185 617 185 631 q 199 583 186 603 z "},"å":{"ha":607,"x_min":43,"x_max":604,"o":"m 604 81 q 584 47 596 63 q 556 20 572 32 q 521 0 540 7 q 482 -7 503 -7 q 405 23 429 -7 q 382 103 382 52 l 382 115 q 354 69 370 92 q 320 28 339 46 q 277 -2 300 9 q 224 -14 253 -14 q 146 3 180 -14 q 89 49 112 20 q 54 117 66 78 q 43 199 43 155 q 63 316 43 258 q 122 421 84 375 q 212 496 159 467 q 329 525 264 525 q 380 520 355 525 q 430 505 406 515 q 472 477 453 494 q 504 436 492 460 l 403 393 q 384 418 395 406 q 361 439 374 430 q 334 453 349 448 q 304 458 320 458 q 242 437 269 458 q 195 383 214 415 q 165 315 176 351 q 155 250 155 279 q 160 192 155 224 q 178 132 165 160 q 212 83 191 103 q 265 64 233 64 q 309 75 290 64 q 340 104 327 86 q 361 145 353 122 q 374 193 370 169 q 380 242 378 218 q 382 285 382 266 l 382 332 l 505 375 l 505 100 q 512 75 505 86 q 533 64 519 64 q 564 76 550 64 q 586 102 578 89 l 604 81 m 290 832 q 342 822 317 832 q 384 793 366 811 q 413 751 402 775 q 423 699 423 726 q 413 648 423 672 q 384 606 402 624 q 342 577 366 588 q 290 567 317 567 q 239 577 263 567 q 197 606 215 588 q 169 648 179 624 q 158 699 158 672 q 169 751 158 726 q 197 793 179 775 q 239 822 215 811 q 290 832 263 832 m 329 616 q 346 631 339 621 q 353 657 352 642 q 352 688 355 671 q 341 723 349 705 q 322 754 333 741 q 298 776 311 768 q 274 786 286 784 q 251 784 261 789 q 235 768 241 779 q 227 743 229 758 q 229 711 226 728 q 240 677 232 694 q 259 646 248 659 q 282 624 270 632 q 307 613 294 616 q 329 616 319 611 z "},"ç":{"ha":549,"x_min":43,"x_max":530,"o":"m 530 147 q 478 88 507 117 q 417 37 450 59 q 348 0 385 14 q 272 -14 311 -14 q 264 -13 268 -14 q 256 -12 260 -12 l 228 -61 q 252 -50 239 -54 q 274 -44 264 -46 q 297 -41 286 -41 q 327 -47 312 -41 q 354 -65 342 -53 q 373 -94 366 -77 q 380 -136 380 -112 q 371 -178 380 -160 q 347 -209 361 -197 q 313 -228 332 -222 q 278 -235 295 -235 q 245 -228 262 -235 q 217 -211 232 -222 q 192 -178 202 -199 l 211 -164 q 224 -179 217 -174 q 238 -187 232 -184 q 253 -191 245 -190 q 287 -175 272 -191 q 301 -136 301 -160 q 287 -98 301 -115 q 249 -82 273 -82 q 232 -83 239 -82 q 219 -87 225 -85 q 211 -94 213 -90 l 192 -78 l 231 -9 q 154 17 189 -3 q 95 68 120 37 q 56 142 70 100 q 43 236 43 185 q 67 349 43 296 q 131 443 91 403 q 225 507 172 484 q 338 530 279 530 q 384 526 361 530 q 429 512 408 522 q 468 488 450 503 q 498 452 486 473 l 401 399 q 382 427 395 415 q 354 448 370 439 q 321 460 338 456 q 288 464 304 464 q 229 449 255 464 q 185 411 203 435 q 158 358 168 388 q 149 298 149 329 q 163 195 149 240 q 202 120 177 151 q 261 74 227 90 q 335 58 295 58 q 382 70 358 58 q 430 99 407 81 q 473 136 452 116 q 510 171 494 155 l 530 147 z "},"é":{"ha":551,"x_min":40,"x_max":528,"o":"m 528 132 q 476 75 504 102 q 415 29 448 49 q 345 -2 382 9 q 269 -14 309 -14 q 177 4 219 -14 q 104 54 135 22 q 57 129 74 85 q 40 221 40 172 q 52 301 40 262 q 84 375 63 340 q 134 439 105 410 q 197 490 163 469 q 271 523 232 511 q 350 534 309 534 q 404 528 378 534 q 449 506 429 521 q 480 469 469 492 q 492 415 492 446 q 476 361 492 389 q 436 304 461 332 q 380 248 412 275 q 317 197 349 220 q 255 156 285 174 q 203 129 225 138 q 261 78 228 98 q 332 58 294 58 q 380 67 355 58 q 427 91 404 77 q 470 122 450 105 q 507 154 491 139 l 528 132 m 364 390 q 359 420 364 406 q 345 445 354 434 q 322 461 335 455 q 292 468 309 468 q 235 447 261 468 q 191 394 210 425 q 162 328 172 363 q 151 267 151 293 q 159 214 151 241 q 182 161 168 186 q 241 203 209 176 q 300 261 273 229 q 346 326 328 292 q 364 390 364 360 m 281 576 l 264 600 l 422 789 l 501 700 l 281 576 z "},"è":{"ha":551,"x_min":40,"x_max":528,"o":"m 528 132 q 476 75 504 102 q 415 29 448 49 q 345 -2 382 9 q 269 -14 309 -14 q 177 4 219 -14 q 104 54 135 22 q 57 129 74 85 q 40 221 40 172 q 52 301 40 262 q 84 375 63 340 q 134 439 105 410 q 197 490 163 469 q 271 523 232 511 q 350 534 309 534 q 404 528 378 534 q 449 506 429 521 q 480 469 469 492 q 492 415 492 446 q 476 361 492 389 q 436 304 461 332 q 380 248 412 275 q 317 197 349 220 q 255 156 285 174 q 203 129 225 138 q 261 78 228 98 q 332 58 294 58 q 380 67 355 58 q 427 91 404 77 q 470 122 450 105 q 507 154 491 139 l 528 132 m 364 390 q 359 420 364 406 q 345 445 354 434 q 322 461 335 455 q 292 468 309 468 q 235 447 261 468 q 191 394 210 425 q 162 328 172 363 q 151 267 151 293 q 159 214 151 241 q 182 161 168 186 q 241 203 209 176 q 300 261 273 229 q 346 326 328 292 q 364 390 364 360 m 47 684 l 127 774 l 285 585 l 267 560 l 47 684 z "},"ê":{"ha":551,"x_min":40,"x_max":528,"o":"m 528 132 q 476 75 504 102 q 415 29 448 49 q 345 -2 382 9 q 269 -14 309 -14 q 177 4 219 -14 q 104 54 135 22 q 57 129 74 85 q 40 221 40 172 q 52 301 40 262 q 84 375 63 340 q 134 439 105 410 q 197 490 163 469 q 271 523 232 511 q 350 534 309 534 q 404 528 378 534 q 449 506 429 521 q 480 469 469 492 q 492 415 492 446 q 476 361 492 389 q 436 304 461 332 q 380 248 412 275 q 317 197 349 220 q 255 156 285 174 q 203 129 225 138 q 261 78 228 98 q 332 58 294 58 q 380 67 355 58 q 427 91 404 77 q 470 122 450 105 q 507 154 491 139 l 528 132 m 364 390 q 359 420 364 406 q 345 445 354 434 q 322 461 335 455 q 292 468 309 468 q 235 447 261 468 q 191 394 210 425 q 162 328 172 363 q 151 267 151 293 q 159 214 151 241 q 182 161 168 186 q 241 203 209 176 q 300 261 273 229 q 346 326 328 292 q 364 390 364 360 m 126 583 l 92 610 l 281 822 l 475 638 l 407 566 l 241 723 l 126 583 z "},"ë":{"ha":551,"x_min":40,"x_max":528,"o":"m 528 132 q 476 75 504 102 q 415 29 448 49 q 345 -2 382 9 q 269 -14 309 -14 q 177 4 219 -14 q 104 54 135 22 q 57 129 74 85 q 40 221 40 172 q 52 301 40 262 q 84 375 63 340 q 134 439 105 410 q 197 490 163 469 q 271 523 232 511 q 350 534 309 534 q 404 528 378 534 q 449 506 429 521 q 480 469 469 492 q 492 415 492 446 q 476 361 492 389 q 436 304 461 332 q 380 248 412 275 q 317 197 349 220 q 255 156 285 174 q 203 129 225 138 q 261 78 228 98 q 332 58 294 58 q 380 67 355 58 q 427 91 404 77 q 470 122 450 105 q 507 154 491 139 l 528 132 m 364 390 q 359 420 364 406 q 345 445 354 434 q 322 461 335 455 q 292 468 309 468 q 235 447 261 468 q 191 394 210 425 q 162 328 172 363 q 151 267 151 293 q 159 214 151 241 q 182 161 168 186 q 241 203 209 176 q 300 261 273 229 q 346 326 328 292 q 364 390 364 360 m 183 704 q 208 699 196 704 q 228 685 219 694 q 242 664 237 676 q 247 640 247 652 q 242 615 247 627 q 228 595 237 604 q 208 581 219 586 q 183 576 196 576 q 158 581 170 576 q 138 595 146 586 q 124 615 129 604 q 119 640 119 627 q 124 664 119 652 q 138 685 129 676 q 158 699 146 694 q 183 704 170 704 m 385 704 q 409 699 397 704 q 429 685 420 694 q 442 664 437 676 q 447 640 447 652 q 442 615 447 627 q 429 595 437 604 q 409 581 420 586 q 385 576 397 576 q 359 581 371 576 q 339 595 348 586 q 326 615 330 604 q 321 640 321 627 q 326 664 321 652 q 339 685 330 676 q 359 699 348 694 q 385 704 371 704 z "},"í":{"ha":315,"x_min":82,"x_max":363,"o":"m 304 79 q 268 28 289 46 q 229 3 248 11 q 183 -8 206 -7 q 134 1 153 -8 q 102 26 114 11 q 86 62 91 42 q 82 102 82 81 l 82 482 l 207 525 l 207 98 q 214 73 207 82 q 234 63 222 63 q 259 71 245 62 q 286 100 273 80 l 304 79 m 143 567 l 126 591 l 284 780 l 363 691 l 143 567 z "},"ì":{"ha":315,"x_min":-80,"x_max":304,"o":"m 304 79 q 268 28 289 46 q 229 3 248 11 q 183 -8 206 -7 q 134 1 153 -8 q 102 26 114 11 q 86 62 91 42 q 82 102 82 81 l 82 482 l 207 525 l 207 98 q 214 73 207 82 q 234 63 222 63 q 259 71 245 62 q 286 100 273 80 l 304 79 m -80 691 l -1 781 l 157 592 l 140 567 l -80 691 z "},"î":{"ha":315,"x_min":-47,"x_max":336,"o":"m 304 79 q 268 28 289 46 q 229 3 248 11 q 183 -8 206 -7 q 134 1 153 -8 q 102 26 114 11 q 86 62 91 42 q 82 102 82 81 l 82 482 l 207 525 l 207 98 q 214 73 207 82 q 234 63 222 63 q 259 71 245 62 q 286 100 273 80 l 304 79 m -12 580 l -47 608 l 142 819 l 336 635 l 269 564 l 103 720 l -12 580 z "},"ï":{"ha":315,"x_min":-23,"x_max":304,"o":"m 304 79 q 268 28 289 46 q 229 3 248 11 q 183 -8 206 -7 q 134 1 153 -8 q 102 26 114 11 q 86 62 91 42 q 82 102 82 81 l 82 482 l 207 525 l 207 98 q 214 73 207 82 q 234 63 222 63 q 259 71 245 62 q 286 100 273 80 l 304 79 m 41 698 q 65 693 54 698 q 85 679 77 688 q 99 658 94 670 q 104 633 104 646 q 99 609 104 621 q 85 589 94 597 q 65 575 77 580 q 41 570 54 570 q 16 575 27 570 q -5 589 4 580 q -18 609 -14 597 q -23 633 -23 621 q -18 658 -23 646 q -5 679 -14 670 q 16 693 4 688 q 41 698 27 698 m 242 698 q 267 693 255 698 q 287 679 278 688 q 300 658 295 670 q 304 633 304 646 q 300 609 304 621 q 287 589 295 597 q 267 575 278 580 q 242 570 255 570 q 217 575 229 570 q 197 589 205 580 q 183 609 188 597 q 178 633 178 621 q 183 658 178 646 q 197 679 188 670 q 217 693 205 688 q 242 698 229 698 z "},"ñ":{"ha":642,"x_min":9,"x_max":633,"o":"m 633 79 q 612 46 625 62 q 584 18 600 31 q 549 -1 568 6 q 511 -8 531 -8 q 434 21 458 -8 q 410 102 410 51 l 410 378 q 409 389 410 382 q 407 401 409 395 q 401 411 405 407 q 392 415 398 415 q 354 392 373 415 q 316 332 334 369 q 283 250 298 296 q 256 160 268 205 q 238 77 245 116 q 232 16 232 39 l 109 -28 l 109 428 q 102 453 109 441 q 81 464 95 464 q 50 451 64 464 q 28 427 36 439 l 9 447 q 30 480 18 464 q 59 508 43 496 q 93 527 75 520 q 132 534 112 534 q 209 505 185 534 q 232 425 232 475 l 232 204 q 249 268 238 232 q 274 340 259 303 q 308 411 289 376 q 349 474 326 446 q 397 518 371 501 q 454 534 424 534 q 503 520 486 534 q 526 485 519 507 q 534 438 533 464 q 534 389 534 412 l 534 98 q 541 74 534 85 q 562 62 548 62 q 592 75 578 62 q 614 100 606 87 l 633 79 m 222 588 l 196 574 q 176 606 182 590 q 168 635 170 621 q 167 665 165 650 q 193 725 173 701 q 254 751 212 749 q 292 744 275 751 q 323 725 309 736 q 348 702 337 713 q 370 683 359 690 q 391 676 380 675 q 410 685 402 677 q 420 710 418 694 q 414 751 422 726 l 440 762 q 461 719 456 740 q 465 680 466 697 q 458 642 465 660 q 435 604 449 618 q 404 584 420 590 q 369 581 387 578 q 334 595 351 584 q 302 622 316 608 q 275 647 288 636 q 251 663 262 658 q 228 662 240 668 q 213 645 218 655 q 209 622 209 636 q 222 588 210 608 z "},"ó":{"ha":581,"x_min":40,"x_max":539,"o":"m 279 -16 q 185 2 229 -16 q 110 52 142 20 q 59 127 77 84 q 40 221 40 170 q 59 329 40 279 q 112 420 78 380 q 191 491 145 461 q 290 538 237 521 l 310 514 q 253 463 279 492 q 207 400 227 434 q 176 330 187 367 q 164 254 164 293 q 174 186 164 222 q 202 120 183 150 q 250 71 221 90 q 317 52 279 52 q 375 64 351 52 q 416 97 400 76 q 441 146 433 118 q 449 205 449 174 q 435 280 449 242 q 396 351 420 319 q 338 406 371 384 q 267 431 304 427 q 319 481 290 458 q 376 525 347 504 q 446 487 416 512 q 497 429 476 462 q 528 358 517 397 q 539 281 539 320 q 520 174 539 227 q 468 79 502 121 q 386 11 433 37 q 279 -16 338 -16 m 299 583 l 282 606 l 440 795 l 519 707 l 299 583 z "},"ò":{"ha":581,"x_min":40,"x_max":539,"o":"m 279 -16 q 185 2 229 -16 q 110 52 142 20 q 59 127 77 84 q 40 221 40 170 q 59 329 40 279 q 112 420 78 380 q 191 491 145 461 q 290 538 237 521 l 310 514 q 253 463 279 492 q 207 400 227 434 q 176 330 187 367 q 164 254 164 293 q 174 186 164 222 q 202 120 183 150 q 250 71 221 90 q 317 52 279 52 q 375 64 351 52 q 416 97 400 76 q 441 146 433 118 q 449 205 449 174 q 435 280 449 242 q 396 351 420 319 q 338 406 371 384 q 267 431 304 427 q 319 481 290 458 q 376 525 347 504 q 446 487 416 512 q 497 429 476 462 q 528 358 517 397 q 539 281 539 320 q 520 174 539 227 q 468 79 502 121 q 386 11 433 37 q 279 -16 338 -16 m 65 701 l 144 791 l 302 602 l 285 576 l 65 701 z "},"ô":{"ha":581,"x_min":40,"x_max":539,"o":"m 279 -16 q 185 2 229 -16 q 110 52 142 20 q 59 127 77 84 q 40 221 40 170 q 59 329 40 279 q 112 420 78 380 q 191 491 145 461 q 290 538 237 521 l 310 514 q 253 463 279 492 q 207 400 227 434 q 176 330 187 367 q 164 254 164 293 q 174 186 164 222 q 202 120 183 150 q 250 71 221 90 q 317 52 279 52 q 375 64 351 52 q 416 97 400 76 q 441 146 433 118 q 449 205 449 174 q 435 280 449 242 q 396 351 420 319 q 338 406 371 384 q 267 431 304 427 q 319 481 290 458 q 376 525 347 504 q 446 487 416 512 q 497 429 476 462 q 528 358 517 397 q 539 281 539 320 q 520 174 539 227 q 468 79 502 121 q 386 11 433 37 q 279 -16 338 -16 m 132 583 l 97 610 l 286 822 l 480 638 l 412 566 l 247 723 l 132 583 z "},"ö":{"ha":581,"x_min":40,"x_max":539,"o":"m 279 -16 q 185 2 229 -16 q 110 52 142 20 q 59 127 77 84 q 40 221 40 170 q 59 329 40 279 q 112 420 78 380 q 191 491 145 461 q 290 538 237 521 l 310 514 q 253 463 279 492 q 207 400 227 434 q 176 330 187 367 q 164 254 164 293 q 174 186 164 222 q 202 120 183 150 q 250 71 221 90 q 317 52 279 52 q 375 64 351 52 q 416 97 400 76 q 441 146 433 118 q 449 205 449 174 q 435 280 449 242 q 396 351 420 319 q 338 406 371 384 q 267 431 304 427 q 319 481 290 458 q 376 525 347 504 q 446 487 416 512 q 497 429 476 462 q 528 358 517 397 q 539 281 539 320 q 520 174 539 227 q 468 79 502 121 q 386 11 433 37 q 279 -16 338 -16 m 189 707 q 213 702 201 707 q 233 688 224 696 q 247 667 242 679 q 252 642 252 655 q 247 618 252 629 q 233 597 242 606 q 213 584 224 589 q 189 578 201 578 q 163 584 175 578 q 143 597 152 589 q 130 618 134 606 q 125 642 125 629 q 130 667 125 655 q 143 688 134 679 q 163 702 152 696 q 189 707 175 707 m 390 707 q 414 702 403 707 q 434 688 426 696 q 448 667 443 679 q 452 642 452 655 q 448 618 452 629 q 434 597 443 606 q 414 584 426 589 q 390 578 403 578 q 365 584 376 578 q 345 597 353 589 q 331 618 336 606 q 326 642 326 629 q 331 667 326 655 q 345 688 336 679 q 365 702 353 696 q 390 707 376 707 z "},"õ":{"ha":581,"x_min":40,"x_max":539,"o":"m 279 -16 q 185 2 229 -16 q 110 52 142 20 q 59 127 77 84 q 40 221 40 170 q 59 329 40 279 q 112 420 78 380 q 191 491 145 461 q 290 538 237 521 l 310 514 q 253 463 279 492 q 207 400 227 434 q 176 330 187 367 q 164 254 164 293 q 174 186 164 222 q 202 120 183 150 q 250 71 221 90 q 317 52 279 52 q 375 64 351 52 q 416 97 400 76 q 441 146 433 118 q 449 205 449 174 q 435 280 449 242 q 396 351 420 319 q 338 406 371 384 q 267 431 304 427 q 319 481 290 458 q 376 525 347 504 q 446 487 416 512 q 497 429 476 462 q 528 358 517 397 q 539 281 539 320 q 520 174 539 227 q 468 79 502 121 q 386 11 433 37 q 279 -16 338 -16 m 191 578 l 164 565 q 144 596 150 581 q 136 625 138 612 q 135 655 133 641 q 161 715 141 692 q 222 741 180 739 q 260 734 243 742 q 291 715 277 726 q 316 692 305 704 q 338 673 328 680 q 359 667 348 666 q 378 676 370 667 q 388 701 386 684 q 382 741 391 717 l 408 752 q 429 709 425 730 q 433 671 434 688 q 427 633 433 650 q 403 595 417 609 q 372 575 389 581 q 337 572 355 569 q 302 586 319 574 q 270 612 284 598 q 243 637 256 627 q 219 653 231 648 q 196 652 208 659 q 181 635 186 646 q 177 613 177 627 q 191 578 178 599 z "},"ú":{"ha":627,"x_min":7,"x_max":616,"o":"m 616 79 q 580 28 601 46 q 540 3 559 11 q 494 -8 517 -7 q 445 1 464 -8 q 414 26 425 11 q 398 62 402 42 q 393 102 393 81 l 393 318 q 379 260 388 294 q 359 189 371 226 q 330 116 347 152 q 293 51 314 79 q 244 4 271 22 q 184 -14 218 -14 q 141 -3 157 -14 q 117 27 125 7 q 107 73 109 46 q 106 132 106 100 l 106 427 q 98 452 106 443 q 79 462 91 462 q 53 454 67 463 q 25 425 39 445 l 7 446 q 43 496 22 478 q 83 522 63 514 q 129 533 105 532 q 179 524 159 533 q 209 499 198 514 q 225 464 220 484 q 229 424 229 444 l 229 143 q 239 109 229 117 q 263 111 248 100 q 297 150 279 121 q 335 224 316 178 q 359 315 347 268 q 378 403 368 355 q 393 496 388 451 l 518 539 l 518 98 q 526 73 518 82 q 545 63 533 63 q 570 71 556 62 q 597 100 584 80 l 616 79 m 318 570 l 301 593 l 459 783 l 538 694 l 318 570 z "},"ù":{"ha":627,"x_min":7,"x_max":616,"o":"m 616 79 q 580 28 601 46 q 540 3 559 11 q 494 -8 517 -7 q 445 1 464 -8 q 414 26 425 11 q 398 62 402 42 q 393 102 393 81 l 393 318 q 379 260 388 294 q 359 189 371 226 q 330 116 347 152 q 293 51 314 79 q 244 4 271 22 q 184 -14 218 -14 q 141 -3 157 -14 q 117 27 125 7 q 107 73 109 46 q 106 132 106 100 l 106 427 q 98 452 106 443 q 79 462 91 462 q 53 454 67 463 q 25 425 39 445 l 7 446 q 43 496 22 478 q 83 522 63 514 q 129 533 105 532 q 179 524 159 533 q 209 499 198 514 q 225 464 220 484 q 229 424 229 444 l 229 143 q 239 109 229 117 q 263 111 248 100 q 297 150 279 121 q 335 224 316 178 q 359 315 347 268 q 378 403 368 355 q 393 496 388 451 l 518 539 l 518 98 q 526 73 518 82 q 545 63 533 63 q 570 71 556 62 q 597 100 584 80 l 616 79 m 83 695 l 163 785 l 321 596 l 303 571 l 83 695 z "},"û":{"ha":627,"x_min":7,"x_max":616,"o":"m 616 79 q 580 28 601 46 q 540 3 559 11 q 494 -8 517 -7 q 445 1 464 -8 q 414 26 425 11 q 398 62 402 42 q 393 102 393 81 l 393 318 q 379 260 388 294 q 359 189 371 226 q 330 116 347 152 q 293 51 314 79 q 244 4 271 22 q 184 -14 218 -14 q 141 -3 157 -14 q 117 27 125 7 q 107 73 109 46 q 106 132 106 100 l 106 427 q 98 452 106 443 q 79 462 91 462 q 53 454 67 463 q 25 425 39 445 l 7 446 q 43 496 22 478 q 83 522 63 514 q 129 533 105 532 q 179 524 159 533 q 209 499 198 514 q 225 464 220 484 q 229 424 229 444 l 229 143 q 239 109 229 117 q 263 111 248 100 q 297 150 279 121 q 335 224 316 178 q 359 315 347 268 q 378 403 368 355 q 393 496 388 451 l 518 539 l 518 98 q 526 73 518 82 q 545 63 533 63 q 570 71 556 62 q 597 100 584 80 l 616 79 m 154 580 l 119 608 l 309 819 l 503 635 l 435 564 l 269 720 l 154 580 z "},"ü":{"ha":627,"x_min":7,"x_max":616,"o":"m 616 79 q 580 28 601 46 q 540 3 559 11 q 494 -8 517 -7 q 445 1 464 -8 q 414 26 425 11 q 398 62 402 42 q 393 102 393 81 l 393 318 q 379 260 388 294 q 359 189 371 226 q 330 116 347 152 q 293 51 314 79 q 244 4 271 22 q 184 -14 218 -14 q 141 -3 157 -14 q 117 27 125 7 q 107 73 109 46 q 106 132 106 100 l 106 427 q 98 452 106 443 q 79 462 91 462 q 53 454 67 463 q 25 425 39 445 l 7 446 q 43 496 22 478 q 83 522 63 514 q 129 533 105 532 q 179 524 159 533 q 209 499 198 514 q 225 464 220 484 q 229 424 229 444 l 229 143 q 239 109 229 117 q 263 111 248 100 q 297 150 279 121 q 335 224 316 178 q 359 315 347 268 q 378 403 368 355 q 393 496 388 451 l 518 539 l 518 98 q 526 73 518 82 q 545 63 533 63 q 570 71 556 62 q 597 100 584 80 l 616 79 m 211 703 q 235 697 224 703 q 256 684 247 692 q 270 663 264 675 q 275 638 275 651 q 270 614 275 625 q 256 593 264 602 q 235 579 247 585 q 211 574 224 574 q 186 579 197 574 q 165 593 174 585 q 152 614 157 602 q 147 638 147 625 q 152 663 147 651 q 165 684 157 675 q 186 697 174 692 q 211 703 197 703 m 412 703 q 437 697 425 703 q 457 684 448 692 q 470 663 465 675 q 475 638 475 651 q 470 614 475 625 q 457 593 465 602 q 437 579 448 585 q 412 574 425 574 q 387 579 399 574 q 367 593 376 585 q 353 614 358 602 q 349 638 349 625 q 353 663 349 651 q 367 684 358 675 q 387 697 376 692 q 412 703 399 703 z "},"…":{"ha":891,"x_min":71,"x_max":822,"o":"m 228 52 q 221 21 228 35 q 204 -4 215 7 q 179 -20 194 -14 q 149 -26 165 -26 q 118 -20 132 -26 q 94 -4 104 -14 q 77 21 83 7 q 71 52 71 35 q 77 82 71 68 q 94 107 83 96 q 118 124 104 118 q 149 131 132 131 q 179 124 165 131 q 204 107 194 118 q 221 82 215 96 q 228 52 228 68 m 525 52 q 518 21 525 35 q 502 -4 512 7 q 476 -20 491 -14 q 446 -26 462 -26 q 415 -20 429 -26 q 391 -4 401 -14 q 374 21 380 7 q 368 52 368 35 q 374 82 368 68 q 391 107 380 96 q 415 124 401 118 q 446 131 429 131 q 476 124 462 131 q 502 107 491 118 q 518 82 512 96 q 525 52 525 68 m 822 52 q 815 21 822 35 q 799 -4 809 7 q 773 -20 788 -14 q 743 -26 759 -26 q 712 -20 726 -26 q 688 -4 699 -14 q 671 21 677 7 q 665 52 665 35 q 671 82 665 68 q 688 107 677 96 q 712 124 699 118 q 743 131 726 131 q 773 124 759 131 q 799 107 788 118 q 815 82 809 96 q 822 52 822 68 z "},"ﬁ":{"ha":704,"x_min":28,"x_max":693,"o":"m 693 79 q 657 28 677 46 q 617 3 636 11 q 572 -8 595 -7 q 522 1 542 -8 q 491 26 503 11 q 475 62 479 42 q 471 102 471 81 l 471 457 l 221 457 l 221 -138 l 96 -191 l 96 457 l 28 457 l 57 525 l 96 525 l 96 669 q 108 781 96 725 q 149 882 120 837 q 223 954 177 926 q 336 982 269 982 q 378 977 357 982 q 420 963 399 972 q 458 941 440 954 q 489 911 476 928 l 404 856 q 369 909 393 887 q 310 932 346 932 q 263 919 281 932 q 236 885 245 905 q 224 839 227 864 q 221 791 221 814 l 221 525 l 595 525 l 595 524 l 595 525 l 595 98 q 603 73 595 82 q 622 63 610 63 q 648 71 634 62 q 675 100 662 80 l 693 79 m 600 885 l 564 637 l 497 616 l 456 836 l 600 885 z "},"ﬂ":{"ha":707,"x_min":28,"x_max":696,"o":"m 696 79 q 675 46 688 62 q 647 18 663 31 q 613 -1 631 6 q 574 -8 594 -8 q 497 21 522 -8 q 473 102 473 51 l 473 901 l 404 856 q 369 909 393 887 q 310 932 346 932 q 263 919 281 932 q 236 885 245 905 q 224 839 227 864 q 221 791 221 814 l 221 525 l 399 525 l 370 457 l 221 457 l 221 -138 l 96 -191 l 96 457 l 28 457 l 57 525 l 96 525 l 96 669 q 108 781 96 725 q 149 882 120 837 q 223 954 177 926 q 336 982 269 982 q 408 968 371 982 q 473 928 446 954 l 473 929 l 598 972 l 598 98 q 604 74 598 85 q 626 62 610 62 q 655 75 642 62 q 677 100 669 87 l 696 79 z "},"¤":{"ha":368,"x_min":31,"x_max":338,"o":"m 252 456 q 245 494 252 473 q 227 534 239 515 q 198 566 215 553 q 161 579 181 579 q 140 574 149 579 q 127 561 132 569 q 120 542 122 552 q 118 521 118 531 q 125 482 118 503 q 143 442 132 460 q 172 410 155 423 q 208 397 189 397 q 229 402 220 397 q 242 416 237 408 q 250 435 248 425 q 252 456 252 446 m 338 631 l 286 567 q 307 530 299 551 q 314 488 314 510 q 308 447 314 466 q 290 412 301 428 l 338 354 l 262 320 l 230 368 q 184 359 208 359 q 138 368 159 359 l 106 320 l 31 354 l 79 414 q 57 488 57 446 q 64 529 57 509 q 83 566 71 549 l 31 631 l 106 665 l 144 610 q 163 615 153 613 q 184 616 174 616 q 205 615 195 616 q 224 610 215 613 l 262 665 l 338 631 z "},"­":{"ha":644,"x_min":81,"x_max":586,"o":"m 586 567 l 545 457 l 81 457 l 123 567 l 586 567 z "},"̒":{"ha":181,"x_min":35,"x_max":144,"o":"m 144 1083 q 128 1045 144 1061 q 90 1029 112 1029 q 51 1045 66 1029 q 35 1083 35 1061 q 41 1119 35 1102 q 58 1149 47 1135 q 83 1176 69 1164 q 112 1197 96 1187 l 129 1181 q 113 1161 121 1173 q 103 1137 105 1149 q 133 1117 121 1132 q 144 1083 144 1102 z "},"̕":{"ha":177,"x_min":37,"x_max":146,"o":"m 146 1137 q 140 1102 146 1119 q 123 1072 134 1086 q 99 1045 113 1057 q 70 1025 85 1034 l 53 1040 q 69 1060 61 1047 q 79 1084 77 1072 q 49 1104 60 1089 q 37 1137 37 1118 q 53 1177 37 1160 q 92 1193 68 1193 q 130 1177 114 1193 q 146 1137 146 1160 z "},"̦":{"ha":209,"x_min":50,"x_max":159,"o":"m 159 -113 q 153 -148 159 -132 q 136 -179 147 -165 q 112 -205 125 -193 q 83 -226 98 -217 l 65 -212 q 81 -191 74 -203 q 92 -167 89 -178 q 61 -147 73 -161 q 50 -113 50 -132 q 65 -74 50 -91 q 104 -58 81 -58 q 143 -74 127 -58 q 159 -113 159 -91 z "}," ":{"ha":293,"x_min":0,"x_max":0,"o":""},"ȷ":{"ha":292,"x_min":-203,"x_max":211,"o":"m 211 56 q 200 -34 211 8 q 169 -113 189 -76 q 123 -181 150 -149 q 66 -237 97 -212 q -24 -290 22 -271 q -66 -303 -44 -298 q -112 -308 -89 -308 q -158 -301 -134 -308 q -203 -278 -181 -294 l -126 -182 q -60 -217 -91 -210 q -6 -220 -29 -223 q 43 -201 21 -216 q 71 -159 62 -187 q 84 -96 81 -131 q 86 -25 87 -62 q 86 45 86 12 l 86 482 l 211 525 l 211 56 z "},"Ā":{"ha":943,"x_min":57,"x_max":946,"o":"m 946 93 q 921 55 936 73 q 886 23 905 37 q 845 0 867 9 q 800 -8 823 -8 q 734 6 762 -8 q 687 44 706 20 q 658 100 667 68 q 648 165 648 131 l 648 428 q 627 335 639 385 q 597 236 614 285 q 555 141 579 186 q 499 61 532 96 q 426 5 467 26 q 332 -16 385 -16 q 216 9 267 -16 q 130 76 165 33 q 76 177 94 119 q 57 304 57 236 q 83 468 57 386 q 154 625 109 549 q 261 764 199 700 q 396 876 323 829 q 550 950 469 924 q 714 975 631 977 l 722 975 l 722 945 q 585 914 651 941 q 462 842 519 886 q 357 739 405 798 q 276 615 310 681 q 224 479 243 549 q 205 342 205 410 q 209 285 205 315 q 220 225 212 255 q 241 167 229 195 q 274 118 254 140 q 319 84 293 97 q 378 72 345 72 q 450 96 418 72 q 509 162 483 121 q 556 258 536 203 q 593 374 577 313 q 619 499 608 435 q 636 621 629 562 q 645 729 642 679 q 648 812 648 779 l 789 864 l 789 143 q 791 116 789 130 q 801 91 794 102 q 818 73 808 80 q 844 66 829 66 q 889 81 868 66 q 924 113 910 95 l 946 93 m 328 1035 l 376 1141 l 656 1141 l 610 1035 l 328 1035 z "},"Ă":{"ha":943,"x_min":57,"x_max":946,"o":"m 946 93 q 921 55 936 73 q 886 23 905 37 q 845 0 867 9 q 800 -8 823 -8 q 734 6 762 -8 q 687 44 706 20 q 658 100 667 68 q 648 165 648 131 l 648 428 q 627 335 639 385 q 597 236 614 285 q 555 141 579 186 q 499 61 532 96 q 426 5 467 26 q 332 -16 385 -16 q 216 9 267 -16 q 130 76 165 33 q 76 177 94 119 q 57 304 57 236 q 83 468 57 386 q 154 625 109 549 q 261 764 199 700 q 396 876 323 829 q 550 950 469 924 q 714 975 631 977 l 722 975 l 722 945 q 585 914 651 941 q 462 842 519 886 q 357 739 405 798 q 276 615 310 681 q 224 479 243 549 q 205 342 205 410 q 209 285 205 315 q 220 225 212 255 q 241 167 229 195 q 274 118 254 140 q 319 84 293 97 q 378 72 345 72 q 450 96 418 72 q 509 162 483 121 q 556 258 536 203 q 593 374 577 313 q 619 499 608 435 q 636 621 629 562 q 645 729 642 679 q 648 812 648 779 l 789 864 l 789 143 q 791 116 789 130 q 801 91 794 102 q 818 73 808 80 q 844 66 829 66 q 889 81 868 66 q 924 113 910 95 l 946 93 m 381 1267 l 401 1252 q 386 1219 390 1237 q 381 1183 381 1201 q 386 1143 381 1165 q 402 1102 391 1121 q 429 1070 413 1083 q 467 1057 446 1057 q 514 1076 496 1057 q 532 1124 532 1095 q 520 1174 532 1149 q 488 1214 508 1198 l 577 1271 q 616 1168 616 1228 q 604 1106 616 1134 q 570 1057 591 1078 q 519 1026 549 1037 q 456 1015 490 1015 q 404 1024 428 1015 q 363 1050 380 1034 q 336 1089 346 1066 q 327 1141 327 1112 q 331 1175 327 1157 q 342 1209 335 1192 q 359 1241 349 1225 q 381 1267 369 1256 z "},"Ą":{"ha":943,"x_min":57,"x_max":946,"o":"m 946 93 q 921 55 936 73 q 886 23 905 37 q 845 0 867 9 q 800 -8 823 -8 l 794 -8 q 774 -47 778 -31 q 771 -75 770 -64 q 781 -98 773 -88 q 804 -112 791 -109 q 827 -111 814 -115 q 855 -89 841 -107 l 871 -102 q 844 -135 857 -123 q 821 -153 831 -146 q 798 -164 808 -161 q 765 -162 783 -167 q 733 -146 747 -158 q 714 -113 720 -134 q 718 -62 709 -92 q 727 -44 721 -54 q 741 -25 732 -36 q 762 -3 749 -15 q 712 20 733 3 q 677 58 691 36 q 655 108 663 81 q 648 165 648 136 l 648 428 q 627 335 639 385 q 597 236 614 285 q 555 141 579 186 q 499 61 532 96 q 426 5 467 26 q 332 -16 385 -16 q 216 9 267 -16 q 130 76 165 33 q 76 177 94 119 q 57 304 57 236 q 83 468 57 386 q 154 625 109 549 q 261 764 199 700 q 396 876 323 829 q 550 950 469 924 q 714 975 631 977 l 722 975 l 722 945 q 585 914 651 941 q 462 842 519 886 q 357 739 405 798 q 276 615 310 681 q 224 479 243 549 q 205 342 205 410 q 209 285 205 315 q 220 225 212 255 q 241 167 229 195 q 274 118 254 140 q 319 84 293 97 q 378 72 345 72 q 450 96 418 72 q 509 162 483 121 q 556 258 536 203 q 593 374 577 313 q 619 499 608 435 q 636 621 629 562 q 645 729 642 679 q 648 812 648 779 l 789 864 l 789 143 q 791 116 789 130 q 801 91 794 102 q 818 73 808 80 q 844 66 829 66 q 889 81 868 66 q 924 113 910 95 l 946 93 z "},"Ć":{"ha":838,"x_min":56,"x_max":794,"o":"m 794 807 q 774 705 794 755 q 719 610 753 654 q 640 534 685 567 q 547 488 595 502 l 533 511 q 585 548 562 526 q 626 598 609 570 q 652 658 643 627 q 661 722 661 690 q 650 793 661 760 q 618 851 640 826 q 567 890 597 876 q 496 904 536 904 q 406 885 447 904 q 333 834 366 866 q 276 760 300 802 q 236 672 252 718 q 212 580 220 627 q 204 492 204 533 q 213 405 204 450 q 239 317 222 360 q 281 235 256 273 q 339 167 306 196 q 412 120 372 138 q 500 103 452 103 q 563 112 532 103 q 623 136 594 121 q 676 171 651 151 q 724 215 702 191 l 746 193 q 675 118 716 154 q 587 53 634 81 q 487 8 539 25 q 385 -8 435 -8 q 291 9 335 -8 q 211 56 248 26 q 145 125 174 85 q 97 210 117 165 q 66 302 77 254 q 56 395 56 349 q 78 530 56 460 q 138 665 100 600 q 230 789 177 730 q 343 890 282 847 q 470 959 404 934 q 602 985 536 985 q 677 973 642 985 q 739 939 713 961 q 779 883 764 916 q 794 807 794 850 m 460 1016 l 443 1040 l 601 1229 l 680 1140 l 460 1016 z "},"Ĉ":{"ha":838,"x_min":56,"x_max":794,"o":"m 794 807 q 774 705 794 755 q 719 610 753 654 q 640 534 685 567 q 547 488 595 502 l 533 511 q 585 548 562 526 q 626 598 609 570 q 652 658 643 627 q 661 722 661 690 q 650 793 661 760 q 618 851 640 826 q 567 890 597 876 q 496 904 536 904 q 406 885 447 904 q 333 834 366 866 q 276 760 300 802 q 236 672 252 718 q 212 580 220 627 q 204 492 204 533 q 213 405 204 450 q 239 317 222 360 q 281 235 256 273 q 339 167 306 196 q 412 120 372 138 q 500 103 452 103 q 563 112 532 103 q 623 136 594 121 q 676 171 651 151 q 724 215 702 191 l 746 193 q 675 118 716 154 q 587 53 634 81 q 487 8 539 25 q 385 -8 435 -8 q 291 9 335 -8 q 211 56 248 26 q 145 125 174 85 q 97 210 117 165 q 66 302 77 254 q 56 395 56 349 q 78 530 56 460 q 138 665 100 600 q 230 789 177 730 q 343 890 282 847 q 470 959 404 934 q 602 985 536 985 q 677 973 642 985 q 739 939 713 961 q 779 883 764 916 q 794 807 794 850 m 262 1031 l 227 1059 l 416 1271 l 610 1087 l 543 1015 l 377 1172 l 262 1031 z "},"Ċ":{"ha":838,"x_min":56,"x_max":794,"o":"m 794 807 q 774 705 794 755 q 719 610 753 654 q 640 534 685 567 q 547 488 595 502 l 533 511 q 585 548 562 526 q 626 598 609 570 q 652 658 643 627 q 661 722 661 690 q 650 793 661 760 q 618 851 640 826 q 567 890 597 876 q 496 904 536 904 q 406 885 447 904 q 333 834 366 866 q 276 760 300 802 q 236 672 252 718 q 212 580 220 627 q 204 492 204 533 q 213 405 204 450 q 239 317 222 360 q 281 235 256 273 q 339 167 306 196 q 412 120 372 138 q 500 103 452 103 q 563 112 532 103 q 623 136 594 121 q 676 171 651 151 q 724 215 702 191 l 746 193 q 675 118 716 154 q 587 53 634 81 q 487 8 539 25 q 385 -8 435 -8 q 291 9 335 -8 q 211 56 248 26 q 145 125 174 85 q 97 210 117 165 q 66 302 77 254 q 56 395 56 349 q 78 530 56 460 q 138 665 100 600 q 230 789 177 730 q 343 890 282 847 q 470 959 404 934 q 602 985 536 985 q 677 973 642 985 q 739 939 713 961 q 779 883 764 916 q 794 807 794 850 m 418 1153 q 443 1148 431 1153 q 463 1134 454 1143 q 477 1113 472 1125 q 482 1088 482 1101 q 477 1064 482 1076 q 463 1044 472 1053 q 443 1030 454 1035 q 418 1025 431 1025 q 393 1030 405 1025 q 373 1044 382 1035 q 359 1064 364 1053 q 355 1088 355 1076 q 359 1113 355 1101 q 373 1134 364 1125 q 393 1148 382 1143 q 418 1153 405 1153 z "},"Č":{"ha":838,"x_min":56,"x_max":794,"o":"m 794 807 q 774 705 794 755 q 719 610 753 654 q 640 534 685 567 q 547 488 595 502 l 533 511 q 585 548 562 526 q 626 598 609 570 q 652 658 643 627 q 661 722 661 690 q 650 793 661 760 q 618 851 640 826 q 567 890 597 876 q 496 904 536 904 q 406 885 447 904 q 333 834 366 866 q 276 760 300 802 q 236 672 252 718 q 212 580 220 627 q 204 492 204 533 q 213 405 204 450 q 239 317 222 360 q 281 235 256 273 q 339 167 306 196 q 412 120 372 138 q 500 103 452 103 q 563 112 532 103 q 623 136 594 121 q 676 171 651 151 q 724 215 702 191 l 746 193 q 675 118 716 154 q 587 53 634 81 q 487 8 539 25 q 385 -8 435 -8 q 291 9 335 -8 q 211 56 248 26 q 145 125 174 85 q 97 210 117 165 q 66 302 77 254 q 56 395 56 349 q 78 530 56 460 q 138 665 100 600 q 230 789 177 730 q 343 890 282 847 q 470 959 404 934 q 602 985 536 985 q 677 973 642 985 q 739 939 713 961 q 779 883 764 916 q 794 807 794 850 m 610 1224 l 423 1013 l 227 1196 l 296 1269 l 462 1112 l 577 1252 l 610 1224 z "},"Ď":{"ha":921,"x_min":53,"x_max":865,"o":"m 865 632 q 833 466 865 546 q 746 315 801 385 q 618 185 691 244 q 464 83 545 126 q 297 14 382 39 q 132 -17 212 -12 l 132 743 l 272 793 l 272 54 q 447 135 368 82 q 585 259 527 187 q 674 420 642 331 q 707 610 707 509 q 692 720 707 667 q 647 812 677 772 q 571 875 617 852 q 461 899 525 899 q 356 887 409 899 q 254 855 304 876 q 158 806 204 834 q 74 743 113 777 l 53 766 q 149 849 94 810 q 268 918 205 888 q 397 965 331 947 q 526 982 464 982 q 674 957 610 982 q 780 886 738 932 q 844 775 823 840 q 865 632 865 711 m 652 1226 l 465 1015 l 269 1198 l 338 1271 l 503 1114 l 618 1254 l 652 1226 z "},"Đ":{"ha":925,"x_min":-12,"x_max":869,"o":"m 479 511 l 452 443 l 277 443 l 277 54 q 452 135 372 82 q 589 259 532 187 q 679 420 647 331 q 711 610 711 509 q 697 720 711 667 q 652 812 682 772 q 576 875 623 852 q 465 899 529 899 q 360 887 413 899 q 258 855 308 876 q 162 806 208 834 q 78 743 117 777 l 57 766 q 154 849 98 810 q 273 918 210 888 q 402 965 336 947 q 530 982 469 982 q 678 957 614 982 q 784 886 742 932 q 848 775 827 840 q 869 632 869 711 q 837 465 869 545 q 750 314 805 385 q 622 185 695 243 q 468 83 549 126 q 301 14 387 39 q 136 -17 216 -12 l 136 443 l -12 443 l 17 511 l 136 511 l 136 743 l 277 793 l 277 511 l 479 511 z "},"Ē":{"ha":741,"x_min":49,"x_max":721,"o":"m 721 267 q 649 162 691 212 q 554 75 606 113 q 443 14 503 37 q 317 -8 382 -8 q 218 9 266 -8 q 132 57 170 26 q 72 132 94 88 q 49 229 49 176 q 70 327 49 281 q 124 409 91 372 q 200 475 158 446 q 286 525 243 505 q 231 547 256 530 q 190 588 207 564 q 164 641 173 612 q 155 700 155 670 q 170 778 155 741 q 211 847 185 815 q 270 904 236 878 q 341 947 304 929 q 419 974 379 964 q 496 983 458 983 q 597 961 551 983 q 679 897 644 939 l 581 825 q 550 862 566 845 q 514 892 533 880 q 472 912 494 905 q 425 920 450 920 q 364 908 394 920 q 310 877 334 897 q 272 829 286 857 q 257 768 257 802 q 272 704 257 734 q 311 653 287 675 q 367 619 336 631 q 432 607 399 607 q 503 619 470 607 l 513 591 q 403 546 458 574 q 305 480 349 519 q 235 391 262 441 q 208 275 208 340 q 219 206 208 238 q 251 151 230 174 q 301 113 271 127 q 370 100 332 100 q 458 116 409 100 q 553 158 507 132 q 639 218 600 184 q 697 288 677 252 l 721 267 m 275 1023 l 323 1130 l 604 1130 l 557 1023 l 275 1023 z "},"Ĕ":{"ha":741,"x_min":49,"x_max":721,"o":"m 721 267 q 649 162 691 212 q 554 75 606 113 q 443 14 503 37 q 317 -8 382 -8 q 218 9 266 -8 q 132 57 170 26 q 72 132 94 88 q 49 229 49 176 q 70 327 49 281 q 124 409 91 372 q 200 475 158 446 q 286 525 243 505 q 231 547 256 530 q 190 588 207 564 q 164 641 173 612 q 155 700 155 670 q 170 778 155 741 q 211 847 185 815 q 270 904 236 878 q 341 947 304 929 q 419 974 379 964 q 496 983 458 983 q 597 961 551 983 q 679 897 644 939 l 581 825 q 550 862 566 845 q 514 892 533 880 q 472 912 494 905 q 425 920 450 920 q 364 908 394 920 q 310 877 334 897 q 272 829 286 857 q 257 768 257 802 q 272 704 257 734 q 311 653 287 675 q 367 619 336 631 q 432 607 399 607 q 503 619 470 607 l 513 591 q 403 546 458 574 q 305 480 349 519 q 235 391 262 441 q 208 275 208 340 q 219 206 208 238 q 251 151 230 174 q 301 113 271 127 q 370 100 332 100 q 458 116 409 100 q 553 158 507 132 q 639 218 600 184 q 697 288 677 252 l 721 267 m 321 1269 l 340 1254 q 325 1221 330 1239 q 321 1185 321 1203 q 326 1145 321 1167 q 342 1104 331 1123 q 369 1072 353 1085 q 407 1059 385 1059 q 454 1078 436 1059 q 472 1126 472 1097 q 460 1176 472 1151 q 428 1216 448 1200 l 517 1273 q 555 1171 555 1230 q 543 1108 555 1136 q 510 1059 531 1080 q 459 1028 488 1039 q 395 1017 429 1017 q 344 1026 368 1017 q 303 1052 320 1036 q 276 1091 286 1068 q 267 1143 267 1114 q 271 1177 267 1159 q 282 1211 275 1194 q 299 1243 289 1227 q 321 1269 309 1258 z "},"Ė":{"ha":741,"x_min":49,"x_max":721,"o":"m 721 267 q 649 162 691 212 q 554 75 606 113 q 443 14 503 37 q 317 -8 382 -8 q 218 9 266 -8 q 132 57 170 26 q 72 132 94 88 q 49 229 49 176 q 70 327 49 281 q 124 409 91 372 q 200 475 158 446 q 286 525 243 505 q 231 547 256 530 q 190 588 207 564 q 164 641 173 612 q 155 700 155 670 q 170 778 155 741 q 211 847 185 815 q 270 904 236 878 q 341 947 304 929 q 419 974 379 964 q 496 983 458 983 q 597 961 551 983 q 679 897 644 939 l 581 825 q 550 862 566 845 q 514 892 533 880 q 472 912 494 905 q 425 920 450 920 q 364 908 394 920 q 310 877 334 897 q 272 829 286 857 q 257 768 257 802 q 272 704 257 734 q 311 653 287 675 q 367 619 336 631 q 432 607 399 607 q 503 619 470 607 l 513 591 q 403 546 458 574 q 305 480 349 519 q 235 391 262 441 q 208 275 208 340 q 219 206 208 238 q 251 151 230 174 q 301 113 271 127 q 370 100 332 100 q 458 116 409 100 q 553 158 507 132 q 639 218 600 184 q 697 288 677 252 l 721 267 m 418 1156 q 442 1151 431 1156 q 463 1137 454 1145 q 476 1116 471 1128 q 481 1091 481 1104 q 476 1067 481 1078 q 463 1046 471 1055 q 442 1033 454 1038 q 418 1027 431 1027 q 393 1033 404 1027 q 372 1046 381 1038 q 359 1067 363 1055 q 354 1091 354 1078 q 359 1116 354 1104 q 372 1137 363 1128 q 393 1151 381 1145 q 418 1156 404 1156 z "},"Ę":{"ha":741,"x_min":49,"x_max":721,"o":"m 721 267 q 654 169 693 216 q 568 84 615 121 q 465 23 520 47 q 350 -6 410 -1 q 320 -52 328 -32 q 315 -85 313 -71 q 325 -111 316 -100 q 348 -125 336 -122 q 372 -124 358 -127 q 399 -102 385 -120 l 415 -115 q 388 -148 401 -136 q 365 -166 375 -159 q 342 -177 353 -174 q 309 -175 327 -180 q 278 -159 292 -171 q 258 -126 264 -146 q 262 -75 253 -105 q 273 -54 266 -66 q 290 -33 279 -45 q 315 -8 300 -21 q 217 9 264 -8 q 132 57 169 26 q 72 132 94 88 q 49 229 49 176 q 70 327 49 281 q 124 409 91 372 q 200 475 158 446 q 286 525 243 505 q 231 547 256 530 q 190 588 207 564 q 164 641 173 612 q 155 700 155 670 q 170 778 155 741 q 211 847 185 815 q 270 904 236 878 q 341 947 304 929 q 419 974 379 964 q 496 983 458 983 q 597 961 551 983 q 679 897 644 939 l 581 825 q 550 862 566 845 q 514 892 533 880 q 472 912 494 905 q 425 920 450 920 q 364 908 394 920 q 310 877 334 897 q 272 829 286 857 q 257 768 257 802 q 272 704 257 734 q 311 653 287 675 q 367 619 336 631 q 432 607 399 607 q 503 619 470 607 l 513 591 q 403 546 458 574 q 305 480 349 519 q 235 391 262 441 q 208 275 208 340 q 219 206 208 238 q 251 151 230 174 q 301 113 271 127 q 370 100 332 100 q 458 116 409 100 q 553 158 507 132 q 639 218 600 184 q 697 288 677 252 l 721 267 z "},"Ě":{"ha":741,"x_min":49,"x_max":721,"o":"m 721 267 q 649 162 691 212 q 554 75 606 113 q 443 14 503 37 q 317 -8 382 -8 q 218 9 266 -8 q 132 57 170 26 q 72 132 94 88 q 49 229 49 176 q 70 327 49 281 q 124 409 91 372 q 200 475 158 446 q 286 525 243 505 q 231 547 256 530 q 190 588 207 564 q 164 641 173 612 q 155 700 155 670 q 170 778 155 741 q 211 847 185 815 q 270 904 236 878 q 341 947 304 929 q 419 974 379 964 q 496 983 458 983 q 597 961 551 983 q 679 897 644 939 l 581 825 q 550 862 566 845 q 514 892 533 880 q 472 912 494 905 q 425 920 450 920 q 364 908 394 920 q 310 877 334 897 q 272 829 286 857 q 257 768 257 802 q 272 704 257 734 q 311 653 287 675 q 367 619 336 631 q 432 607 399 607 q 503 619 470 607 l 513 591 q 403 546 458 574 q 305 480 349 519 q 235 391 262 441 q 208 275 208 340 q 219 206 208 238 q 251 151 230 174 q 301 113 271 127 q 370 100 332 100 q 458 116 409 100 q 553 158 507 132 q 639 218 600 184 q 697 288 677 252 l 721 267 m 609 1231 l 422 1020 l 226 1203 l 295 1276 l 460 1118 l 576 1259 l 609 1231 z "},"Ĝ":{"ha":901,"x_min":57,"x_max":818,"o":"m 818 851 q 797 779 818 812 q 746 716 777 745 q 679 667 715 688 q 611 633 642 646 q 544 613 578 621 q 475 603 509 605 l 461 627 q 521 650 490 634 q 576 690 551 667 q 617 743 602 713 q 633 806 633 772 q 625 848 633 829 q 602 879 616 866 q 568 898 587 891 q 525 904 548 904 q 425 883 469 904 q 348 826 381 862 q 292 745 315 791 q 254 648 269 699 q 233 546 239 597 q 227 449 227 494 q 230 377 227 415 q 243 302 234 340 q 269 231 253 265 q 308 172 284 197 q 364 131 332 146 q 439 115 396 115 q 507 129 475 115 q 566 165 539 142 q 613 217 592 187 q 648 279 633 247 q 670 345 663 312 q 677 408 677 378 l 818 458 l 818 -97 l 677 -147 l 677 275 q 634 168 665 220 q 564 77 604 117 q 475 13 523 37 q 379 -11 427 -11 q 246 19 306 -11 q 144 100 186 50 q 80 215 102 150 q 57 350 57 280 q 77 502 57 425 q 135 648 98 578 q 224 779 172 718 q 340 884 277 840 q 476 955 404 929 q 628 981 549 981 q 691 974 657 981 q 752 953 724 968 q 799 913 781 938 q 818 851 818 888 m 294 1036 l 259 1064 l 448 1276 l 642 1092 l 574 1020 l 409 1177 l 294 1036 z "},"Ğ":{"ha":901,"x_min":57,"x_max":818,"o":"m 818 851 q 797 779 818 812 q 746 716 777 745 q 679 667 715 688 q 611 633 642 646 q 544 613 578 621 q 475 603 509 605 l 461 627 q 521 650 490 634 q 576 690 551 667 q 617 743 602 713 q 633 806 633 772 q 625 848 633 829 q 602 879 616 866 q 568 898 587 891 q 525 904 548 904 q 425 883 469 904 q 348 826 381 862 q 292 745 315 791 q 254 648 269 699 q 233 546 239 597 q 227 449 227 494 q 230 377 227 415 q 243 302 234 340 q 269 231 253 265 q 308 172 284 197 q 364 131 332 146 q 439 115 396 115 q 507 129 475 115 q 566 165 539 142 q 613 217 592 187 q 648 279 633 247 q 670 345 663 312 q 677 408 677 378 l 818 458 l 818 -97 l 677 -147 l 677 275 q 634 168 665 220 q 564 77 604 117 q 475 13 523 37 q 379 -11 427 -11 q 246 19 306 -11 q 144 100 186 50 q 80 215 102 150 q 57 350 57 280 q 77 502 57 425 q 135 648 98 578 q 224 779 172 718 q 340 884 277 840 q 476 955 404 929 q 628 981 549 981 q 691 974 657 981 q 752 953 724 968 q 799 913 781 938 q 818 851 818 888 m 394 1271 l 414 1256 q 398 1223 403 1241 q 394 1187 394 1205 q 399 1147 394 1169 q 415 1106 404 1125 q 442 1074 426 1087 q 480 1061 458 1061 q 527 1080 509 1061 q 545 1128 545 1099 q 533 1178 545 1153 q 501 1218 521 1202 l 590 1275 q 629 1173 629 1232 q 616 1110 629 1138 q 583 1061 604 1082 q 532 1030 562 1041 q 469 1019 503 1019 q 417 1028 441 1019 q 376 1054 393 1038 q 349 1093 359 1070 q 340 1145 340 1116 q 344 1179 340 1161 q 355 1213 348 1196 q 372 1245 362 1230 q 394 1271 382 1260 z "},"Ġ":{"ha":901,"x_min":57,"x_max":818,"o":"m 818 851 q 797 779 818 812 q 746 716 777 745 q 679 667 715 688 q 611 633 642 646 q 544 613 578 621 q 475 603 509 605 l 461 627 q 521 650 490 634 q 576 690 551 667 q 617 743 602 713 q 633 806 633 772 q 625 848 633 829 q 602 879 616 866 q 568 898 587 891 q 525 904 548 904 q 425 883 469 904 q 348 826 381 862 q 292 745 315 791 q 254 648 269 699 q 233 546 239 597 q 227 449 227 494 q 230 377 227 415 q 243 302 234 340 q 269 231 253 265 q 308 172 284 197 q 364 131 332 146 q 439 115 396 115 q 507 129 475 115 q 566 165 539 142 q 613 217 592 187 q 648 279 633 247 q 670 345 663 312 q 677 408 677 378 l 818 458 l 818 -97 l 677 -147 l 677 275 q 634 168 665 220 q 564 77 604 117 q 475 13 523 37 q 379 -11 427 -11 q 246 19 306 -11 q 144 100 186 50 q 80 215 102 150 q 57 350 57 280 q 77 502 57 425 q 135 648 98 578 q 224 779 172 718 q 340 884 277 840 q 476 955 404 929 q 628 981 549 981 q 691 974 657 981 q 752 953 724 968 q 799 913 781 938 q 818 851 818 888 m 450 1143 q 475 1138 463 1143 q 495 1124 486 1133 q 509 1103 504 1115 q 514 1078 514 1091 q 509 1054 514 1065 q 495 1034 504 1042 q 475 1020 486 1025 q 450 1015 463 1015 q 425 1020 437 1015 q 405 1034 414 1025 q 391 1054 396 1042 q 387 1078 387 1065 q 391 1103 387 1091 q 405 1124 396 1115 q 425 1138 414 1133 q 450 1143 437 1143 z "},"Ģ":{"ha":901,"x_min":57,"x_max":818,"o":"m 818 851 q 797 779 818 812 q 746 716 777 745 q 679 667 715 688 q 611 633 642 646 q 544 613 578 621 q 475 603 509 605 l 461 627 q 521 650 490 634 q 576 690 551 667 q 617 743 602 713 q 633 806 633 772 q 625 848 633 829 q 602 879 616 866 q 568 898 587 891 q 525 904 548 904 q 425 883 469 904 q 348 826 381 862 q 292 745 315 791 q 254 648 269 699 q 233 546 239 597 q 227 449 227 494 q 230 377 227 415 q 243 302 234 340 q 269 231 253 265 q 308 172 284 197 q 364 131 332 146 q 439 115 396 115 q 507 129 475 115 q 566 165 539 142 q 613 217 592 187 q 648 279 633 247 q 670 345 663 312 q 677 408 677 378 l 818 458 l 818 -97 l 677 -147 l 677 275 q 634 168 665 220 q 564 77 604 117 q 475 13 523 37 q 379 -11 427 -11 q 246 19 306 -11 q 144 100 186 50 q 80 215 102 150 q 57 350 57 280 q 77 502 57 425 q 135 648 98 578 q 224 779 172 718 q 340 884 277 840 q 476 955 404 929 q 628 981 549 981 q 691 974 657 981 q 752 953 724 968 q 799 913 781 938 q 818 851 818 888 m 505 -113 q 499 -148 505 -132 q 482 -179 493 -165 q 457 -205 471 -193 q 429 -226 444 -217 l 411 -212 q 427 -191 420 -203 q 437 -167 435 -178 q 407 -147 419 -161 q 395 -113 395 -132 q 411 -74 395 -91 q 450 -58 427 -58 q 489 -74 473 -58 q 505 -113 505 -91 z "},"Ĥ":{"ha":899,"x_min":29,"x_max":771,"o":"m 771 29 l 631 -21 l 631 364 l 278 364 l 278 29 l 138 -21 l 138 364 l 29 364 l 79 463 l 138 463 l 138 950 l 278 1000 l 278 463 l 631 463 l 631 950 l 771 1000 l 771 29 m 333 1041 l 298 1069 l 488 1280 l 682 1097 l 614 1025 l 448 1181 l 333 1041 z "},"Ħ":{"ha":899,"x_min":29,"x_max":842,"o":"m 842 635 l 808 566 l 771 566 l 771 29 l 631 -21 l 631 364 l 278 364 l 278 29 l 138 -21 l 138 364 l 29 364 l 79 463 l 138 463 l 138 566 l 39 566 l 73 635 l 138 635 l 138 950 l 278 1000 l 278 635 l 631 635 l 631 950 l 771 1000 l 771 635 l 842 635 m 631 463 l 631 566 l 278 566 l 278 463 l 631 463 z "},"Ĩ":{"ha":396,"x_min":41,"x_max":342,"o":"m 268 29 l 127 -21 l 127 950 l 268 1000 l 268 29 m 99 1040 l 73 1026 q 52 1057 58 1042 q 44 1086 46 1073 q 43 1116 41 1102 q 69 1177 50 1153 q 131 1202 89 1200 q 169 1195 152 1203 q 200 1176 186 1187 q 225 1153 214 1165 q 246 1135 236 1141 q 268 1128 256 1127 q 287 1137 279 1128 q 297 1162 294 1145 q 291 1202 299 1178 l 317 1213 q 338 1170 333 1192 q 342 1132 342 1149 q 335 1094 341 1112 q 311 1056 326 1070 q 280 1036 297 1042 q 245 1033 263 1030 q 210 1047 227 1036 q 178 1074 193 1059 q 152 1099 164 1088 q 128 1115 139 1109 q 104 1114 117 1120 q 90 1097 94 1107 q 86 1074 85 1088 q 99 1040 86 1060 z "},"Ī":{"ha":396,"x_min":33,"x_max":362,"o":"m 268 29 l 127 -21 l 127 950 l 268 1000 l 268 29 m 33 1034 l 82 1141 l 362 1141 l 315 1034 l 33 1034 z "},"Ĭ":{"ha":396,"x_min":54,"x_max":342,"o":"m 268 29 l 127 -21 l 127 950 l 268 1000 l 268 29 m 108 1290 l 127 1275 q 112 1242 117 1260 q 108 1206 108 1224 q 113 1166 108 1188 q 129 1125 118 1144 q 156 1093 140 1106 q 194 1080 172 1080 q 241 1099 223 1080 q 259 1147 259 1118 q 247 1197 259 1172 q 215 1237 235 1221 l 304 1294 q 342 1192 342 1251 q 330 1129 342 1157 q 297 1080 318 1101 q 246 1049 275 1060 q 182 1038 216 1038 q 131 1047 155 1038 q 90 1073 107 1057 q 63 1112 73 1089 q 54 1164 54 1135 q 58 1198 54 1180 q 69 1232 62 1215 q 86 1264 76 1249 q 108 1290 96 1279 z "},"Į":{"ha":396,"x_min":120,"x_max":282,"o":"m 268 29 l 220 12 q 189 -35 196 -15 q 182 -68 181 -55 q 192 -96 182 -85 q 215 -110 203 -107 q 239 -109 225 -113 q 267 -87 252 -105 l 282 -100 q 255 -133 269 -121 q 232 -151 242 -144 q 209 -162 220 -159 q 176 -160 194 -165 q 145 -144 159 -156 q 125 -111 131 -132 q 130 -60 120 -90 q 138 -44 132 -53 q 149 -27 142 -37 q 167 -7 156 -18 l 127 -21 l 127 950 l 268 1000 l 268 29 z "},"İ":{"ha":396,"x_min":127,"x_max":268,"o":"m 268 29 l 127 -21 l 127 950 l 268 1000 l 268 29 m 198 1596 q 222 1591 211 1596 q 243 1577 234 1586 q 257 1556 252 1568 q 262 1531 262 1544 q 257 1507 262 1518 q 243 1487 252 1495 q 222 1473 234 1478 q 198 1468 211 1468 q 173 1473 184 1468 q 153 1487 161 1478 q 139 1507 144 1495 q 134 1531 134 1518 q 139 1556 134 1544 q 153 1577 144 1568 q 173 1591 161 1586 q 198 1596 184 1596 z "},"Ĳ":{"ha":968,"x_min":127,"x_max":960,"o":"m 268 29 l 127 -21 l 127 950 l 268 1000 l 268 29 m 960 972 q 905 905 932 939 q 852 838 878 872 q 828 805 838 820 q 812 774 819 789 q 802 741 805 758 q 799 701 799 723 l 799 158 q 773 30 799 91 q 702 -79 747 -32 q 597 -154 657 -126 q 470 -182 538 -182 q 365 -162 414 -182 q 274 -107 316 -142 l 388 -5 q 416 -48 398 -26 q 457 -89 435 -71 q 504 -119 479 -107 q 553 -131 529 -131 q 607 -115 587 -131 q 639 -74 628 -98 q 654 -19 650 -49 q 659 36 659 10 l 659 623 q 672 685 659 654 q 705 743 685 715 q 750 794 726 770 q 798 838 774 818 l 648 838 q 602 832 622 838 q 564 818 581 827 q 531 794 547 808 q 499 761 515 780 l 479 783 q 534 848 503 814 q 603 909 566 882 q 681 955 640 937 q 764 972 722 972 l 960 972 z "},"Ĵ":{"ha":579,"x_min":-115,"x_max":571,"o":"m 571 972 q 516 905 543 939 q 463 838 488 872 q 439 805 449 820 q 422 774 429 789 q 413 741 416 758 q 410 701 410 723 l 410 158 q 384 30 410 91 q 313 -79 357 -32 q 208 -154 268 -126 q 81 -182 149 -182 q -24 -162 25 -182 q -115 -107 -73 -142 l -1 -5 q 27 -48 9 -26 q 68 -89 45 -71 q 115 -119 90 -107 q 164 -131 140 -131 q 218 -115 197 -131 q 250 -74 239 -98 q 265 -19 261 -49 q 269 36 269 10 l 269 623 q 282 685 269 654 q 316 743 296 715 q 361 794 336 770 q 408 838 385 818 l 258 838 q 212 832 233 838 q 175 818 192 827 q 142 794 157 808 q 110 761 126 780 l 90 783 q 145 848 113 814 q 214 909 177 882 q 292 955 251 937 q 375 972 333 972 l 571 972 m 186 1031 l 152 1059 l 341 1271 l 535 1087 l 467 1015 l 302 1172 l 186 1031 z "},"Ķ":{"ha":852,"x_min":127,"x_max":844,"o":"m 844 163 q 806 106 829 136 q 753 49 783 75 q 691 5 724 23 q 624 -12 659 -12 q 547 6 582 -12 q 484 52 513 24 q 431 114 455 80 q 386 179 407 148 q 327 272 357 222 q 268 366 298 321 l 268 29 l 127 -21 l 127 950 l 268 1000 l 268 408 l 720 974 l 799 966 l 376 465 q 478 321 427 396 q 582 178 529 245 q 604 150 592 164 q 631 123 616 135 q 661 103 645 111 q 697 96 677 96 q 730 105 711 96 q 766 129 748 115 q 798 157 783 142 q 822 182 813 172 l 844 163 m 481 -113 q 475 -148 481 -132 q 458 -179 469 -165 q 433 -205 447 -193 q 404 -226 419 -217 l 387 -212 q 403 -191 395 -203 q 413 -167 410 -178 q 383 -147 395 -161 q 371 -113 371 -132 q 387 -74 371 -91 q 425 -58 403 -58 q 465 -74 448 -58 q 481 -113 481 -91 z "},"Ĺ":{"ha":765,"x_min":57,"x_max":745,"o":"m 745 192 l 608 -29 q 523 -15 562 -21 q 447 -4 484 -9 q 370 7 409 1 q 285 20 330 12 q 250 25 267 23 q 215 26 233 26 q 143 16 178 26 q 78 -16 109 6 l 57 7 q 81 36 71 19 q 99 72 92 53 q 109 111 106 92 q 113 149 113 131 l 113 549 q 146 726 113 644 q 238 868 179 808 q 376 964 296 929 q 549 999 456 999 q 606 992 578 999 q 655 970 634 985 q 690 932 677 956 q 703 873 703 908 q 691 814 703 843 q 660 760 680 786 q 613 712 640 734 q 559 673 587 690 q 500 643 530 655 q 444 624 471 631 l 433 650 q 481 681 456 663 q 526 720 506 699 q 559 767 547 741 q 572 822 572 792 q 564 866 572 846 q 539 900 555 886 q 504 922 524 914 q 461 930 484 930 q 372 909 410 930 q 307 852 333 887 q 267 772 280 817 q 253 681 253 727 l 253 244 q 245 194 253 218 q 225 148 238 170 q 196 106 213 126 q 160 71 179 87 q 202 99 182 86 q 244 122 222 113 q 288 137 265 132 q 339 142 311 142 q 399 138 373 142 q 451 131 426 135 q 503 124 477 127 q 564 121 530 121 q 609 128 587 121 q 651 147 631 135 q 688 175 671 159 q 720 210 705 191 l 745 192 m 410 1017 l 393 1040 l 551 1230 l 631 1141 l 410 1017 z "},"Ļ":{"ha":765,"x_min":57,"x_max":745,"o":"m 745 192 l 608 -29 q 523 -15 562 -21 q 447 -4 484 -9 q 370 7 409 1 q 285 20 330 12 q 250 25 267 23 q 215 26 233 26 q 143 16 178 26 q 78 -16 109 6 l 57 7 q 81 36 71 19 q 99 72 92 53 q 109 111 106 92 q 113 149 113 131 l 113 549 q 146 726 113 644 q 238 868 179 808 q 376 964 296 929 q 549 999 456 999 q 606 992 578 999 q 655 970 634 985 q 690 932 677 956 q 703 873 703 908 q 691 814 703 843 q 660 760 680 786 q 613 712 640 734 q 559 673 587 690 q 500 643 530 655 q 444 624 471 631 l 433 650 q 481 681 456 663 q 526 720 506 699 q 559 767 547 741 q 572 822 572 792 q 564 866 572 846 q 539 900 555 886 q 504 922 524 914 q 461 930 484 930 q 372 909 410 930 q 307 852 333 887 q 267 772 280 817 q 253 681 253 727 l 253 244 q 245 194 253 218 q 225 148 238 170 q 196 106 213 126 q 160 71 179 87 q 202 99 182 86 q 244 122 222 113 q 288 137 265 132 q 339 142 311 142 q 399 138 373 142 q 451 131 426 135 q 503 124 477 127 q 564 121 530 121 q 609 128 587 121 q 651 147 631 135 q 688 175 671 159 q 720 210 705 191 l 745 192 m 437 -113 q 431 -148 437 -132 q 414 -179 425 -165 q 390 -205 404 -193 q 361 -226 376 -217 l 343 -212 q 359 -191 352 -203 q 370 -167 367 -178 q 339 -147 351 -161 q 328 -113 328 -132 q 343 -74 328 -91 q 382 -58 359 -58 q 421 -74 405 -58 q 437 -113 437 -91 z "},"Ŀ":{"ha":909,"x_min":57,"x_max":843,"o":"m 745 192 l 608 -29 q 523 -15 562 -21 q 447 -4 484 -9 q 370 7 409 1 q 285 20 330 12 q 250 25 267 23 q 215 26 233 26 q 143 16 178 26 q 78 -16 109 6 l 57 7 q 81 36 71 19 q 99 72 92 53 q 109 111 106 92 q 113 149 113 131 l 113 549 q 146 726 113 644 q 238 868 179 808 q 376 964 296 929 q 549 999 456 999 q 606 992 578 999 q 655 970 634 985 q 690 932 677 956 q 703 873 703 908 q 691 814 703 843 q 660 760 680 786 q 613 712 640 734 q 559 673 587 690 q 500 643 530 655 q 444 624 471 631 l 433 650 q 481 681 456 663 q 526 720 506 699 q 559 767 547 741 q 572 822 572 792 q 564 866 572 846 q 539 900 555 886 q 504 922 524 914 q 461 930 484 930 q 372 909 410 930 q 307 852 333 887 q 267 772 280 817 q 253 681 253 727 l 253 244 q 245 194 253 218 q 225 148 238 170 q 196 106 213 126 q 160 71 179 87 q 202 99 182 86 q 244 122 222 113 q 288 137 265 132 q 339 142 311 142 q 399 138 373 142 q 451 131 426 135 q 503 124 477 127 q 564 121 530 121 q 609 128 587 121 q 651 147 631 135 q 688 175 671 159 q 720 210 705 191 l 745 192 m 843 496 q 837 466 843 479 q 819 441 830 452 q 794 424 808 430 q 764 418 780 418 q 733 424 747 418 q 709 441 720 430 q 692 466 698 452 q 686 496 686 479 q 692 527 686 512 q 709 552 698 541 q 733 569 720 562 q 764 575 747 575 q 794 569 780 575 q 819 552 808 562 q 837 527 830 541 q 843 496 843 512 z "}}}
